<svg width="40" height="40" viewBox="0 0 40 40" fill="none" xmlns="http://www.w3.org/2000/svg">
<circle opacity="0.1" cx="20" cy="20" r="19.5" stroke="url(#paint0_linear_902_287)"/>
<g clip-path="url(#clip0_902_287)">
<path d="M20 13.442C22.136 13.442 22.3893 13.45 23.2333 13.4887C25.4013 13.5873 26.414 14.616 26.5127 16.768C26.5513 17.6113 26.5587 17.8647 26.5587 20.0007C26.5587 22.1373 26.5507 22.39 26.5127 23.2333C26.4133 25.3833 25.4033 26.414 23.2333 26.5127C22.3893 26.5513 22.1373 26.5593 20 26.5593C17.864 26.5593 17.6107 26.5513 16.7673 26.5127C14.594 26.4133 13.5867 25.38 13.488 23.2327C13.4493 22.3893 13.4413 22.1367 13.4413 20C13.4413 17.864 13.45 17.6113 13.488 16.7673C13.5873 14.616 14.5973 13.5867 16.7673 13.488C17.6113 13.45 17.864 13.442 20 13.442ZM20 12C17.8273 12 17.5553 12.0093 16.702 12.048C13.7967 12.1813 12.182 13.7933 12.0487 16.7013C12.0093 17.5553 12 17.8273 12 20C12 22.1727 12.0093 22.4453 12.048 23.2987C12.1813 26.204 13.7933 27.8187 16.7013 27.952C17.5553 27.9907 17.8273 28 20 28C22.1727 28 22.4453 27.9907 23.2987 27.952C26.2013 27.8187 27.82 26.2067 27.9513 23.2987C27.9907 22.4453 28 22.1727 28 20C28 17.8273 27.9907 17.5553 27.952 16.702C27.8213 13.7993 26.2073 12.182 23.2993 12.0487C22.4453 12.0093 22.1727 12 20 12V12ZM20 15.892C17.7313 15.892 15.892 17.7313 15.892 20C15.892 22.2687 17.7313 24.1087 20 24.1087C22.2687 24.1087 24.108 22.2693 24.108 20C24.108 17.7313 22.2687 15.892 20 15.892ZM20 22.6667C18.5273 22.6667 17.3333 21.4733 17.3333 20C17.3333 18.5273 18.5273 17.3333 20 17.3333C21.4727 17.3333 22.6667 18.5273 22.6667 20C22.6667 21.4733 21.4727 22.6667 20 22.6667ZM24.2707 14.77C23.74 14.77 23.31 15.2 23.31 15.73C23.31 16.26 23.74 16.69 24.2707 16.69C24.8007 16.69 25.23 16.26 25.23 15.73C25.23 15.2 24.8007 14.77 24.2707 14.77Z" fill="white"/>
</g>
<defs>
<linearGradient id="paint0_linear_902_287" x1="40" y1="32.5337" x2="29.4251" y2="-3.10165" gradientUnits="userSpaceOnUse">
<stop stop-color="white"/>
<stop offset="1" stop-color="#B7B7B7"/>
</linearGradient>
<clipPath id="clip0_902_287">
<rect width="16" height="16" fill="white" transform="translate(12 12)"/>
</clipPath>
</defs>
</svg>
