<svg width="40" height="40" viewBox="0 0 40 40" fill="none" xmlns="http://www.w3.org/2000/svg">
<circle opacity="0.1" cx="20" cy="20" r="19.5" stroke="url(#paint0_linear_902_230)"/>
<path d="M16.2169 20.5216H17.9708V27.7419C17.9708 27.8845 18.0863 28 18.2288 28H21.2026C21.3451 28 21.4606 27.8845 21.4606 27.7419V20.5556H23.4768C23.6079 20.5556 23.7182 20.4572 23.7332 20.327L24.0394 17.6689C24.0478 17.5957 24.0247 17.5225 23.9757 17.4676C23.9268 17.4127 23.8567 17.3813 23.7831 17.3813H21.4607V15.715C21.4607 15.2127 21.7312 14.958 22.2647 14.958C22.3407 14.958 23.7831 14.958 23.7831 14.958C23.9257 14.958 24.0412 14.8424 24.0412 14.6999V12.26C24.0412 12.1174 23.9257 12.0019 23.7831 12.0019H21.6905C21.6757 12.0012 21.6429 12 21.5946 12C21.2315 12 19.9694 12.0713 18.9725 12.9884C17.8679 14.0048 18.0214 15.2217 18.0581 15.4327V17.3812H16.2169C16.0744 17.3812 15.9589 17.4967 15.9589 17.6393V20.2635C15.9589 20.406 16.0744 20.5216 16.2169 20.5216Z" fill="white"/>
<defs>
<linearGradient id="paint0_linear_902_230" x1="40" y1="32.5337" x2="29.4251" y2="-3.10165" gradientUnits="userSpaceOnUse">
<stop stop-color="white"/>
<stop offset="1" stop-color="#B7B7B7"/>
</linearGradient>
</defs>
</svg>
