<svg width="40" height="40" viewBox="0 0 40 40" fill="none" xmlns="http://www.w3.org/2000/svg">
<circle opacity="0.1" cx="20" cy="20" r="19.5" stroke="url(#paint0_linear_902_231)"/>
<g clip-path="url(#clip0_902_231)">
<path d="M27.5283 15.14C27.4494 15.1631 27.3706 15.1845 27.2917 15.2045C26.8095 15.3263 26.7652 15.1656 27.1143 14.8112C27.2706 14.6523 27.4088 14.4796 27.5287 14.293C27.7976 13.8746 27.5644 13.6922 27.1069 13.8876C26.9437 13.9573 26.7779 14.0205 26.6097 14.0769C26.1383 14.2352 25.4694 13.9964 25.0494 13.73C24.5192 13.3937 23.9165 13.2257 23.2414 13.2257C22.2956 13.2257 21.4895 13.5593 20.8225 14.2258C20.1558 14.8927 19.8223 15.6991 19.8223 16.6446C19.8223 16.7739 19.8296 16.9052 19.8442 17.0383C19.8682 17.255 19.5033 17.412 19.0109 17.3425C17.9458 17.1921 16.9338 16.8694 15.9747 16.3746C15.0236 15.884 14.1841 15.2666 13.4565 14.5224C13.1086 14.1667 12.6382 14.1974 12.5084 14.6775C12.4305 14.9653 12.3919 15.2646 12.3919 15.5755C12.3919 16.1614 12.5294 16.7048 12.8046 17.2056C12.9415 17.4549 13.1018 17.6806 13.2859 17.8825C13.5955 18.2223 13.5481 18.4195 13.1172 18.2987C12.6863 18.1779 12.3706 17.9985 12.3706 18.0102C12.3706 18.0219 12.3706 18.0314 12.3706 18.0314C12.3706 18.8569 12.6298 19.5821 13.1485 20.2066C13.468 20.5913 13.8392 20.8884 14.2619 21.0977C14.7077 21.3185 14.9153 21.4417 14.6661 21.4739C14.5157 21.4934 14.3644 21.5031 14.2122 21.5031C14.1092 21.5031 14.0011 21.4984 13.8884 21.4889C13.7101 21.4738 13.678 21.8453 13.9484 22.2628C14.1632 22.5946 14.4382 22.8865 14.7733 23.1387C15.114 23.3953 15.4813 23.5795 15.8744 23.6918C16.3528 23.8281 16.4488 24.0765 16.0223 24.3322C14.9668 24.9655 13.7989 25.2821 12.5185 25.2821C12.3743 25.2821 12.2366 25.2789 12.1052 25.2726C11.877 25.2616 12.0301 25.4626 12.4706 25.6933C13.8471 26.4143 15.3379 26.7744 16.943 26.7744C18.1565 26.7744 19.2962 26.5823 20.3619 26.1977C21.4272 25.8132 22.3376 25.2979 23.0926 24.6523C23.8476 24.0066 24.4987 23.264 25.0457 22.4242C25.5925 21.5844 25.9999 20.7076 26.2682 19.7939C26.5362 18.8801 26.6704 17.9644 26.6704 17.047C26.6704 16.9643 26.6697 16.8901 26.6684 16.8247C26.6659 16.7019 26.9908 16.3694 27.3535 16.0292C27.5173 15.8756 27.6734 15.7144 27.8225 15.5453C28.1515 15.1719 28.0058 15.0008 27.5283 15.14Z" fill="white"/>
</g>
<defs>
<linearGradient id="paint0_linear_902_231" x1="40" y1="32.5337" x2="29.4251" y2="-3.10165" gradientUnits="userSpaceOnUse">
<stop stop-color="white"/>
<stop offset="1" stop-color="#B7B7B7"/>
</linearGradient>
<clipPath id="clip0_902_231">
<rect width="16" height="16" fill="white" transform="translate(12 12)"/>
</clipPath>
</defs>
</svg>
