<?xml version="1.0" encoding="utf-8"?>
<!-- Generator: Adobe Illustrator 26.0.1, SVG Export Plug-In . SVG Version: 6.00 Build 0)  -->
<svg version="1.1" id="Layer_1" xmlns="http://www.w3.org/2000/svg" xmlns:xlink="http://www.w3.org/1999/xlink" x="0px" y="0px"
	 viewBox="0 0 40 40" style="enable-background:new 0 0 40 40;" xml:space="preserve">
<style type="text/css">
	.st0{fill:none;}
	.st1{fill:#020553;}
	.st2{fill:#D7E7FF;}
</style>
<g>
	<rect x="1.7" y="1.7" class="st0" width="36.6" height="36.6"/>
	<g>
		<path class="st1" d="M30.2,3.7c-3.4,0-6.1,2.7-6.1,6.1v4.1H20c-3.4,0-6.1,2.7-6.1,6.1v4.1H9.8c-3.4,0-6.1,2.7-6.1,6.1v6.1h10.2h2
			h8.1h2h10.2V3.7H30.2z M13.9,34.2H5.8v-4c0-1.1,0.4-2.1,1.2-2.9c0.8-0.8,1.8-1.2,2.9-1.2h4.1V34.2z M24.1,34.2h-8.1V24.1V20
			c0-1.1,0.4-2.1,1.2-2.9c0.8-0.8,1.8-1.2,2.9-1.2h4.1V34.2z M34.2,34.2h-8.1V13.9V9.8c0-1.1,0.4-2.1,1.2-2.9
			c0.8-0.8,1.8-1.2,2.9-1.2h4.1V34.2z"/>
		<polygon class="st1" points="5.2,20 17.7,7.5 20,9.8 20,3.7 13.9,3.7 16.2,6.1 3.8,18.5 		"/>
	</g>
</g>
<path class="st2" d="M24.1,34.2h-8.1V24.1V20c0-1.1,0.4-2.1,1.2-2.9c0.8-0.8,1.8-1.2,2.9-1.2h4.1V34.2z"/>
</svg>
