<?xml version="1.0" encoding="UTF-8" standalone="no"?>
<!DOCTYPE svg PUBLIC "-//W3C//DTD SVG 1.1//EN" "http://www.w3.org/Graphics/SVG/1.1/DTD/svg11.dtd">
<svg xmlns="http://www.w3.org/2000/svg" version="1.1" viewBox="0.00 0.00 636.00 392.00">
<clipPath id="clipping-path-0">
<path d="
  M 0.00 0.00
  L 636.00 0.00
  L 636.00 392.00
  L 0.00 392.00
  L 0.00 0.00
  Z"/>
</clipPath>
<g stroke-width="2.00" fill="none" stroke-linecap="butt" clip-path="url(#clipping-path-0)">
<path stroke="#ecf0fc" vector-effect="non-scaling-stroke" d="
  M 338.71 60.93
  Q 336.64 60.51 335.38 61.98
  Q 335.05 62.37 335.04 62.88
  Q 334.66 88.05 334.18 113.22
  C 334.14 115.25 334.88 117.18 335.11 119.24"
/>
<path stroke="#8cc7fb" vector-effect="non-scaling-stroke" d="
  M 314.72 110.66
  L 309.80 107.37"
/>
<path stroke="#82bff9" vector-effect="non-scaling-stroke" d="
  M 325.96 183.19
  Q 326.27 187.98 327.65 189.00"
/>
<path stroke="#8cc7fb" vector-effect="non-scaling-stroke" d="
  M 327.65 189.00
  Q 329.24 190.45 331.16 191.57
  C 340.71 197.13 349.52 202.53 359.80 208.20
  C 369.99 213.81 380.47 220.46 389.90 225.72
  Q 406.89 235.21 423.66 245.08
  C 428.86 248.14 435.29 251.25 440.95 254.66
  C 453.38 262.12 465.62 269.55 478.10 276.06"
/>
<path stroke="#82bff9" vector-effect="non-scaling-stroke" d="
  M 478.10 276.06
  Q 479.63 276.64 481.27 275.77
  Q 487.04 272.72 498.60 266.03
  C 501.51 264.35 500.15 261.90 500.23 259.53
  Q 500.52 251.92 500.30 244.27
  A 0.22 0.21 -61.8 0 0 500.27 244.16
  L 499.08 242.20
  A 0.29 0.29 0.0 0 1 499.50 241.82
  Q 500.92 242.90 500.96 244.51
  Q 501.19 254.15 500.82 263.42
  A 0.73 0.73 0.0 0 0 501.91 264.08
  L 513.71 257.43"
/>
<path stroke="#8cc7fb" vector-effect="non-scaling-stroke" d="
  M 383.73 224.85
  Q 384.14 223.60 381.94 222.36
  C 375.38 218.67 369.04 214.54 362.46 210.80
  Q 361.06 210.01 360.14 210.25"
/>
<path stroke="#ecf0fc" vector-effect="non-scaling-stroke" d="
  M 478.10 276.06
  Q 480.20 275.77 478.57 273.12
  Q 478.31 272.69 478.34 272.19
  C 478.49 269.46 478.69 266.97 478.35 264.28
  Q 476.13 246.75 469.40 230.39
  Q 469.25 230.02 468.86 229.90
  Q 468.09 229.67 468.11 228.93
  Q 468.12 228.43 467.87 227.99
  Q 465.82 224.40 464.07 220.67
  Q 462.11 216.53 460.15 213.37
  Q 455.05 205.20 450.61 196.63
  C 449.80 195.05 448.18 193.27 447.11 191.53
  Q 439.52 179.14 429.07 169.27
  Q 421.97 162.56 413.93 156.20
  Q 402.10 146.82 389.49 142.13
  Q 381.79 139.27 372.30 138.93
  C 355.07 138.32 341.52 145.99 334.43 162.07
  Q 333.47 164.27 330.21 165.79
  A 0.79 0.79 0.0 0 0 329.76 166.52
  Q 329.79 168.23 329.21 169.79
  Q 328.39 172.02 328.30 173.39
  Q 328.07 177.07 327.57 178.50
  Q 326.63 181.19 327.69 182.84
  Q 327.93 183.22 327.72 183.62
  Q 326.47 185.99 327.65 189.00"
/>
<path stroke="#ecf0fc" vector-effect="non-scaling-stroke" d="
  M 487.17 175.23
  Q 486.75 175.42 487.22 176.01
  Q 487.41 176.25 487.16 176.43
  Q 486.57 176.85 486.16 177.50
  Q 485.90 177.92 485.47 178.17
  Q 481.03 180.65 476.72 183.35
  Q 475.89 183.87 473.46 184.60
  Q 471.46 185.19 470.26 187.00
  Q 470.00 187.39 469.59 187.63
  Q 467.55 188.80 465.53 189.86
  Q 465.21 190.02 464.96 189.77
  Q 464.18 188.98 462.74 189.75
  Q 459.65 191.41 451.02 192.60
  Q 450.57 192.66 450.19 192.40
  Q 448.68 191.35 447.82 189.78
  C 445.90 186.29 443.59 183.47 441.43 180.20
  Q 438.86 176.32 436.91 174.07
  C 429.44 165.43 420.39 156.85 411.82 150.32
  C 402.82 143.46 392.24 139.31 382.10 135.52
  A 1.46 1.46 0.0 0 1 381.94 132.86
  Q 388.68 129.33 394.52 124.45
  Q 394.88 124.15 394.72 123.70
  Q 393.09 119.17 394.15 114.38
  Q 394.21 114.09 394.47 113.97
  Q 394.79 113.80 394.82 113.44
  Q 395.00 111.02 394.02 108.68"
/>
<path stroke="#8be0f6" vector-effect="non-scaling-stroke" d="
  M 440.03 127.56
  L 439.91 140.19
  Q 439.91 140.81 440.43 141.14
  L 442.53 142.47
  A 0.53 0.53 0.0 0 1 442.52 143.37
  L 439.57 145.21
  Q 438.70 145.75 438.69 144.72
  Q 438.23 107.86 438.71 71.00
  Q 438.76 67.13 435.25 65.29
  Q 430.67 62.89 424.39 59.18
  Q 419.69 56.40 413.58 53.04
  Q 404.06 47.80 394.93 41.87"
/>
<path stroke="#ecf0fc" vector-effect="non-scaling-stroke" d="
  M 595.50 130.09
  Q 589.93 129.41 589.85 133.74
  Q 589.00 178.64 588.94 261.09"
/>
<path stroke="#8be0f6" vector-effect="non-scaling-stroke" d="
  M 564.92 249.47
  Q 559.44 244.81 552.94 242.48"
/>
<path stroke="#8be0f6" vector-effect="non-scaling-stroke" d="
  M 541.07 299.98
  Q 534.55 299.24 527.38 295.49"
/>
<path stroke="#ecf0fc" vector-effect="non-scaling-stroke" d="
  M 596.71 211.88
  Q 596.77 212.38 596.49 212.74
  Q 596.40 212.86 596.52 212.93
  Q 596.90 213.19 596.67 213.06"
/>
<path stroke="#21aff3" vector-effect="non-scaling-stroke" d="
  M 285.25 241.33
  C 283.98 242.46 283.10 241.39 281.76 241.97
  Q 281.09 242.27 281.83 242.31
  L 282.95 242.37"
/>
<path stroke="#8cc7fb" vector-effect="non-scaling-stroke" d="
  M 295.99 52.15
  L 301.80 58.55
  A 0.72 0.72 0.0 0 0 302.40 58.79
  L 306.79 58.50
  A 0.66 0.66 0.0 0 0 307.05 57.26
  L 296.47 51.68
  A 1.28 1.28 0.0 0 0 294.59 52.80
  L 294.50 59.00
  A 3.05 3.03 15.7 0 0 296.02 61.68
  L 307.71 68.49
  Q 308.22 68.78 308.23 68.19
  L 308.27 59.81
  A 0.74 0.74 0.0 0 0 307.19 59.15
  Q 304.69 60.46 301.88 59.87
  A 0.91 0.87 74.3 0 1 301.39 59.58
  L 295.48 52.65
  Q 295.35 52.50 295.49 52.36
  L 295.69 52.14
  Q 295.84 51.98 295.99 52.15"
/>
<path stroke="#8cc7fb" vector-effect="non-scaling-stroke" d="
  M 326.4061 63.8241
  A 0.50 0.50 0.0 0 0 326.2351 63.1380
  L 318.4006 58.4305
  A 0.50 0.50 0.0 0 0 317.7145 58.6016
  L 317.6939 58.6359
  A 0.50 0.50 0.0 0 0 317.8649 59.3220
  L 325.6994 64.0295
  A 0.50 0.50 0.0 0 0 326.3855 63.8584
  L 326.4061 63.8241"
/>
<path stroke="#8cc7fb" vector-effect="non-scaling-stroke" d="
  M 319.2794 66.1366
  A 0.42 0.42 0.0 0 0 319.1316 65.5613
  L 313.4163 62.1813
  A 0.42 0.42 0.0 0 0 312.8410 62.3290
  L 312.8206 62.3634
  A 0.42 0.42 0.0 0 0 312.9684 62.9387
  L 318.6837 66.3187
  A 0.42 0.42 0.0 0 0 319.2590 66.1710
  L 319.2794 66.1366"
/>
<path stroke="#8be0f6" vector-effect="non-scaling-stroke" d="
  M 315.2104 68.7206
  A 1.59 0.52 34.5 0 0 314.1945 67.3915
  A 1.59 0.52 34.5 0 0 312.5896 66.9194
  A 1.59 0.52 34.5 0 0 313.6055 68.2485
  A 1.59 0.52 34.5 0 0 315.2104 68.7206"
/>
<path stroke="#8be0f6" vector-effect="non-scaling-stroke" d="
  M 328.7285 71.5670
  A 3.97 0.48 29.7 0 0 325.5178 69.1831
  A 3.97 0.48 29.7 0 0 321.8315 67.6330
  A 3.97 0.48 29.7 0 0 325.0422 70.0169
  A 3.97 0.48 29.7 0 0 328.7285 71.5670"
/>
<path stroke="#8be0f6" vector-effect="non-scaling-stroke" d="
  M 323.3490 73.1038
  A 0.26 0.26 0.0 0 0 323.2594 72.7472
  L 318.4028 69.8405
  A 0.26 0.26 0.0 0 0 318.0462 69.9301
  L 317.8510 70.2562
  A 0.26 0.26 0.0 0 0 317.9406 70.6128
  L 322.7972 73.5195
  A 0.26 0.26 0.0 0 0 323.1538 73.4299
  L 323.3490 73.1038"
/>
<path stroke="#8be0f6" vector-effect="non-scaling-stroke" d="
  M 317.0617 74.5271
  A 2.72 0.49 31.4 0 0 314.9953 72.6918
  A 2.72 0.49 31.4 0 0 312.4183 71.6929
  A 2.72 0.49 31.4 0 0 314.4847 73.5282
  A 2.72 0.49 31.4 0 0 317.0617 74.5271"
/>
<path stroke="#8be0f6" vector-effect="non-scaling-stroke" d="
  M 328.4588 76.2361
  A 1.60 0.56 33.2 0 0 327.4266 74.8914
  A 1.60 0.56 33.2 0 0 325.7812 74.4839
  A 1.60 0.56 33.2 0 0 326.8134 75.8286
  A 1.60 0.56 33.2 0 0 328.4588 76.2361"
/>
<path stroke="#8be0f6" vector-effect="non-scaling-stroke" d="
  M 324.64 78.58
  L 324.91 78.02
  A 0.17 0.17 0.0 0 0 324.83 77.79
  L 324.70 77.73
  A 5.77 0.30 25.5 0 0 319.36 75.52
  L 319.21 75.84
  A 5.77 0.30 25.5 0 0 324.29 78.60
  L 324.41 78.66
  A 0.17 0.17 0.0 0 0 324.64 78.58"
/>
<path stroke="#8cc7fb" vector-effect="non-scaling-stroke" d="
  M 318.7421 85.3859
  A 0.40 0.40 0.0 0 0 318.6033 84.8375
  L 305.1692 76.8292
  A 0.40 0.40 0.0 0 0 304.6208 76.9679
  L 304.4979 77.1741
  A 0.40 0.40 0.0 0 0 304.6367 77.7225
  L 318.0708 85.7308
  A 0.40 0.40 0.0 0 0 318.6192 85.5921
  L 318.7421 85.3859"
/>
<path stroke="#8be0f6" vector-effect="non-scaling-stroke" d="
  M 328.6544 80.5483
  A 0.84 0.47 24.5 0 0 328.0849 79.7723
  A 0.84 0.47 24.5 0 0 327.1256 79.8517
  A 0.84 0.47 24.5 0 0 327.6951 80.6277
  A 0.84 0.47 24.5 0 0 328.6544 80.5483"
/>
<path stroke="#8cc7fb" vector-effect="non-scaling-stroke" d="
  M 302.3655 83.9499
  A 0.39 0.39 0.0 0 0 302.2265 83.4162
  L 296.5684 80.0966
  A 0.39 0.39 0.0 0 0 296.0347 80.2356
  L 296.0145 80.2701
  A 0.39 0.39 0.0 0 0 296.1535 80.8038
  L 301.8116 84.1234
  A 0.39 0.39 0.0 0 0 302.3453 83.9844
  L 302.3655 83.9499"
/>
<path stroke="#8cc7fb" vector-effect="non-scaling-stroke" d="
  M 298.1275 85.9192
  A 1.12 0.55 25.9 0 0 297.3602 84.9352
  A 1.12 0.55 25.9 0 0 296.1125 84.9408
  A 1.12 0.55 25.9 0 0 296.8798 85.9248
  A 1.12 0.55 25.9 0 0 298.1275 85.9192"
/>
<path stroke="#8cc7fb" vector-effect="non-scaling-stroke" d="
  M 308.9731 88.2184
  A 2.63 0.41 35.8 0 0 307.0798 86.3475
  A 2.63 0.41 35.8 0 0 304.7069 85.1416
  A 2.63 0.41 35.8 0 0 306.6002 87.0125
  A 2.63 0.41 35.8 0 0 308.9731 88.2184"
/>
<path stroke="#8cc7fb" vector-effect="non-scaling-stroke" d="
  M 305.9058 90.5318
  A 3.11 0.43 31.0 0 0 303.4615 88.5614
  A 3.11 0.43 31.0 0 0 300.5742 87.3282
  A 3.11 0.43 31.0 0 0 303.0185 89.2986
  A 3.11 0.43 31.0 0 0 305.9058 90.5318"
/>
<path stroke="#8cc7fb" vector-effect="non-scaling-stroke" d="
  M 299.9601 91.7705
  A 2.38 0.47 33.7 0 0 298.2408 90.0590
  A 2.38 0.47 33.7 0 0 295.9999 89.1295
  A 2.38 0.47 33.7 0 0 297.7192 90.8410
  A 2.38 0.47 33.7 0 0 299.9601 91.7705"
/>
<path stroke="#8be0f6" vector-effect="non-scaling-stroke" d="
  M 317.1888 92.7852
  A 3.42 0.43 30.1 0 0 314.4456 90.6980
  A 3.42 0.43 30.1 0 0 311.2712 89.3548
  A 3.42 0.43 30.1 0 0 314.0144 91.4420
  A 3.42 0.43 30.1 0 0 317.1888 92.7852"
/>
<path stroke="#8be0f6" vector-effect="non-scaling-stroke" d="
  M 312.0620 94.3523
  A 2.56 0.47 31.1 0 0 310.1128 92.6276
  A 2.56 0.47 31.1 0 0 307.6780 91.7077
  A 2.56 0.47 31.1 0 0 309.6272 93.4324
  A 2.56 0.47 31.1 0 0 312.0620 94.3523"
/>
<path stroke="#8cc7fb" vector-effect="non-scaling-stroke" d="
  M 306.8763 95.7271
  A 2.85 0.45 32.4 0 0 304.7111 93.8201
  A 2.85 0.45 32.4 0 0 302.0637 92.6729
  A 2.85 0.45 32.4 0 0 304.2289 94.5799
  A 2.85 0.45 32.4 0 0 306.8763 95.7271"
/>
<path stroke="#8be0f6" vector-effect="non-scaling-stroke" d="
  M 325.7869 97.6816
  A 3.62 0.41 29.3 0 0 322.8306 95.5525
  A 3.62 0.41 29.3 0 0 319.4731 94.1384
  A 3.62 0.41 29.3 0 0 322.4294 96.2675
  A 3.62 0.41 29.3 0 0 325.7869 97.6816"
/>
<path stroke="#8be0f6" vector-effect="non-scaling-stroke" d="
  M 320.6293 98.7326
  A 3.45 0.41 24.9 0 0 317.6726 96.9081
  A 3.45 0.41 24.9 0 0 314.3707 95.8274
  A 3.45 0.41 24.9 0 0 317.3274 97.6519
  A 3.45 0.41 24.9 0 0 320.6293 98.7326"
/>
<path stroke="#8be0f6" vector-effect="non-scaling-stroke" d="
  M 316.0422 100.6018
  A 3.86 0.41 28.5 0 0 312.8456 98.3997
  A 3.86 0.41 28.5 0 0 309.2578 96.9182
  A 3.86 0.41 28.5 0 0 312.4544 99.1203
  A 3.86 0.41 28.5 0 0 316.0422 100.6018"
/>
<path stroke="#8be0f6" vector-effect="non-scaling-stroke" d="
  M 325.8556 101.9012
  A 1.57 0.53 32.4 0 0 324.8140 100.6125
  A 1.57 0.53 32.4 0 0 323.2044 100.2188
  A 1.57 0.53 32.4 0 0 324.2460 101.5075
  A 1.57 0.53 32.4 0 0 325.8556 101.9012"
/>
<path stroke="#8be0f6" vector-effect="non-scaling-stroke" d="
  M 321.8888 104.0677
  A 2.14 0.42 31.8 0 0 320.2913 102.5830
  A 2.14 0.42 31.8 0 0 318.2512 101.8123
  A 2.14 0.42 31.8 0 0 319.8487 103.2970
  A 2.14 0.42 31.8 0 0 321.8888 104.0677"
/>
<path stroke="#8be0f6" vector-effect="non-scaling-stroke" d="
  M 325.36 106.63
  A 0.26 0.26 0.0 0 0 325.79 106.50
  Q 326.02 105.41 324.95 105.26
  A 0.39 0.39 0.0 0 0 324.62 105.92
  L 325.36 106.63"
/>
<path stroke="#8be0f6" vector-effect="non-scaling-stroke" d="
  M 402.10 69.48
  Q 400.15 68.58 400.94 66.50
  A 0.49 0.48 70.7 0 0 400.07 66.08
  C 398.91 68.02 400.76 71.07 403.13 70.33
  Q 403.65 70.16 403.60 69.62
  Q 403.26 65.87 403.22 62.13
  Q 403.22 61.67 403.68 58.46
  C 403.98 56.38 403.07 53.36 400.44 53.73
  A 0.52 0.51 86.2 0 0 400.00 54.24
  L 400.03 60.40
  A 0.45 0.45 0.0 0 0 400.10 60.64
  Q 400.25 60.92 400.60 61.05
  A 0.51 0.51 0.0 0 1 400.81 61.88
  L 400.11 62.62
  Q 399.73 63.02 399.86 63.55
  Q 400.08 64.47 401.15 64.67
  A 1.06 1.05 86.3 0 1 401.98 65.41
  L 402.98 68.72
  A 0.64 0.64 0.0 0 1 402.10 69.48"
/>
<path stroke="#8be0f6" vector-effect="non-scaling-stroke" d="
  M 415.87 72.58
  A 0.31 0.31 0.0 0 0 416.02 72.84
  L 418.41 74.33
  A 0.31 0.31 0.0 0 0 418.89 74.06
  L 418.84 62.73
  A 0.31 0.31 0.0 0 0 418.66 62.45
  L 416.32 61.40
  A 0.31 0.31 0.0 0 0 415.88 61.69
  L 415.87 72.58"
/>
<path stroke="#8be0f6" vector-effect="non-scaling-stroke" d="
  M 430.5834 71.1943
  A 1.16 1.16 0.0 0 0 428.9869 70.8169
  L 427.0130 72.0360
  A 1.16 1.16 0.0 0 0 426.6357 73.6325
  L 429.3366 78.0057
  A 1.16 1.16 0.0 0 0 430.9331 78.3831
  L 432.9070 77.1640
  A 1.16 1.16 0.0 0 0 433.2843 75.5675
  L 430.5834 71.1943"
/>
<path stroke="#8be0f6" vector-effect="non-scaling-stroke" d="
  M 429.47 78.99
  L 428.50 77.53
  A 1.14 1.14 0.0 0 0 427.56 77.01
  L 427.03 77.00
  A 0.71 0.71 0.0 0 0 426.40 78.05
  L 429.53 83.82
  A 0.69 0.68 -26.9 0 0 430.44 84.11
  L 432.56 83.08
  A 1.69 1.69 0.0 0 0 433.38 80.90
  Q 432.53 78.90 430.49 79.39
  A 0.95 0.95 0.0 0 1 429.47 78.99"
/>
<path stroke="#8be0f6" vector-effect="non-scaling-stroke" d="
  M 418.44 85.09
  C 418.36 84.48 418.57 84.26 418.68 83.77
  Q 418.74 83.48 418.48 83.34
  L 416.05 82.09
  Q 415.88 82.00 415.88 82.20
  L 415.81 93.06
  Q 415.81 93.49 416.17 93.72
  L 418.43 95.14
  Q 418.56 95.22 418.58 95.06
  Q 419.09 90.06 418.44 85.09"
/>
<path stroke="#8be0f6" vector-effect="non-scaling-stroke" d="
  M 418.23 116.15
  A 0.34 0.34 0.0 0 0 418.76 115.87
  L 418.75 104.75
  A 0.34 0.34 0.0 0 0 418.57 104.44
  L 416.33 103.29
  A 0.34 0.34 0.0 0 0 415.84 103.59
  L 415.78 114.35
  A 0.34 0.34 0.0 0 0 415.93 114.63
  L 418.23 116.15"
/>
<path stroke="#8cc7fb" vector-effect="non-scaling-stroke" d="
  M 399.19 117.43
  A 0.33 0.33 0.0 0 0 398.73 117.73
  L 398.66 123.50
  A 0.33 0.33 0.0 0 0 398.91 123.83
  L 405.66 125.67
  A 0.33 0.33 0.0 0 0 406.07 125.36
  L 406.21 120.68
  A 0.33 0.33 0.0 0 0 406.01 120.37
  L 399.19 117.43"
/>
<path stroke="#8be0f6" vector-effect="non-scaling-stroke" d="
  M 418.58 126.26
  L 418.80 125.78
  Q 418.90 125.55 418.69 125.44
  L 415.93 123.95
  Q 415.84 123.90 415.84 124.01
  L 415.86 129.29
  A 0.61 0.61 0.0 0 0 416.42 129.90
  Q 417.56 129.99 418.14 130.85
  Q 418.59 131.52 418.70 130.73
  Q 418.97 128.88 418.50 127.18
  Q 418.38 126.71 418.58 126.26"
/>
<path stroke="#8be0f6" vector-effect="non-scaling-stroke" d="
  M 430.6015 134.9592
  A 0.69 0.69 0.0 0 0 429.8540 134.3320
  L 429.6946 134.3460
  A 0.69 0.69 0.0 0 0 429.0674 135.0935
  L 429.3585 138.4208
  A 0.69 0.69 0.0 0 0 430.1060 139.0480
  L 430.2654 139.0340
  A 0.69 0.69 0.0 0 0 430.8926 138.2865
  L 430.6015 134.9592"
/>
<path stroke="#81d8f4" vector-effect="non-scaling-stroke" d="
  M 417.8361 86.5718
  A 1.07 0.61 55.5 0 0 417.7327 85.3445
  A 1.07 0.61 55.5 0 0 416.6239 84.8082
  A 1.07 0.61 55.5 0 0 416.7273 86.0355
  A 1.07 0.61 55.5 0 0 417.8361 86.5718"
/>
<path stroke="#81d8f4" vector-effect="non-scaling-stroke" d="
  M 417.14 91.02
  A 0.65 0.64 -19.1 0 0 416.59 92.15
  L 417.40 92.81
  Q 417.91 93.22 418.04 92.58
  Q 418.30 91.28 417.14 91.02"
/>
<path stroke="#8cc7fb" vector-effect="non-scaling-stroke" d="
  M 545.0913 127.6384
  A 6.09 3.71 56.5 0 0 544.8237 120.5123
  A 6.09 3.71 56.5 0 0 538.3687 117.4816
  A 6.09 3.71 56.5 0 0 538.6363 124.6077
  A 6.09 3.71 56.5 0 0 545.0913 127.6384"
/>
<path stroke="#8be0f6" vector-effect="non-scaling-stroke" d="
  M 576.8839 135.1466
  A 0.84 0.84 0.0 0 0 576.5804 133.9980
  L 561.5248 125.2354
  A 0.84 0.84 0.0 0 0 560.3762 125.5389
  L 560.3561 125.5734
  A 0.84 0.84 0.0 0 0 560.6596 126.7220
  L 575.7152 135.4846
  A 0.84 0.84 0.0 0 0 576.8638 135.1811
  L 576.8839 135.1466"
/>
<path stroke="#8cc7fb" vector-effect="non-scaling-stroke" d="
  M 534.99 133.72
  L 548.25 141.20
  A 0.43 0.43 0.0 0 0 548.89 140.76
  Q 548.05 134.60 543.38 130.38
  C 539.96 127.28 534.21 126.91 534.59 133.08
  Q 534.62 133.51 534.99 133.72"
/>
<path stroke="#8be0f6" vector-effect="non-scaling-stroke" d="
  M 566.9860 138.5688
  A 0.59 0.59 0.0 0 0 566.7757 137.7613
  L 557.8918 132.5492
  A 0.59 0.59 0.0 0 0 557.0844 132.7595
  L 557.0540 132.8112
  A 0.59 0.59 0.0 0 0 557.2643 133.6187
  L 566.1482 138.8308
  A 0.59 0.59 0.0 0 0 566.9556 138.6205
  L 566.9860 138.5688"
/>
<path stroke="#8be0f6" vector-effect="non-scaling-stroke" d="
  M 560.9835 141.7440
  A 2.27 0.62 29.1 0 0 559.3015 140.0983
  A 2.27 0.62 29.1 0 0 557.0165 139.5360
  A 2.27 0.62 29.1 0 0 558.6985 141.1817
  A 2.27 0.62 29.1 0 0 560.9835 141.7440"
/>
<path stroke="#8be0f6" vector-effect="non-scaling-stroke" d="
  M 579.7317 145.3419
  A 0.55 0.55 0.0 0 0 579.5082 144.5969
  L 570.9323 139.9793
  A 0.55 0.55 0.0 0 0 570.1873 140.2028
  L 570.1683 140.2381
  A 0.55 0.55 0.0 0 0 570.3918 140.9831
  L 578.9677 145.6007
  A 0.55 0.55 0.0 0 0 579.7127 145.3772
  L 579.7317 145.3419"
/>
<path stroke="#8be0f6" vector-effect="non-scaling-stroke" d="
  M 572.2038 147.8691
  A 0.58 0.58 0.0 0 0 571.9998 147.0746
  L 565.1311 143.0125
  A 0.58 0.58 0.0 0 0 564.3366 143.2165
  L 564.3162 143.2509
  A 0.58 0.58 0.0 0 0 564.5202 144.0454
  L 571.3889 148.1075
  A 0.58 0.58 0.0 0 0 572.1834 147.9035
  L 572.2038 147.8691"
/>
<path stroke="#8be0f6" vector-effect="non-scaling-stroke" d="
  M 563.3607 149.5305
  A 0.56 0.56 0.0 0 0 563.1677 148.7624
  L 558.0880 145.7222
  A 0.56 0.56 0.0 0 0 557.3199 145.9152
  L 557.2993 145.9495
  A 0.56 0.56 0.0 0 0 557.4923 146.7176
  L 562.5720 149.7578
  A 0.56 0.56 0.0 0 0 563.3401 149.5648
  L 563.3607 149.5305"
/>
<path stroke="#8be0f6" vector-effect="non-scaling-stroke" d="
  M 579.8099 152.2999
  A 2.49 0.64 31.2 0 0 578.0115 150.4626
  A 2.49 0.64 31.2 0 0 575.5501 149.7201
  A 2.49 0.64 31.2 0 0 577.3485 151.5574
  A 2.49 0.64 31.2 0 0 579.8099 152.2999"
/>
<path stroke="#8be0f6" vector-effect="non-scaling-stroke" d="
  M 574.2738 155.8149
  A 0.56 0.56 0.0 0 0 574.0781 155.0475
  L 567.3541 151.0551
  A 0.56 0.56 0.0 0 0 566.5867 151.2507
  L 566.5662 151.2851
  A 0.56 0.56 0.0 0 0 566.7619 152.0525
  L 573.4859 156.0449
  A 0.56 0.56 0.0 0 0 574.2533 155.8493
  L 574.2738 155.8149"
/>
<path stroke="#8be0f6" vector-effect="non-scaling-stroke" d="
  M 568.6570 165.3341
  A 0.71 0.71 0.0 0 0 568.4023 164.3629
  L 548.4751 152.7184
  A 0.71 0.71 0.0 0 0 547.5039 152.9732
  L 547.4030 153.1459
  A 0.71 0.71 0.0 0 0 547.6577 154.1171
  L 567.5849 165.7616
  A 0.71 0.71 0.0 0 0 568.5561 165.5068
  L 568.6570 165.3341"
/>
<path stroke="#8be0f6" vector-effect="non-scaling-stroke" d="
  M 579.4866 159.0779
  A 1.11 0.61 40.3 0 0 579.0345 157.8948
  A 1.11 0.61 40.3 0 0 577.7934 157.6421
  A 1.11 0.61 40.3 0 0 578.2455 158.8252
  A 1.11 0.61 40.3 0 0 579.4866 159.0779"
/>
<path stroke="#8cc7fb" vector-effect="non-scaling-stroke" d="
  M 544.0176 163.9568
  A 0.27 0.27 0.0 0 0 543.9130 163.5895
  L 534.9831 158.6192
  A 0.27 0.27 0.0 0 0 534.6158 158.7238
  L 534.3824 159.1432
  A 0.27 0.27 0.0 0 0 534.4870 159.5105
  L 543.4169 164.4808
  A 0.27 0.27 0.0 0 0 543.7842 164.3762
  L 544.0176 163.9568"
/>
<path stroke="#8cc7fb" vector-effect="non-scaling-stroke" d="
  M 538.1829 167.4249
  A 2.31 0.59 33.2 0 0 536.5731 165.6663
  A 2.31 0.59 33.2 0 0 534.3171 164.8951
  A 2.31 0.59 33.2 0 0 535.9269 166.6537
  A 2.31 0.59 33.2 0 0 538.1829 167.4249"
/>
<path stroke="#8be0f6" vector-effect="non-scaling-stroke" d="
  M 554.7214 170.0404
  A 0.55 0.55 0.0 0 0 554.5227 169.2884
  L 548.2308 165.6264
  A 0.55 0.55 0.0 0 0 547.4787 165.8251
  L 547.4586 165.8596
  A 0.55 0.55 0.0 0 0 547.6573 166.6116
  L 553.9492 170.2736
  A 0.55 0.55 0.0 0 0 554.7013 170.0749
  L 554.7214 170.0404"
/>
<path stroke="#8cc7fb" vector-effect="non-scaling-stroke" d="
  M 549.4077 173.8082
  A 0.53 0.53 0.0 0 0 549.2213 173.0822
  L 542.4386 169.0710
  A 0.53 0.53 0.0 0 0 541.7127 169.2574
  L 541.6923 169.2918
  A 0.53 0.53 0.0 0 0 541.8787 170.0178
  L 548.6614 174.0290
  A 0.53 0.53 0.0 0 0 549.3873 173.8426
  L 549.4077 173.8082"
/>
<path stroke="#8be0f6" vector-effect="non-scaling-stroke" d="
  M 566.4783 176.9905
  A 0.41 0.41 0.0 0 0 566.3292 176.4302
  L 558.3525 171.8062
  A 0.41 0.41 0.0 0 0 557.7922 171.9553
  L 557.6217 172.2495
  A 0.41 0.41 0.0 0 0 557.7708 172.8098
  L 565.7475 177.4338
  A 0.41 0.41 0.0 0 0 566.3078 177.2847
  L 566.4783 176.9905"
/>
<path stroke="#8cc7fb" vector-effect="non-scaling-stroke" d="
  M 540.5784 175.4667
  A 0.50 0.50 0.0 0 0 540.4097 174.7800
  L 535.2091 171.6304
  A 0.50 0.50 0.0 0 0 534.5224 171.7991
  L 534.5016 171.8333
  A 0.50 0.50 0.0 0 0 534.6703 172.5200
  L 539.8709 175.6696
  A 0.50 0.50 0.0 0 0 540.5576 175.5009
  L 540.5784 175.4667"
/>
<path stroke="#8be0f6" vector-effect="non-scaling-stroke" d="
  M 559.0418 179.6602
  A 0.56 0.56 0.0 0 0 558.8812 178.8847
  L 553.6156 175.4258
  A 0.56 0.56 0.0 0 0 552.8401 175.5864
  L 552.8182 175.6198
  A 0.56 0.56 0.0 0 0 552.9788 176.3953
  L 558.2444 179.8542
  A 0.56 0.56 0.0 0 0 559.0199 179.6936
  L 559.0418 179.6602"
/>
<path stroke="#8cc7fb" vector-effect="non-scaling-stroke" d="
  M 551.6179 181.8613
  A 0.50 0.50 0.0 0 0 551.4468 181.1752
  L 544.8295 177.1991
  A 0.50 0.50 0.0 0 0 544.1434 177.3701
  L 544.1021 177.4387
  A 0.50 0.50 0.0 0 0 544.2732 178.1248
  L 550.8905 182.1009
  A 0.50 0.50 0.0 0 0 551.5766 181.9299
  L 551.6179 181.8613"
/>
<path stroke="#8be0f6" vector-effect="non-scaling-stroke" d="
  M 579.6578 184.7649
  A 0.59 0.59 0.0 0 0 579.4446 183.9582
  L 570.6290 178.8274
  A 0.59 0.59 0.0 0 0 569.8223 179.0405
  L 569.8022 179.0751
  A 0.59 0.59 0.0 0 0 570.0154 179.8818
  L 578.8310 185.0126
  A 0.59 0.59 0.0 0 0 579.6377 184.7995
  L 579.6578 184.7649"
/>
<path stroke="#8be0f6" vector-effect="non-scaling-stroke" d="
  M 571.7696 186.6581
  A 0.57 0.57 0.0 0 0 571.5340 185.8872
  L 563.0400 181.3709
  A 0.57 0.57 0.0 0 0 562.2691 181.6066
  L 562.2504 181.6419
  A 0.57 0.57 0.0 0 0 562.4860 182.4128
  L 570.9800 186.9291
  A 0.57 0.57 0.0 0 0 571.7509 186.6934
  L 571.7696 186.6581"
/>
<path stroke="#8be0f6" vector-effect="non-scaling-stroke" d="
  M 564.5517 188.7588
  A 0.32 0.32 0.0 0 0 564.4232 188.3249
  L 555.4417 183.4484
  A 0.32 0.32 0.0 0 0 555.0078 183.5769
  L 554.7883 183.9812
  A 0.32 0.32 0.0 0 0 554.9168 184.4151
  L 563.8983 189.2916
  A 0.32 0.32 0.0 0 0 564.3322 189.1631
  L 564.5517 188.7588"
/>
<path stroke="#8be0f6" vector-effect="non-scaling-stroke" d="
  M 579.6793 191.1314
  A 2.77 0.68 31.6 0 0 577.6763 189.1008
  A 2.77 0.68 31.6 0 0 574.9607 188.2286
  A 2.77 0.68 31.6 0 0 576.9637 190.2592
  A 2.77 0.68 31.6 0 0 579.6793 191.1314"
/>
<path stroke="#8be0f6" vector-effect="non-scaling-stroke" d="
  M 568.5943 203.5347
  A 0.80 0.80 0.0 0 0 568.3206 202.4369
  L 548.5543 190.5602
  A 0.80 0.80 0.0 0 0 547.4566 190.8339
  L 547.4257 190.8853
  A 0.80 0.80 0.0 0 0 547.6994 191.9831
  L 567.4657 203.8598
  A 0.80 0.80 0.0 0 0 568.5634 203.5861
  L 568.5943 203.5347"
/>
<path stroke="#8be0f6" vector-effect="non-scaling-stroke" d="
  M 573.5986 194.3121
  A 0.57 0.57 0.0 0 0 573.4050 193.5296
  L 568.6955 190.6886
  A 0.57 0.57 0.0 0 0 567.9130 190.8823
  L 567.8614 190.9679
  A 0.57 0.57 0.0 0 0 568.0550 191.7504
  L 572.7645 194.5914
  A 0.57 0.57 0.0 0 0 573.5470 194.3977
  L 573.5986 194.3121"
/>
<path stroke="#8cc7fb" vector-effect="non-scaling-stroke" d="
  M 536.9690 198.7742
  A 2.04 1.05 61.0 0 0 536.8984 196.4809
  A 2.04 1.05 61.0 0 0 534.9910 195.2058
  A 2.04 1.05 61.0 0 0 535.0616 197.4991
  A 2.04 1.05 61.0 0 0 536.9690 198.7742"
/>
<path stroke="#8be0f6" vector-effect="non-scaling-stroke" d="
  M 579.4396 197.7609
  A 1.41 0.62 31.7 0 0 578.5658 196.4925
  A 1.41 0.62 31.7 0 0 577.0404 196.2791
  A 1.41 0.62 31.7 0 0 577.9142 197.5475
  A 1.41 0.62 31.7 0 0 579.4396 197.7609"
/>
<path stroke="#8be0f6" vector-effect="non-scaling-stroke" d="
  M 579.6209 221.8903
  A 0.53 0.53 0.0 0 0 579.4244 221.1670
  L 542.4923 200.0158
  A 0.53 0.53 0.0 0 0 541.7690 200.2123
  L 541.7591 200.2297
  A 0.53 0.53 0.0 0 0 541.9556 200.9530
  L 578.8877 222.1042
  A 0.53 0.53 0.0 0 0 579.6110 221.9077
  L 579.6209 221.8903"
/>
<path stroke="#8cc7fb" vector-effect="non-scaling-stroke" d="
  M 536.9777 205.7386
  A 2.02 1.01 61.7 0 0 536.9093 203.4812
  A 2.02 1.01 61.7 0 0 535.0623 202.1814
  A 2.02 1.01 61.7 0 0 535.1307 204.4388
  A 2.02 1.01 61.7 0 0 536.9777 205.7386"
/>
<path stroke="#8be0f6" vector-effect="non-scaling-stroke" d="
  M 579.2992 228.8568
  A 0.53 0.53 0.0 0 0 579.1115 228.1311
  L 542.5268 206.5811
  A 0.53 0.53 0.0 0 0 541.8011 206.7687
  L 541.7808 206.8032
  A 0.53 0.53 0.0 0 0 541.9685 207.5289
  L 578.5532 229.0789
  A 0.53 0.53 0.0 0 0 579.2789 228.8913
  L 579.2992 228.8568"
/>
<path stroke="#8cc7fb" vector-effect="non-scaling-stroke" d="
  M 536.9940 212.2082
  A 1.98 0.99 60.2 0 0 536.8691 209.9980
  A 1.98 0.99 60.2 0 0 535.0260 208.7718
  A 1.98 0.99 60.2 0 0 535.1509 210.9820
  A 1.98 0.99 60.2 0 0 536.9940 212.2082"
/>
<path stroke="#8be0f6" vector-effect="non-scaling-stroke" d="
  M 579.6746 235.3022
  A 0.29 0.29 0.0 0 0 579.5663 234.9066
  L 542.0588 213.5127
  A 0.29 0.29 0.0 0 0 541.6633 213.6209
  L 541.4254 214.0378
  A 0.29 0.29 0.0 0 0 541.5337 214.4334
  L 579.0412 235.8273
  A 0.29 0.29 0.0 0 0 579.4367 235.7191
  L 579.6746 235.3022"
/>
<path stroke="#81d8f4" vector-effect="non-scaling-stroke" d="
  M 417.7721 107.2402
  A 1.00 0.54 55.1 0 0 417.6429 106.1110
  A 1.00 0.54 55.1 0 0 416.6279 105.5998
  A 1.00 0.54 55.1 0 0 416.7571 106.7290
  A 1.00 0.54 55.1 0 0 417.7721 107.2402"
/>
<path stroke="#81d8f4" vector-effect="non-scaling-stroke" d="
  M 417.5635 110.5042
  A 0.78 0.62 66.3 0 0 417.8177 109.5408
  A 0.78 0.62 66.3 0 0 416.9365 109.0758
  A 0.78 0.62 66.3 0 0 416.6823 110.0392
  A 0.78 0.62 66.3 0 0 417.5635 110.5042"
/>
<path stroke="#81d8f4" vector-effect="non-scaling-stroke" d="
  M 417.7582 113.8940
  A 1.12 0.68 56.5 0 0 417.7070 112.5847
  A 1.12 0.68 56.5 0 0 416.5218 112.0260
  A 1.12 0.68 56.5 0 0 416.5730 113.3353
  A 1.12 0.68 56.5 0 0 417.7582 113.8940"
/>
<path stroke="#81d8f4" vector-effect="non-scaling-stroke" d="
  M 393.75 120.43
  Q 393.73 120.00 393.35 120.19
  L 390.30 121.73
  A 0.48 0.47 -57.7 0 0 390.50 122.63
  L 393.15 122.69
  Q 393.86 122.71 393.83 121.99
  L 393.75 120.43"
/>
<path stroke="#82bff9" vector-effect="non-scaling-stroke" d="
  M 494.34 236.14
  Q 495.10 235.95 496.08 235.77
  Q 496.41 235.71 496.23 235.42
  L 495.95 234.97
  Q 495.84 234.79 495.64 234.86
  C 493.56 235.67 488.37 237.70 488.93 240.48
  Q 489.04 241.01 489.23 240.51
  Q 490.55 237.11 494.34 236.14"
/>
<path stroke="#81d8f4" vector-effect="non-scaling-stroke" d="
  M 416.38 127.03
  L 416.97 128.01
  A 0.52 0.52 0.0 0 0 417.87 127.49
  Q 417.52 126.85 416.79 126.55
  Q 415.89 126.19 416.38 127.03"
/>
<path stroke="#8cc7fb" vector-effect="non-scaling-stroke" d="
  M 367.08 145.41
  A 0.34 0.34 0.0 0 0 366.73 145.88
  L 370.13 154.31
  A 0.34 0.34 0.0 0 0 370.42 154.52
  L 385.19 155.51
  A 0.34 0.34 0.0 0 0 385.55 155.10
  L 383.81 146.93
  A 0.34 0.34 0.0 0 0 383.51 146.66
  L 367.08 145.41"
/>
<path stroke="#8cc7fb" vector-effect="non-scaling-stroke" d="
  M 363.20 156.25
  A 0.34 0.34 0.0 0 0 363.31 155.81
  L 359.08 147.40
  A 0.34 0.34 0.0 0 0 358.58 147.28
  L 346.65 155.94
  A 0.34 0.34 0.0 0 0 346.57 156.42
  L 351.78 163.47
  A 0.34 0.34 0.0 0 0 352.24 163.55
  L 363.20 156.25"
/>
<path stroke="#8cc7fb" vector-effect="non-scaling-stroke" d="
  M 393.51 150.13
  A 0.35 0.35 0.0 0 0 392.98 150.46
  L 393.82 158.58
  A 0.35 0.35 0.0 0 0 394.00 158.86
  L 410.27 167.50
  A 0.35 0.35 0.0 0 0 410.78 167.24
  L 411.61 161.20
  A 0.35 0.35 0.0 0 0 411.44 160.85
  L 393.51 150.13"
/>
<path stroke="#8be0f6" vector-effect="non-scaling-stroke" d="
  M 342.41 183.82
  L 342.77 180.63"
/>
<path stroke="#8cc7fb" vector-effect="non-scaling-stroke" d="
  M 342.77 180.63
  L 348.01 169.73
  Q 348.16 169.43 347.92 169.18
  L 342.30 163.40
  Q 342.12 163.22 341.98 163.44
  Q 338.70 168.56 338.53 170.39
  Q 338.16 174.43 336.73 178.48
  A 1.19 1.17 40.6 0 0 336.81 179.43
  Q 338.48 182.50 342.41 183.82"
/>
<path stroke="#21aff3" vector-effect="non-scaling-stroke" d="
  M 342.77 180.63
  Q 345.11 173.60 344.08 165.96
  A 1.26 1.26 0.0 0 0 341.61 165.84
  Q 340.35 171.17 340.66 176.46
  A 0.86 0.85 -22.2 0 1 340.36 177.17
  Q 339.84 177.61 339.24 177.34
  A 1.49 1.37 -5.5 0 0 337.37 179.41
  Q 338.23 180.43 339.57 180.70
  Q 340.02 180.79 340.31 181.15
  L 342.41 183.82"
/>
<path stroke="#8be0f6" vector-effect="non-scaling-stroke" d="
  M 421.59 168.98
  A 0.76 0.76 0.0 0 0 420.29 169.31
  L 418.90 174.94
  A 0.76 0.76 0.0 0 0 419.10 175.65
  L 433.79 190.65
  A 0.76 0.76 0.0 0 0 434.95 190.56
  L 437.39 187.21
  A 0.76 0.76 0.0 0 0 437.34 186.25
  L 421.59 168.98"
/>
<path stroke="#8be0f6" vector-effect="non-scaling-stroke" d="
  M 451.94 220.73
  A 1.46 1.46 0.0 0 0 453.47 221.45
  L 456.41 220.93
  A 1.46 1.46 0.0 0 0 457.43 218.77
  L 445.96 198.59
  A 1.46 1.46 0.0 0 0 443.67 198.27
  L 441.69 200.22
  A 1.46 1.46 0.0 0 0 441.44 201.97
  L 451.94 220.73"
/>
<path stroke="#8cc7fb" vector-effect="non-scaling-stroke" d="
  M 410.55 222.58
  L 443.81 211.70
  A 0.42 0.42 0.0 0 0 444.10 211.29
  L 444.10 210.96
  Q 444.10 210.54 443.68 210.60
  L 407.78 215.65
  A 1.75 1.75 0.0 0 1 406.12 214.95
  C 404.38 212.59 400.73 209.54 397.64 210.53
  C 389.95 213.01 397.42 232.70 407.36 230.35
  C 410.49 229.61 410.37 225.82 410.18 223.14
  Q 410.14 222.71 410.55 222.58"
/>
<path stroke="#8be0f6" vector-effect="non-scaling-stroke" d="
  M 462.12 253.11
  A 0.71 0.71 0.0 0 0 462.54 253.59
  L 467.26 255.54
  A 0.71 0.71 0.0 0 0 468.22 254.73
  L 463.30 232.66
  A 0.71 0.71 0.0 0 0 462.63 232.10
  L 457.57 231.97
  A 0.71 0.71 0.0 0 0 456.87 232.85
  L 462.12 253.11"
/>
</g>
<g fill="#f6f8fe">
<path d="
  M 338.71 60.93
  Q 336.64 60.51 335.38 61.98
  Q 335.05 62.37 335.04 62.88
  Q 334.66 88.05 334.18 113.22
  C 334.14 115.25 334.88 117.18 335.11 119.24
  Q 332.04 120.13 330.05 118.92
  Q 322.54 114.35 314.72 110.66
  L 309.80 107.37
  Q 300.93 101.66 291.34 96.87
  C 287.73 95.07 288.20 86.07 288.23 82.62
  Q 288.45 60.94 288.53 39.25
  C 288.55 33.15 293.55 31.89 298.25 34.30
  C 303.52 37.00 309.09 40.83 313.04 43.08
  Q 323.93 49.27 334.86 55.38
  Q 338.21 57.26 338.71 60.93
  Z
  M 295.99 52.15
  L 301.80 58.55
  A 0.72 0.72 0.0 0 0 302.40 58.79
  L 306.79 58.50
  A 0.66 0.66 0.0 0 0 307.05 57.26
  L 296.47 51.68
  A 1.28 1.28 0.0 0 0 294.59 52.80
  L 294.50 59.00
  A 3.05 3.03 15.7 0 0 296.02 61.68
  L 307.71 68.49
  Q 308.22 68.78 308.23 68.19
  L 308.27 59.81
  A 0.74 0.74 0.0 0 0 307.19 59.15
  Q 304.69 60.46 301.88 59.87
  A 0.91 0.87 74.3 0 1 301.39 59.58
  L 295.48 52.65
  Q 295.35 52.50 295.49 52.36
  L 295.69 52.14
  Q 295.84 51.98 295.99 52.15
  Z
  M 326.4061 63.8241
  A 0.50 0.50 0.0 0 0 326.2351 63.1380
  L 318.4006 58.4305
  A 0.50 0.50 0.0 0 0 317.7145 58.6016
  L 317.6939 58.6359
  A 0.50 0.50 0.0 0 0 317.8649 59.3220
  L 325.6994 64.0295
  A 0.50 0.50 0.0 0 0 326.3855 63.8584
  L 326.4061 63.8241
  Z
  M 319.2794 66.1366
  A 0.42 0.42 0.0 0 0 319.1316 65.5613
  L 313.4163 62.1813
  A 0.42 0.42 0.0 0 0 312.8410 62.3290
  L 312.8206 62.3634
  A 0.42 0.42 0.0 0 0 312.9684 62.9387
  L 318.6837 66.3187
  A 0.42 0.42 0.0 0 0 319.2590 66.1710
  L 319.2794 66.1366
  Z
  M 315.2104 68.7206
  A 1.59 0.52 34.5 0 0 314.1945 67.3915
  A 1.59 0.52 34.5 0 0 312.5896 66.9194
  A 1.59 0.52 34.5 0 0 313.6055 68.2485
  A 1.59 0.52 34.5 0 0 315.2104 68.7206
  Z
  M 328.7285 71.5670
  A 3.97 0.48 29.7 0 0 325.5178 69.1831
  A 3.97 0.48 29.7 0 0 321.8315 67.6330
  A 3.97 0.48 29.7 0 0 325.0422 70.0169
  A 3.97 0.48 29.7 0 0 328.7285 71.5670
  Z
  M 323.3490 73.1038
  A 0.26 0.26 0.0 0 0 323.2594 72.7472
  L 318.4028 69.8405
  A 0.26 0.26 0.0 0 0 318.0462 69.9301
  L 317.8510 70.2562
  A 0.26 0.26 0.0 0 0 317.9406 70.6128
  L 322.7972 73.5195
  A 0.26 0.26 0.0 0 0 323.1538 73.4299
  L 323.3490 73.1038
  Z
  M 317.0617 74.5271
  A 2.72 0.49 31.4 0 0 314.9953 72.6918
  A 2.72 0.49 31.4 0 0 312.4183 71.6929
  A 2.72 0.49 31.4 0 0 314.4847 73.5282
  A 2.72 0.49 31.4 0 0 317.0617 74.5271
  Z
  M 328.4588 76.2361
  A 1.60 0.56 33.2 0 0 327.4266 74.8914
  A 1.60 0.56 33.2 0 0 325.7812 74.4839
  A 1.60 0.56 33.2 0 0 326.8134 75.8286
  A 1.60 0.56 33.2 0 0 328.4588 76.2361
  Z
  M 324.64 78.58
  L 324.91 78.02
  A 0.17 0.17 0.0 0 0 324.83 77.79
  L 324.70 77.73
  A 5.77 0.30 25.5 0 0 319.36 75.52
  L 319.21 75.84
  A 5.77 0.30 25.5 0 0 324.29 78.60
  L 324.41 78.66
  A 0.17 0.17 0.0 0 0 324.64 78.58
  Z
  M 318.7421 85.3859
  A 0.40 0.40 0.0 0 0 318.6033 84.8375
  L 305.1692 76.8292
  A 0.40 0.40 0.0 0 0 304.6208 76.9679
  L 304.4979 77.1741
  A 0.40 0.40 0.0 0 0 304.6367 77.7225
  L 318.0708 85.7308
  A 0.40 0.40 0.0 0 0 318.6192 85.5921
  L 318.7421 85.3859
  Z
  M 328.6544 80.5483
  A 0.84 0.47 24.5 0 0 328.0849 79.7723
  A 0.84 0.47 24.5 0 0 327.1256 79.8517
  A 0.84 0.47 24.5 0 0 327.6951 80.6277
  A 0.84 0.47 24.5 0 0 328.6544 80.5483
  Z
  M 302.3655 83.9499
  A 0.39 0.39 0.0 0 0 302.2265 83.4162
  L 296.5684 80.0966
  A 0.39 0.39 0.0 0 0 296.0347 80.2356
  L 296.0145 80.2701
  A 0.39 0.39 0.0 0 0 296.1535 80.8038
  L 301.8116 84.1234
  A 0.39 0.39 0.0 0 0 302.3453 83.9844
  L 302.3655 83.9499
  Z
  M 298.1275 85.9192
  A 1.12 0.55 25.9 0 0 297.3602 84.9352
  A 1.12 0.55 25.9 0 0 296.1125 84.9408
  A 1.12 0.55 25.9 0 0 296.8798 85.9248
  A 1.12 0.55 25.9 0 0 298.1275 85.9192
  Z
  M 308.9731 88.2184
  A 2.63 0.41 35.8 0 0 307.0798 86.3475
  A 2.63 0.41 35.8 0 0 304.7069 85.1416
  A 2.63 0.41 35.8 0 0 306.6002 87.0125
  A 2.63 0.41 35.8 0 0 308.9731 88.2184
  Z
  M 305.9058 90.5318
  A 3.11 0.43 31.0 0 0 303.4615 88.5614
  A 3.11 0.43 31.0 0 0 300.5742 87.3282
  A 3.11 0.43 31.0 0 0 303.0185 89.2986
  A 3.11 0.43 31.0 0 0 305.9058 90.5318
  Z
  M 299.9601 91.7705
  A 2.38 0.47 33.7 0 0 298.2408 90.0590
  A 2.38 0.47 33.7 0 0 295.9999 89.1295
  A 2.38 0.47 33.7 0 0 297.7192 90.8410
  A 2.38 0.47 33.7 0 0 299.9601 91.7705
  Z
  M 317.1888 92.7852
  A 3.42 0.43 30.1 0 0 314.4456 90.6980
  A 3.42 0.43 30.1 0 0 311.2712 89.3548
  A 3.42 0.43 30.1 0 0 314.0144 91.4420
  A 3.42 0.43 30.1 0 0 317.1888 92.7852
  Z
  M 312.0620 94.3523
  A 2.56 0.47 31.1 0 0 310.1128 92.6276
  A 2.56 0.47 31.1 0 0 307.6780 91.7077
  A 2.56 0.47 31.1 0 0 309.6272 93.4324
  A 2.56 0.47 31.1 0 0 312.0620 94.3523
  Z
  M 306.8763 95.7271
  A 2.85 0.45 32.4 0 0 304.7111 93.8201
  A 2.85 0.45 32.4 0 0 302.0637 92.6729
  A 2.85 0.45 32.4 0 0 304.2289 94.5799
  A 2.85 0.45 32.4 0 0 306.8763 95.7271
  Z
  M 325.7869 97.6816
  A 3.62 0.41 29.3 0 0 322.8306 95.5525
  A 3.62 0.41 29.3 0 0 319.4731 94.1384
  A 3.62 0.41 29.3 0 0 322.4294 96.2675
  A 3.62 0.41 29.3 0 0 325.7869 97.6816
  Z
  M 320.6293 98.7326
  A 3.45 0.41 24.9 0 0 317.6726 96.9081
  A 3.45 0.41 24.9 0 0 314.3707 95.8274
  A 3.45 0.41 24.9 0 0 317.3274 97.6519
  A 3.45 0.41 24.9 0 0 320.6293 98.7326
  Z
  M 316.0422 100.6018
  A 3.86 0.41 28.5 0 0 312.8456 98.3997
  A 3.86 0.41 28.5 0 0 309.2578 96.9182
  A 3.86 0.41 28.5 0 0 312.4544 99.1203
  A 3.86 0.41 28.5 0 0 316.0422 100.6018
  Z
  M 325.8556 101.9012
  A 1.57 0.53 32.4 0 0 324.8140 100.6125
  A 1.57 0.53 32.4 0 0 323.2044 100.2188
  A 1.57 0.53 32.4 0 0 324.2460 101.5075
  A 1.57 0.53 32.4 0 0 325.8556 101.9012
  Z
  M 321.8888 104.0677
  A 2.14 0.42 31.8 0 0 320.2913 102.5830
  A 2.14 0.42 31.8 0 0 318.2512 101.8123
  A 2.14 0.42 31.8 0 0 319.8487 103.2970
  A 2.14 0.42 31.8 0 0 321.8888 104.0677
  Z
  M 325.36 106.63
  A 0.26 0.26 0.0 0 0 325.79 106.50
  Q 326.02 105.41 324.95 105.26
  A 0.39 0.39 0.0 0 0 324.62 105.92
  L 325.36 106.63
  Z"
/>
<path d="
  M 394.93 41.87
  Q 404.06 47.80 413.58 53.04
  Q 419.69 56.40 424.39 59.18
  Q 430.67 62.89 435.25 65.29
  Q 438.76 67.13 438.71 71.00
  Q 438.23 107.86 438.69 144.72
  Q 438.70 145.75 439.57 145.21
  L 442.52 143.37
  A 0.53 0.53 0.0 0 0 442.53 142.47
  L 440.43 141.14
  Q 439.91 140.81 439.91 140.19
  L 440.03 127.56
  Q 445.71 130.51 455.51 138.00
  Q 467.98 147.53 475.67 159.13
  Q 477.14 161.35 478.90 162.20
  Q 479.39 162.43 479.81 162.10
  Q 485.77 157.43 492.35 153.65
  C 497.20 150.86 500.94 147.50 506.49 150.96
  Q 511.87 154.31 517.33 157.53
  C 518.81 158.40 519.76 159.67 520.94 160.87
  Q 521.32 161.25 520.90 161.58
  Q 512.44 168.29 504.31 172.87
  C 500.92 174.78 499.11 173.24 496.19 171.78
  Q 489.84 168.61 484.29 164.19
  Q 482.43 162.71 480.09 162.46
  Q 479.37 162.39 479.74 163.00
  L 487.17 175.23
  Q 486.75 175.42 487.22 176.01
  Q 487.41 176.25 487.16 176.43
  Q 486.57 176.85 486.16 177.50
  Q 485.90 177.92 485.47 178.17
  Q 481.03 180.65 476.72 183.35
  Q 475.89 183.87 473.46 184.60
  Q 471.46 185.19 470.26 187.00
  Q 470.00 187.39 469.59 187.63
  Q 467.55 188.80 465.53 189.86
  Q 465.21 190.02 464.96 189.77
  Q 464.18 188.98 462.74 189.75
  Q 459.65 191.41 451.02 192.60
  Q 450.57 192.66 450.19 192.40
  Q 448.68 191.35 447.82 189.78
  C 445.90 186.29 443.59 183.47 441.43 180.20
  Q 438.86 176.32 436.91 174.07
  C 429.44 165.43 420.39 156.85 411.82 150.32
  C 402.82 143.46 392.24 139.31 382.10 135.52
  A 1.46 1.46 0.0 0 1 381.94 132.86
  Q 388.68 129.33 394.52 124.45
  Q 394.88 124.15 394.72 123.70
  Q 393.09 119.17 394.15 114.38
  Q 394.21 114.09 394.47 113.97
  Q 394.79 113.80 394.82 113.44
  Q 395.00 111.02 394.02 108.68
  Q 393.42 84.56 393.99 60.25
  Q 394.07 56.63 393.57 46.63
  Q 393.49 44.85 394.93 41.87
  Z
  M 402.10 69.48
  Q 400.15 68.58 400.94 66.50
  A 0.49 0.48 70.7 0 0 400.07 66.08
  C 398.91 68.02 400.76 71.07 403.13 70.33
  Q 403.65 70.16 403.60 69.62
  Q 403.26 65.87 403.22 62.13
  Q 403.22 61.67 403.68 58.46
  C 403.98 56.38 403.07 53.36 400.44 53.73
  A 0.52 0.51 86.2 0 0 400.00 54.24
  L 400.03 60.40
  A 0.45 0.45 0.0 0 0 400.10 60.64
  Q 400.25 60.92 400.60 61.05
  A 0.51 0.51 0.0 0 1 400.81 61.88
  L 400.11 62.62
  Q 399.73 63.02 399.86 63.55
  Q 400.08 64.47 401.15 64.67
  A 1.06 1.05 86.3 0 1 401.98 65.41
  L 402.98 68.72
  A 0.64 0.64 0.0 0 1 402.10 69.48
  Z
  M 415.87 72.58
  A 0.31 0.31 0.0 0 0 416.02 72.84
  L 418.41 74.33
  A 0.31 0.31 0.0 0 0 418.89 74.06
  L 418.84 62.73
  A 0.31 0.31 0.0 0 0 418.66 62.45
  L 416.32 61.40
  A 0.31 0.31 0.0 0 0 415.88 61.69
  L 415.87 72.58
  Z
  M 430.5834 71.1943
  A 1.16 1.16 0.0 0 0 428.9869 70.8169
  L 427.0130 72.0360
  A 1.16 1.16 0.0 0 0 426.6357 73.6325
  L 429.3366 78.0057
  A 1.16 1.16 0.0 0 0 430.9331 78.3831
  L 432.9070 77.1640
  A 1.16 1.16 0.0 0 0 433.2843 75.5675
  L 430.5834 71.1943
  Z
  M 429.47 78.99
  L 428.50 77.53
  A 1.14 1.14 0.0 0 0 427.56 77.01
  L 427.03 77.00
  A 0.71 0.71 0.0 0 0 426.40 78.05
  L 429.53 83.82
  A 0.69 0.68 -26.9 0 0 430.44 84.11
  L 432.56 83.08
  A 1.69 1.69 0.0 0 0 433.38 80.90
  Q 432.53 78.90 430.49 79.39
  A 0.95 0.95 0.0 0 1 429.47 78.99
  Z
  M 418.44 85.09
  C 418.36 84.48 418.57 84.26 418.68 83.77
  Q 418.74 83.48 418.48 83.34
  L 416.05 82.09
  Q 415.88 82.00 415.88 82.20
  L 415.81 93.06
  Q 415.81 93.49 416.17 93.72
  L 418.43 95.14
  Q 418.56 95.22 418.58 95.06
  Q 419.09 90.06 418.44 85.09
  Z
  M 418.23 116.15
  A 0.34 0.34 0.0 0 0 418.76 115.87
  L 418.75 104.75
  A 0.34 0.34 0.0 0 0 418.57 104.44
  L 416.33 103.29
  A 0.34 0.34 0.0 0 0 415.84 103.59
  L 415.78 114.35
  A 0.34 0.34 0.0 0 0 415.93 114.63
  L 418.23 116.15
  Z
  M 399.19 117.43
  A 0.33 0.33 0.0 0 0 398.73 117.73
  L 398.66 123.50
  A 0.33 0.33 0.0 0 0 398.91 123.83
  L 405.66 125.67
  A 0.33 0.33 0.0 0 0 406.07 125.36
  L 406.21 120.68
  A 0.33 0.33 0.0 0 0 406.01 120.37
  L 399.19 117.43
  Z
  M 418.58 126.26
  L 418.80 125.78
  Q 418.90 125.55 418.69 125.44
  L 415.93 123.95
  Q 415.84 123.90 415.84 124.01
  L 415.86 129.29
  A 0.61 0.61 0.0 0 0 416.42 129.90
  Q 417.56 129.99 418.14 130.85
  Q 418.59 131.52 418.70 130.73
  Q 418.97 128.88 418.50 127.18
  Q 418.38 126.71 418.58 126.26
  Z
  M 430.6015 134.9592
  A 0.69 0.69 0.0 0 0 429.8540 134.3320
  L 429.6946 134.3460
  A 0.69 0.69 0.0 0 0 429.0674 135.0935
  L 429.3585 138.4208
  A 0.69 0.69 0.0 0 0 430.1060 139.0480
  L 430.2654 139.0340
  A 0.69 0.69 0.0 0 0 430.8926 138.2865
  L 430.6015 134.9592
  Z"
/>
<path d="
  M 595.50 130.09
  Q 589.93 129.41 589.85 133.74
  Q 589.00 178.64 588.94 261.09
  Q 587.14 262.00 584.84 260.65
  Q 574.74 254.74 564.92 249.47
  Q 559.44 244.81 552.94 242.48
  Q 540.43 235.24 527.67 227.94
  C 523.86 225.75 523.51 222.84 523.51 218.75
  Q 523.53 191.33 523.43 163.91
  Q 523.42 163.40 523.17 162.97
  C 522.10 161.13 523.22 159.89 523.26 158.32
  Q 524.04 127.46 523.47 102.50
  C 523.40 98.99 522.99 94.83 525.92 92.48
  C 529.99 89.22 533.48 90.25 537.92 92.78
  Q 558.94 104.77 579.78 117.00
  C 582.90 118.83 589.14 121.41 592.26 124.47
  Q 593.37 125.55 595.50 130.09
  Z
  M 545.0913 127.6384
  A 6.09 3.71 56.5 0 0 544.8237 120.5123
  A 6.09 3.71 56.5 0 0 538.3687 117.4816
  A 6.09 3.71 56.5 0 0 538.6363 124.6077
  A 6.09 3.71 56.5 0 0 545.0913 127.6384
  Z
  M 576.8839 135.1466
  A 0.84 0.84 0.0 0 0 576.5804 133.9980
  L 561.5248 125.2354
  A 0.84 0.84 0.0 0 0 560.3762 125.5389
  L 560.3561 125.5734
  A 0.84 0.84 0.0 0 0 560.6596 126.7220
  L 575.7152 135.4846
  A 0.84 0.84 0.0 0 0 576.8638 135.1811
  L 576.8839 135.1466
  Z
  M 534.99 133.72
  L 548.25 141.20
  A 0.43 0.43 0.0 0 0 548.89 140.76
  Q 548.05 134.60 543.38 130.38
  C 539.96 127.28 534.21 126.91 534.59 133.08
  Q 534.62 133.51 534.99 133.72
  Z
  M 566.9860 138.5688
  A 0.59 0.59 0.0 0 0 566.7757 137.7613
  L 557.8918 132.5492
  A 0.59 0.59 0.0 0 0 557.0844 132.7595
  L 557.0540 132.8112
  A 0.59 0.59 0.0 0 0 557.2643 133.6187
  L 566.1482 138.8308
  A 0.59 0.59 0.0 0 0 566.9556 138.6205
  L 566.9860 138.5688
  Z
  M 560.9835 141.7440
  A 2.27 0.62 29.1 0 0 559.3015 140.0983
  A 2.27 0.62 29.1 0 0 557.0165 139.5360
  A 2.27 0.62 29.1 0 0 558.6985 141.1817
  A 2.27 0.62 29.1 0 0 560.9835 141.7440
  Z
  M 579.7317 145.3419
  A 0.55 0.55 0.0 0 0 579.5082 144.5969
  L 570.9323 139.9793
  A 0.55 0.55 0.0 0 0 570.1873 140.2028
  L 570.1683 140.2381
  A 0.55 0.55 0.0 0 0 570.3918 140.9831
  L 578.9677 145.6007
  A 0.55 0.55 0.0 0 0 579.7127 145.3772
  L 579.7317 145.3419
  Z
  M 572.2038 147.8691
  A 0.58 0.58 0.0 0 0 571.9998 147.0746
  L 565.1311 143.0125
  A 0.58 0.58 0.0 0 0 564.3366 143.2165
  L 564.3162 143.2509
  A 0.58 0.58 0.0 0 0 564.5202 144.0454
  L 571.3889 148.1075
  A 0.58 0.58 0.0 0 0 572.1834 147.9035
  L 572.2038 147.8691
  Z
  M 563.3607 149.5305
  A 0.56 0.56 0.0 0 0 563.1677 148.7624
  L 558.0880 145.7222
  A 0.56 0.56 0.0 0 0 557.3199 145.9152
  L 557.2993 145.9495
  A 0.56 0.56 0.0 0 0 557.4923 146.7176
  L 562.5720 149.7578
  A 0.56 0.56 0.0 0 0 563.3401 149.5648
  L 563.3607 149.5305
  Z
  M 579.8099 152.2999
  A 2.49 0.64 31.2 0 0 578.0115 150.4626
  A 2.49 0.64 31.2 0 0 575.5501 149.7201
  A 2.49 0.64 31.2 0 0 577.3485 151.5574
  A 2.49 0.64 31.2 0 0 579.8099 152.2999
  Z
  M 574.2738 155.8149
  A 0.56 0.56 0.0 0 0 574.0781 155.0475
  L 567.3541 151.0551
  A 0.56 0.56 0.0 0 0 566.5867 151.2507
  L 566.5662 151.2851
  A 0.56 0.56 0.0 0 0 566.7619 152.0525
  L 573.4859 156.0449
  A 0.56 0.56 0.0 0 0 574.2533 155.8493
  L 574.2738 155.8149
  Z
  M 568.6570 165.3341
  A 0.71 0.71 0.0 0 0 568.4023 164.3629
  L 548.4751 152.7184
  A 0.71 0.71 0.0 0 0 547.5039 152.9732
  L 547.4030 153.1459
  A 0.71 0.71 0.0 0 0 547.6577 154.1171
  L 567.5849 165.7616
  A 0.71 0.71 0.0 0 0 568.5561 165.5068
  L 568.6570 165.3341
  Z
  M 579.4866 159.0779
  A 1.11 0.61 40.3 0 0 579.0345 157.8948
  A 1.11 0.61 40.3 0 0 577.7934 157.6421
  A 1.11 0.61 40.3 0 0 578.2455 158.8252
  A 1.11 0.61 40.3 0 0 579.4866 159.0779
  Z
  M 544.0176 163.9568
  A 0.27 0.27 0.0 0 0 543.9130 163.5895
  L 534.9831 158.6192
  A 0.27 0.27 0.0 0 0 534.6158 158.7238
  L 534.3824 159.1432
  A 0.27 0.27 0.0 0 0 534.4870 159.5105
  L 543.4169 164.4808
  A 0.27 0.27 0.0 0 0 543.7842 164.3762
  L 544.0176 163.9568
  Z
  M 538.1829 167.4249
  A 2.31 0.59 33.2 0 0 536.5731 165.6663
  A 2.31 0.59 33.2 0 0 534.3171 164.8951
  A 2.31 0.59 33.2 0 0 535.9269 166.6537
  A 2.31 0.59 33.2 0 0 538.1829 167.4249
  Z
  M 554.7214 170.0404
  A 0.55 0.55 0.0 0 0 554.5227 169.2884
  L 548.2308 165.6264
  A 0.55 0.55 0.0 0 0 547.4787 165.8251
  L 547.4586 165.8596
  A 0.55 0.55 0.0 0 0 547.6573 166.6116
  L 553.9492 170.2736
  A 0.55 0.55 0.0 0 0 554.7013 170.0749
  L 554.7214 170.0404
  Z
  M 549.4077 173.8082
  A 0.53 0.53 0.0 0 0 549.2213 173.0822
  L 542.4386 169.0710
  A 0.53 0.53 0.0 0 0 541.7127 169.2574
  L 541.6923 169.2918
  A 0.53 0.53 0.0 0 0 541.8787 170.0178
  L 548.6614 174.0290
  A 0.53 0.53 0.0 0 0 549.3873 173.8426
  L 549.4077 173.8082
  Z
  M 566.4783 176.9905
  A 0.41 0.41 0.0 0 0 566.3292 176.4302
  L 558.3525 171.8062
  A 0.41 0.41 0.0 0 0 557.7922 171.9553
  L 557.6217 172.2495
  A 0.41 0.41 0.0 0 0 557.7708 172.8098
  L 565.7475 177.4338
  A 0.41 0.41 0.0 0 0 566.3078 177.2847
  L 566.4783 176.9905
  Z
  M 540.5784 175.4667
  A 0.50 0.50 0.0 0 0 540.4097 174.7800
  L 535.2091 171.6304
  A 0.50 0.50 0.0 0 0 534.5224 171.7991
  L 534.5016 171.8333
  A 0.50 0.50 0.0 0 0 534.6703 172.5200
  L 539.8709 175.6696
  A 0.50 0.50 0.0 0 0 540.5576 175.5009
  L 540.5784 175.4667
  Z
  M 559.0418 179.6602
  A 0.56 0.56 0.0 0 0 558.8812 178.8847
  L 553.6156 175.4258
  A 0.56 0.56 0.0 0 0 552.8401 175.5864
  L 552.8182 175.6198
  A 0.56 0.56 0.0 0 0 552.9788 176.3953
  L 558.2444 179.8542
  A 0.56 0.56 0.0 0 0 559.0199 179.6936
  L 559.0418 179.6602
  Z
  M 551.6179 181.8613
  A 0.50 0.50 0.0 0 0 551.4468 181.1752
  L 544.8295 177.1991
  A 0.50 0.50 0.0 0 0 544.1434 177.3701
  L 544.1021 177.4387
  A 0.50 0.50 0.0 0 0 544.2732 178.1248
  L 550.8905 182.1009
  A 0.50 0.50 0.0 0 0 551.5766 181.9299
  L 551.6179 181.8613
  Z
  M 579.6578 184.7649
  A 0.59 0.59 0.0 0 0 579.4446 183.9582
  L 570.6290 178.8274
  A 0.59 0.59 0.0 0 0 569.8223 179.0405
  L 569.8022 179.0751
  A 0.59 0.59 0.0 0 0 570.0154 179.8818
  L 578.8310 185.0126
  A 0.59 0.59 0.0 0 0 579.6377 184.7995
  L 579.6578 184.7649
  Z
  M 571.7696 186.6581
  A 0.57 0.57 0.0 0 0 571.5340 185.8872
  L 563.0400 181.3709
  A 0.57 0.57 0.0 0 0 562.2691 181.6066
  L 562.2504 181.6419
  A 0.57 0.57 0.0 0 0 562.4860 182.4128
  L 570.9800 186.9291
  A 0.57 0.57 0.0 0 0 571.7509 186.6934
  L 571.7696 186.6581
  Z
  M 564.5517 188.7588
  A 0.32 0.32 0.0 0 0 564.4232 188.3249
  L 555.4417 183.4484
  A 0.32 0.32 0.0 0 0 555.0078 183.5769
  L 554.7883 183.9812
  A 0.32 0.32 0.0 0 0 554.9168 184.4151
  L 563.8983 189.2916
  A 0.32 0.32 0.0 0 0 564.3322 189.1631
  L 564.5517 188.7588
  Z
  M 579.6793 191.1314
  A 2.77 0.68 31.6 0 0 577.6763 189.1008
  A 2.77 0.68 31.6 0 0 574.9607 188.2286
  A 2.77 0.68 31.6 0 0 576.9637 190.2592
  A 2.77 0.68 31.6 0 0 579.6793 191.1314
  Z
  M 568.5943 203.5347
  A 0.80 0.80 0.0 0 0 568.3206 202.4369
  L 548.5543 190.5602
  A 0.80 0.80 0.0 0 0 547.4566 190.8339
  L 547.4257 190.8853
  A 0.80 0.80 0.0 0 0 547.6994 191.9831
  L 567.4657 203.8598
  A 0.80 0.80 0.0 0 0 568.5634 203.5861
  L 568.5943 203.5347
  Z
  M 573.5986 194.3121
  A 0.57 0.57 0.0 0 0 573.4050 193.5296
  L 568.6955 190.6886
  A 0.57 0.57 0.0 0 0 567.9130 190.8823
  L 567.8614 190.9679
  A 0.57 0.57 0.0 0 0 568.0550 191.7504
  L 572.7645 194.5914
  A 0.57 0.57 0.0 0 0 573.5470 194.3977
  L 573.5986 194.3121
  Z
  M 536.9690 198.7742
  A 2.04 1.05 61.0 0 0 536.8984 196.4809
  A 2.04 1.05 61.0 0 0 534.9910 195.2058
  A 2.04 1.05 61.0 0 0 535.0616 197.4991
  A 2.04 1.05 61.0 0 0 536.9690 198.7742
  Z
  M 579.4396 197.7609
  A 1.41 0.62 31.7 0 0 578.5658 196.4925
  A 1.41 0.62 31.7 0 0 577.0404 196.2791
  A 1.41 0.62 31.7 0 0 577.9142 197.5475
  A 1.41 0.62 31.7 0 0 579.4396 197.7609
  Z
  M 579.6209 221.8903
  A 0.53 0.53 0.0 0 0 579.4244 221.1670
  L 542.4923 200.0158
  A 0.53 0.53 0.0 0 0 541.7690 200.2123
  L 541.7591 200.2297
  A 0.53 0.53 0.0 0 0 541.9556 200.9530
  L 578.8877 222.1042
  A 0.53 0.53 0.0 0 0 579.6110 221.9077
  L 579.6209 221.8903
  Z
  M 536.9777 205.7386
  A 2.02 1.01 61.7 0 0 536.9093 203.4812
  A 2.02 1.01 61.7 0 0 535.0623 202.1814
  A 2.02 1.01 61.7 0 0 535.1307 204.4388
  A 2.02 1.01 61.7 0 0 536.9777 205.7386
  Z
  M 579.2992 228.8568
  A 0.53 0.53 0.0 0 0 579.1115 228.1311
  L 542.5268 206.5811
  A 0.53 0.53 0.0 0 0 541.8011 206.7687
  L 541.7808 206.8032
  A 0.53 0.53 0.0 0 0 541.9685 207.5289
  L 578.5532 229.0789
  A 0.53 0.53 0.0 0 0 579.2789 228.8913
  L 579.2992 228.8568
  Z
  M 536.9940 212.2082
  A 1.98 0.99 60.2 0 0 536.8691 209.9980
  A 1.98 0.99 60.2 0 0 535.0260 208.7718
  A 1.98 0.99 60.2 0 0 535.1509 210.9820
  A 1.98 0.99 60.2 0 0 536.9940 212.2082
  Z
  M 579.6746 235.3022
  A 0.29 0.29 0.0 0 0 579.5663 234.9066
  L 542.0588 213.5127
  A 0.29 0.29 0.0 0 0 541.6633 213.6209
  L 541.4254 214.0378
  A 0.29 0.29 0.0 0 0 541.5337 214.4334
  L 579.0412 235.8273
  A 0.29 0.29 0.0 0 0 579.4367 235.7191
  L 579.6746 235.3022
  Z"
/>
<path d="
  M 360.18 114.90
  L 352.22 110.66
  A 2.36 2.36 0.0 0 1 352.23 106.49
  L 360.46 102.16
  A 2.36 2.36 0.0 0 1 362.60 102.13
  L 370.91 106.22
  A 2.36 2.36 0.0 0 1 370.96 110.43
  L 362.38 114.91
  A 2.36 2.36 0.0 0 1 360.18 114.90
  Z"
/>
<path d="
  M 478.10 276.06
  C 465.62 269.55 453.38 262.12 440.95 254.66
  C 435.29 251.25 428.86 248.14 423.66 245.08
  Q 406.89 235.21 389.90 225.72
  C 380.47 220.46 369.99 213.81 359.80 208.20
  C 349.52 202.53 340.71 197.13 331.16 191.57
  Q 329.24 190.45 327.65 189.00
  Q 326.47 185.99 327.72 183.62
  Q 327.93 183.22 327.69 182.84
  Q 326.63 181.19 327.57 178.50
  Q 328.07 177.07 328.30 173.39
  Q 328.39 172.02 329.21 169.79
  Q 329.79 168.23 329.76 166.52
  A 0.79 0.79 0.0 0 1 330.21 165.79
  Q 333.47 164.27 334.43 162.07
  C 341.52 145.99 355.07 138.32 372.30 138.93
  Q 381.79 139.27 389.49 142.13
  Q 402.10 146.82 413.93 156.20
  Q 421.97 162.56 429.07 169.27
  Q 439.52 179.14 447.11 191.53
  C 448.18 193.27 449.80 195.05 450.61 196.63
  Q 455.05 205.20 460.15 213.37
  Q 462.11 216.53 464.07 220.67
  Q 465.82 224.40 467.87 227.99
  Q 468.12 228.43 468.11 228.93
  Q 468.09 229.67 468.86 229.90
  Q 469.25 230.02 469.40 230.39
  Q 476.13 246.75 478.35 264.28
  C 478.69 266.97 478.49 269.46 478.34 272.19
  Q 478.31 272.69 478.57 273.12
  Q 480.20 275.77 478.10 276.06
  Z
  M 367.08 145.41
  A 0.34 0.34 0.0 0 0 366.73 145.88
  L 370.13 154.31
  A 0.34 0.34 0.0 0 0 370.42 154.52
  L 385.19 155.51
  A 0.34 0.34 0.0 0 0 385.55 155.10
  L 383.81 146.93
  A 0.34 0.34 0.0 0 0 383.51 146.66
  L 367.08 145.41
  Z
  M 363.20 156.25
  A 0.34 0.34 0.0 0 0 363.31 155.81
  L 359.08 147.40
  A 0.34 0.34 0.0 0 0 358.58 147.28
  L 346.65 155.94
  A 0.34 0.34 0.0 0 0 346.57 156.42
  L 351.78 163.47
  A 0.34 0.34 0.0 0 0 352.24 163.55
  L 363.20 156.25
  Z
  M 393.51 150.13
  A 0.35 0.35 0.0 0 0 392.98 150.46
  L 393.82 158.58
  A 0.35 0.35 0.0 0 0 394.00 158.86
  L 410.27 167.50
  A 0.35 0.35 0.0 0 0 410.78 167.24
  L 411.61 161.20
  A 0.35 0.35 0.0 0 0 411.44 160.85
  L 393.51 150.13
  Z
  M 342.41 183.82
  L 342.77 180.63
  L 348.01 169.73
  Q 348.16 169.43 347.92 169.18
  L 342.30 163.40
  Q 342.12 163.22 341.98 163.44
  Q 338.70 168.56 338.53 170.39
  Q 338.16 174.43 336.73 178.48
  A 1.19 1.17 40.6 0 0 336.81 179.43
  Q 338.48 182.50 342.41 183.82
  Z
  M 421.59 168.98
  A 0.76 0.76 0.0 0 0 420.29 169.31
  L 418.90 174.94
  A 0.76 0.76 0.0 0 0 419.10 175.65
  L 433.79 190.65
  A 0.76 0.76 0.0 0 0 434.95 190.56
  L 437.39 187.21
  A 0.76 0.76 0.0 0 0 437.34 186.25
  L 421.59 168.98
  Z
  M 451.94 220.73
  A 1.46 1.46 0.0 0 0 453.47 221.45
  L 456.41 220.93
  A 1.46 1.46 0.0 0 0 457.43 218.77
  L 445.96 198.59
  A 1.46 1.46 0.0 0 0 443.67 198.27
  L 441.69 200.22
  A 1.46 1.46 0.0 0 0 441.44 201.97
  L 451.94 220.73
  Z
  M 410.55 222.58
  L 443.81 211.70
  A 0.42 0.42 0.0 0 0 444.10 211.29
  L 444.10 210.96
  Q 444.10 210.54 443.68 210.60
  L 407.78 215.65
  A 1.75 1.75 0.0 0 1 406.12 214.95
  C 404.38 212.59 400.73 209.54 397.64 210.53
  C 389.95 213.01 397.42 232.70 407.36 230.35
  C 410.49 229.61 410.37 225.82 410.18 223.14
  Q 410.14 222.71 410.55 222.58
  Z
  M 462.12 253.11
  A 0.71 0.71 0.0 0 0 462.54 253.59
  L 467.26 255.54
  A 0.71 0.71 0.0 0 0 468.22 254.73
  L 463.30 232.66
  A 0.71 0.71 0.0 0 0 462.63 232.10
  L 457.57 231.97
  A 0.71 0.71 0.0 0 0 456.87 232.85
  L 462.12 253.11
  Z"
/>
<path d="
  M 258.91 148.25
  C 264.65 144.67 270.62 139.64 277.35 144.52
  C 280.95 147.14 284.64 149.27 288.79 151.27
  A 1.29 1.29 0.0 0 1 288.82 153.57
  Q 283.45 156.33 278.06 159.84
  C 272.95 163.16 270.05 164.35 264.93 160.82
  Q 259.48 157.05 253.15 153.47
  A 0.98 0.98 0.0 0 1 252.98 151.89
  C 254.69 150.35 257.44 149.16 258.91 148.25
  Z"
/>
<path d="
  M 596.67 213.06
  Q 596.90 213.19 596.52 212.93
  Q 596.40 212.86 596.49 212.74
  Q 596.77 212.38 596.71 211.88
  C 597.70 208.51 602.74 202.26 607.31 203.81
  Q 611.90 205.37 615.26 208.02
  C 618.74 210.78 616.13 216.40 612.97 218.28
  Q 609.66 220.25 605.94 221.38
  Q 605.47 221.53 605.00 221.38
  Q 598.97 219.40 596.67 213.06
  Z"
/>
<path d="
  M 618.72 209.52
  L 621.44 211.39
  A 0.86 0.86 0.0 0 1 621.46 212.79
  L 618.56 214.92
  A 0.86 0.86 0.0 0 1 617.19 214.19
  L 617.37 210.19
  A 0.86 0.86 0.0 0 1 618.72 209.52
  Z"
/>
<path d="
  M 383.73 224.85
  Q 385.11 228.20 387.37 230.36
  A 0.70 0.69 -49.2 0 1 387.43 231.29
  Q 386.45 232.52 384.50 233.76
  Q 373.98 240.46 363.11 246.55
  C 358.44 249.16 357.30 250.60 352.05 247.49
  Q 338.52 239.49 325.52 231.21
  A 0.53 0.53 0.0 0 1 325.54 230.30
  C 334.18 225.16 342.84 220.20 351.00 214.31
  Q 355.03 211.41 360.14 210.25
  Q 361.06 210.01 362.46 210.80
  C 369.04 214.54 375.38 218.67 381.94 222.36
  Q 384.14 223.60 383.73 224.85
  Z"
/>
<path d="
  M 221.92 229.42
  Q 215.06 233.17 212.04 235.35
  C 210.09 236.77 208.33 236.95 206.09 235.77
  Q 200.87 233.00 195.84 229.82
  A 0.82 0.81 44.7 0 1 195.83 228.45
  Q 200.90 225.14 206.44 222.32
  C 208.78 221.14 210.69 221.40 212.74 222.76
  Q 217.42 225.86 221.95 229.04
  A 0.23 0.22 -40.9 0 1 221.92 229.42
  Z"
/>
<path d="
  M 527.38 295.49
  Q 534.55 299.24 541.07 299.98
  C 541.90 302.85 548.03 304.66 550.60 306.63
  A 0.55 0.55 0.0 0 1 550.65 307.46
  Q 549.18 308.87 546.63 310.35
  Q 537.35 315.75 528.02 321.04
  C 525.79 322.30 523.34 321.64 521.03 320.27
  Q 517.36 318.09 513.38 316.59
  Q 510.78 315.61 508.76 314.05
  Q 504.03 310.38 498.88 307.37
  A 0.52 0.52 0.0 0 1 498.88 306.48
  L 517.31 295.44
  A 0.82 0.79 33.3 0 1 517.83 295.34
  Q 522.00 295.95 525.98 296.61
  Q 526.61 296.71 526.93 296.50
  Q 527.40 296.19 527.38 295.49
  Z"
/>
<path d="
  M 263.94 325.20
  C 259.09 327.31 243.59 315.93 238.73 313.36
  Q 238.38 313.17 238.71 312.95
  Q 247.93 306.86 257.60 301.36
  C 261.15 299.33 262.50 299.32 266.23 301.29
  Q 273.45 305.10 280.20 309.62
  C 282.27 311.01 283.75 313.82 281.10 315.58
  Q 271.54 321.91 263.94 325.20
  Z"
/>
</g>
<g fill="#2196f8">
<path d="
  M 295.99 52.15
  Q 295.84 51.98 295.69 52.14
  L 295.49 52.36
  Q 295.35 52.50 295.48 52.65
  L 301.39 59.58
  A 0.91 0.87 74.3 0 0 301.88 59.87
  Q 304.69 60.46 307.19 59.15
  A 0.74 0.74 0.0 0 1 308.27 59.81
  L 308.23 68.19
  Q 308.22 68.78 307.71 68.49
  L 296.02 61.68
  A 3.05 3.03 15.7 0 1 294.50 59.00
  L 294.59 52.80
  A 1.28 1.28 0.0 0 1 296.47 51.68
  L 307.05 57.26
  A 0.66 0.66 0.0 0 1 306.79 58.50
  L 302.40 58.79
  A 0.72 0.72 0.0 0 1 301.80 58.55
  L 295.99 52.15
  Z"
/>
<rect x="-5.07" y="-0.52" transform="translate(322.05,61.23) rotate(31.0)" width="10.14" height="1.04" rx="0.50"/>
<rect x="-3.74" y="-0.44" transform="translate(316.05,64.25) rotate(30.6)" width="7.48" height="0.88" rx="0.42"/>
<rect x="-8.22" y="-0.52" transform="translate(311.62,81.28) rotate(30.8)" width="16.44" height="1.04" rx="0.40"/>
<rect x="-3.67" y="-0.41" transform="translate(299.19,82.11) rotate(30.4)" width="7.34" height="0.82" rx="0.39"/>
<ellipse cx="0.00" cy="0.00" transform="translate(297.12,85.43) rotate(25.9)" rx="1.12" ry="0.55"/>
<ellipse cx="0.00" cy="0.00" transform="translate(306.84,86.68) rotate(35.8)" rx="2.63" ry="0.41"/>
<ellipse cx="0.00" cy="0.00" transform="translate(303.24,88.93) rotate(31.0)" rx="3.11" ry="0.43"/>
<ellipse cx="0.00" cy="0.00" transform="translate(297.98,90.45) rotate(33.7)" rx="2.38" ry="0.47"/>
<ellipse cx="0.00" cy="0.00" transform="translate(304.47,94.20) rotate(32.4)" rx="2.85" ry="0.45"/>
<path d="
  M 309.80 107.37
  L 314.72 110.66
  L 313.75 110.69
  Q 313.04 110.71 313.03 111.41
  L 312.66 175.51
  A 4.56 4.56 0.0 0 0 315.31 179.68
  Q 319.72 181.73 323.97 184.10
  Q 324.97 184.66 325.96 183.19
  Q 326.27 187.98 327.65 189.00
  Q 329.24 190.45 331.16 191.57
  C 340.71 197.13 349.52 202.53 359.80 208.20
  C 369.99 213.81 380.47 220.46 389.90 225.72
  Q 406.89 235.21 423.66 245.08
  C 428.86 248.14 435.29 251.25 440.95 254.66
  C 453.38 262.12 465.62 269.55 478.10 276.06
  Q 479.63 276.64 481.27 275.77
  Q 487.04 272.72 498.60 266.03
  C 501.51 264.35 500.15 261.90 500.23 259.53
  Q 500.52 251.92 500.30 244.27
  A 0.22 0.21 -61.8 0 0 500.27 244.16
  L 499.08 242.20
  A 0.29 0.29 0.0 0 1 499.50 241.82
  Q 500.92 242.90 500.96 244.51
  Q 501.19 254.15 500.82 263.42
  A 0.73 0.73 0.0 0 0 501.91 264.08
  L 513.71 257.43
  Q 508.94 262.04 501.94 265.28
  A 1.56 1.53 87.0 0 0 501.14 266.19
  Q 500.64 267.73 498.94 267.37
  A 0.37 0.36 35.0 0 0 498.68 267.41
  L 480.01 277.58
  A 1.76 1.76 0.0 0 1 478.31 277.58
  Q 461.32 268.36 444.54 258.39
  Q 435.15 252.81 427.21 248.42
  Q 409.10 238.40 403.77 234.99
  Q 392.86 228.01 383.73 224.85
  Q 384.14 223.60 381.94 222.36
  C 375.38 218.67 369.04 214.54 362.46 210.80
  Q 361.06 210.01 360.14 210.25
  C 359.26 209.65 358.38 208.74 357.58 208.30
  Q 341.42 199.51 325.80 189.71
  Q 325.33 189.42 325.40 188.87
  L 325.66 186.84
  Q 325.73 186.27 325.22 186.01
  Q 317.68 182.20 313.53 178.99
  C 312.56 178.24 312.24 176.59 312.22 175.24
  Q 311.83 144.51 311.97 113.77
  C 311.97 112.89 312.13 112.22 312.38 111.39
  Q 312.53 110.91 312.23 110.52
  L 309.80 107.37
  Z"
/>
<path d="
  M 399.19 117.43
  L 406.01 120.37
  A 0.33 0.33 0.0 0 1 406.21 120.68
  L 406.07 125.36
  A 0.33 0.33 0.0 0 1 405.66 125.67
  L 398.91 123.83
  A 0.33 0.33 0.0 0 1 398.66 123.50
  L 398.73 117.73
  A 0.33 0.33 0.0 0 1 399.19 117.43
  Z"
/>
<ellipse cx="0.00" cy="0.00" transform="translate(541.73,122.56) rotate(56.5)" rx="6.09" ry="3.71"/>
<path d="
  M 548.25 141.20
  L 534.99 133.72
  Q 534.62 133.51 534.59 133.08
  C 534.21 126.91 539.96 127.28 543.38 130.38
  Q 548.05 134.60 548.89 140.76
  A 0.43 0.43 0.0 0 1 548.25 141.20
  Z"
/>
<path d="
  M 367.08 145.41
  L 383.51 146.66
  A 0.34 0.34 0.0 0 1 383.81 146.93
  L 385.55 155.10
  A 0.34 0.34 0.0 0 1 385.19 155.51
  L 370.42 154.52
  A 0.34 0.34 0.0 0 1 370.13 154.31
  L 366.73 145.88
  A 0.34 0.34 0.0 0 1 367.08 145.41
  Z"
/>
<path d="
  M 363.20 156.25
  L 352.24 163.55
  A 0.34 0.34 0.0 0 1 351.78 163.47
  L 346.57 156.42
  A 0.34 0.34 0.0 0 1 346.65 155.94
  L 358.58 147.28
  A 0.34 0.34 0.0 0 1 359.08 147.40
  L 363.31 155.81
  A 0.34 0.34 0.0 0 1 363.20 156.25
  Z"
/>
<path d="
  M 393.51 150.13
  L 411.44 160.85
  A 0.35 0.35 0.0 0 1 411.61 161.20
  L 410.78 167.24
  A 0.35 0.35 0.0 0 1 410.27 167.50
  L 394.00 158.86
  A 0.35 0.35 0.0 0 1 393.82 158.58
  L 392.98 150.46
  A 0.35 0.35 0.0 0 1 393.51 150.13
  Z"
/>
<rect x="-5.38" y="-0.51" transform="translate(539.20,161.55) rotate(29.1)" width="10.76" height="1.02" rx="0.27"/>
<path d="
  M 342.77 180.63
  Q 345.11 173.60 344.08 165.96
  A 1.26 1.26 0.0 0 0 341.61 165.84
  Q 340.35 171.17 340.66 176.46
  A 0.86 0.85 -22.2 0 1 340.36 177.17
  Q 339.84 177.61 339.24 177.34
  A 1.49 1.37 -5.5 0 0 337.37 179.41
  Q 338.23 180.43 339.57 180.70
  Q 340.02 180.79 340.31 181.15
  L 342.41 183.82
  Q 338.48 182.50 336.81 179.43
  A 1.19 1.17 40.6 0 1 336.73 178.48
  Q 338.16 174.43 338.53 170.39
  Q 338.70 168.56 341.98 163.44
  Q 342.12 163.22 342.30 163.40
  L 347.92 169.18
  Q 348.16 169.43 348.01 169.73
  L 342.77 180.63
  Z"
/>
<ellipse cx="0.00" cy="0.00" transform="translate(536.25,166.16) rotate(33.2)" rx="2.31" ry="0.59"/>
<rect x="-4.47" y="-0.55" transform="translate(545.55,171.55) rotate(30.6)" width="8.94" height="1.10" rx="0.53"/>
<rect x="-3.54" y="-0.52" transform="translate(537.54,173.65) rotate(31.2)" width="7.08" height="1.04" rx="0.50"/>
<rect x="-4.36" y="-0.54" transform="translate(547.86,179.65) rotate(31.0)" width="8.72" height="1.08" rx="0.50"/>
<path d="
  M 264.00 195.73
  A 2.02 2.01 39.6 0 0 264.30 198.86
  Q 271.52 203.57 279.48 201.39
  Q 281.75 200.77 283.60 200.24
  Q 284.46 199.99 284.20 200.85
  L 284.04 201.38
  A 1.99 1.98 87.9 0 1 282.87 202.65
  C 277.28 204.91 263.64 205.37 261.97 197.54
  Q 261.88 197.08 262.15 196.71
  C 263.59 194.67 264.39 192.27 266.54 190.99
  C 272.87 187.22 277.20 189.92 283.44 189.72
  Q 283.95 189.71 283.99 190.22
  Q 284.07 191.49 283.09 192.29
  A 1.03 1.03 0.0 0 1 282.04 192.44
  Q 271.78 188.15 264.00 195.73
  Z"
/>
<ellipse cx="0.00" cy="0.00" transform="translate(535.98,196.99) rotate(61.0)" rx="2.04" ry="1.05"/>
<ellipse cx="0.00" cy="0.00" transform="translate(536.02,203.96) rotate(61.7)" rx="2.02" ry="1.01"/>
<ellipse cx="0.00" cy="0.00" transform="translate(536.01,210.49) rotate(60.2)" rx="1.98" ry="0.99"/>
<path d="
  M 410.18 223.14
  C 410.37 225.82 410.49 229.61 407.36 230.35
  C 397.42 232.70 389.95 213.01 397.64 210.53
  C 400.73 209.54 404.38 212.59 406.12 214.95
  A 1.75 1.75 0.0 0 0 407.78 215.65
  L 443.68 210.60
  Q 444.10 210.54 444.10 210.96
  L 444.10 211.29
  A 0.42 0.42 0.0 0 1 443.81 211.70
  L 410.55 222.58
  Q 410.14 222.71 410.18 223.14
  Z"
/>
<path d="
  M 494.34 236.14
  Q 490.55 237.11 489.23 240.51
  Q 489.04 241.01 488.93 240.48
  C 488.37 237.70 493.56 235.67 495.64 234.86
  Q 495.84 234.79 495.95 234.97
  L 496.23 235.42
  Q 496.41 235.71 496.08 235.77
  Q 495.10 235.95 494.34 236.14
  Z"
/>
<path d="
  M 285.25 241.33
  Q 285.66 241.90 285.61 242.39
  Q 285.57 242.85 285.11 242.76
  L 282.95 242.37
  L 281.83 242.31
  Q 281.09 242.27 281.76 241.97
  C 283.10 241.39 283.98 242.46 285.25 241.33
  Z"
/>
<path d="
  M 269.65 254.51
  Q 269.02 254.11 268.72 253.33
  Q 268.55 252.90 269.01 252.84
  L 269.71 252.74
  A 0.99 0.99 0.0 0 0 270.42 252.26
  C 274.80 244.74 285.86 244.58 292.13 249.33
  Q 293.60 250.45 293.59 252.28
  Q 293.59 252.91 293.07 252.55
  Q 280.80 243.85 269.65 254.51
  Z"
/>
<ellipse cx="0.00" cy="0.00" transform="translate(298.08,247.42) rotate(98.7)" rx="1.49" ry="1.07"/>
<path d="
  M 297.26 258.39
  A 0.23 0.23 0.0 0 1 296.96 258.25
  L 296.76 257.70
  A 3.58 2.12 -20.1 0 1 299.40 254.48
  L 299.71 254.36
  A 3.58 2.12 -20.1 0 1 303.80 255.12
  L 304.01 255.68
  A 0.23 0.23 0.0 0 1 303.87 255.97
  L 297.26 258.39
  Z"
/>
<path d="
  M 283.11 264.51
  Q 284.08 263.96 285.05 263.01
  C 286.71 261.36 288.56 260.90 290.79 260.85
  C 292.81 260.80 295.58 262.79 297.64 260.56
  A 0.98 0.98 0.0 0 1 299.18 261.75
  C 296.28 266.22 294.19 263.48 290.79 263.47
  Q 286.54 263.45 284.34 266.80
  A 2.44 2.43 -46.4 0 1 280.34 266.90
  Q 276.92 262.23 271.18 263.77
  C 268.61 264.46 267.13 264.04 265.80 261.84
  A 0.95 0.95 0.0 0 1 267.19 260.59
  C 269.57 262.37 271.80 260.50 273.86 260.51
  Q 277.95 260.53 280.12 263.79
  A 2.26 2.26 0.0 0 0 283.11 264.51
  Z"
/>
<path d="
  M 395.07 279.77
  A 0.19 0.19 0.0 0 1 395.14 279.51
  L 395.24 279.46
  A 1.70 1.56 59.7 0 1 397.44 280.14
  L 397.50 280.24
  A 1.70 1.56 59.7 0 1 397.01 282.50
  L 396.92 282.55
  A 0.19 0.19 0.0 0 1 396.66 282.48
  L 395.07 279.77
  Z"
/>
<path d="
  M 391.36 285.96
  A 2.19 2.19 0.0 0 0 388.90 283.76
  L 385.15 284.22
  A 1.04 1.04 0.0 0 1 383.97 283.15
  C 384.09 279.17 394.50 280.13 392.24 284.83
  Q 392.02 285.27 392.34 285.64
  Q 394.72 288.51 397.49 286.10
  Q 398.04 285.62 398.02 286.35
  Q 397.95 288.75 396.16 290.29
  Q 395.94 290.48 395.65 290.44
  Q 391.31 289.97 391.36 285.96
  Z"
/>
<path d="
  M 188.34 299.34
  C 185.40 308.80 171.09 308.36 164.12 305.33
  Q 163.09 304.88 163.19 303.76
  L 163.22 303.41
  Q 163.32 302.30 164.33 302.79
  Q 172.93 307.00 182.21 303.09
  C 184.66 302.06 185.81 301.06 187.57 298.93
  A 0.45 0.44 -16.7 0 1 188.34 299.34
  Z"
/>
<path d="
  M 456.74 316.02
  Q 457.76 319.48 460.99 318.68
  Q 461.67 318.51 461.62 319.21
  Q 461.52 320.70 460.20 321.05
  C 457.89 321.66 455.77 318.31 455.28 316.52
  A 0.84 0.84 0.0 0 1 455.51 315.68
  C 457.73 313.53 459.00 310.83 461.81 309.68
  C 466.59 307.72 476.34 307.71 478.40 313.96
  Q 478.73 314.99 477.88 314.32
  C 472.70 310.22 466.74 309.73 461.07 313.04
  Q 459.06 314.21 457.03 315.32
  Q 456.60 315.55 456.74 316.02
  Z"
/>
<path d="
  M 478.63 318.73
  L 480.75 316.02
  A 0.41 0.41 0.0 0 1 481.48 316.36
  C 480.95 318.73 478.86 321.88 475.83 320.65
  Q 475.23 320.41 475.23 319.76
  L 475.23 318.91
  Q 475.24 318.57 475.57 318.64
  L 477.73 319.07
  Q 478.28 319.18 478.63 318.73
  Z"
/>
</g>
<g fill="#20c7ee">
<path d="
  M 440.03 127.56
  L 439.91 140.19
  Q 439.91 140.81 440.43 141.14
  L 442.53 142.47
  A 0.53 0.53 0.0 0 1 442.52 143.37
  L 439.57 145.21
  Q 438.70 145.75 438.69 144.72
  Q 438.23 107.86 438.71 71.00
  Q 438.76 67.13 435.25 65.29
  Q 430.67 62.89 424.39 59.18
  Q 419.69 56.40 413.58 53.04
  Q 404.06 47.80 394.93 41.87
  Q 394.93 41.23 395.77 41.21
  Q 396.19 41.20 396.67 41.49
  Q 413.37 51.53 430.52 60.77
  Q 433.71 62.49 436.61 64.65
  C 438.73 66.23 439.60 66.88 439.63 69.80
  C 439.81 89.05 439.86 108.31 440.03 127.56
  Z"
/>
<path d="
  M 402.98 68.72
  L 401.98 65.41
  A 1.06 1.05 86.3 0 0 401.15 64.67
  Q 400.08 64.47 399.86 63.55
  Q 399.73 63.02 400.11 62.62
  L 400.81 61.88
  A 0.51 0.51 0.0 0 0 400.60 61.05
  Q 400.25 60.92 400.10 60.64
  A 0.45 0.45 0.0 0 1 400.03 60.40
  L 400.00 54.24
  A 0.52 0.51 86.2 0 1 400.44 53.73
  C 403.07 53.36 403.98 56.38 403.68 58.46
  Q 403.22 61.67 403.22 62.13
  Q 403.26 65.87 403.60 69.62
  Q 403.65 70.16 403.13 70.33
  C 400.76 71.07 398.91 68.02 400.07 66.08
  A 0.49 0.48 70.7 0 1 400.94 66.50
  Q 400.15 68.58 402.10 69.48
  A 0.64 0.64 0.0 0 0 402.98 68.72
  Z"
/>
<path d="
  M 415.87 72.58
  L 415.88 61.69
  A 0.31 0.31 0.0 0 1 416.32 61.40
  L 418.66 62.45
  A 0.31 0.31 0.0 0 1 418.84 62.73
  L 418.89 74.06
  A 0.31 0.31 0.0 0 1 418.41 74.33
  L 416.02 72.84
  A 0.31 0.31 0.0 0 1 415.87 72.58
  Z"
/>
<ellipse cx="0.00" cy="0.00" transform="translate(313.90,67.82) rotate(34.5)" rx="1.59" ry="0.52"/>
<ellipse cx="0.00" cy="0.00" transform="translate(325.28,69.60) rotate(29.7)" rx="3.97" ry="0.48"/>
<rect x="-3.09" y="-0.45" transform="translate(320.60,71.68) rotate(30.9)" width="6.18" height="0.90" rx="0.26"/>
<rect x="-2.32" y="-3.73" transform="translate(429.96,74.60) rotate(-31.7)" width="4.64" height="7.46" rx="1.16"/>
<ellipse cx="0.00" cy="0.00" transform="translate(314.74,73.11) rotate(31.4)" rx="2.72" ry="0.49"/>
<ellipse cx="0.00" cy="0.00" transform="translate(327.12,75.36) rotate(33.2)" rx="1.60" ry="0.56"/>
<path d="
  M 324.64 78.58
  A 0.17 0.17 0.0 0 1 324.41 78.66
  L 324.29 78.60
  A 5.77 0.30 25.5 0 1 319.21 75.84
  L 319.36 75.52
  A 5.77 0.30 25.5 0 1 324.70 77.73
  L 324.83 77.79
  A 0.17 0.17 0.0 0 1 324.91 78.02
  L 324.64 78.58
  Z"
/>
<path d="
  M 430.49 79.39
  Q 432.53 78.90 433.38 80.90
  A 1.69 1.69 0.0 0 1 432.56 83.08
  L 430.44 84.11
  A 0.69 0.68 -26.9 0 1 429.53 83.82
  L 426.40 78.05
  A 0.71 0.71 0.0 0 1 427.03 77.00
  L 427.56 77.01
  A 1.14 1.14 0.0 0 1 428.50 77.53
  L 429.47 78.99
  A 0.95 0.95 0.0 0 0 430.49 79.39
  Z"
/>
<ellipse cx="0.00" cy="0.00" transform="translate(327.89,80.20) rotate(24.5)" rx="0.84" ry="0.47"/>
<path d="
  M 418.44 85.09
  Q 419.09 90.06 418.58 95.06
  Q 418.56 95.22 418.43 95.14
  L 416.17 93.72
  Q 415.81 93.49 415.81 93.06
  L 415.88 82.20
  Q 415.88 82.00 416.05 82.09
  L 418.48 83.34
  Q 418.74 83.48 418.68 83.77
  C 418.57 84.26 418.36 84.48 418.44 85.09
  Z
  M 417.8361 86.5718
  A 1.07 0.61 55.5 0 0 417.7327 85.3445
  A 1.07 0.61 55.5 0 0 416.6239 84.8082
  A 1.07 0.61 55.5 0 0 416.7273 86.0355
  A 1.07 0.61 55.5 0 0 417.8361 86.5718
  Z
  M 417.14 91.02
  A 0.65 0.64 -19.1 0 0 416.59 92.15
  L 417.40 92.81
  Q 417.91 93.22 418.04 92.58
  Q 418.30 91.28 417.14 91.02
  Z"
/>
<ellipse cx="0.00" cy="0.00" transform="translate(314.23,91.07) rotate(30.1)" rx="3.42" ry="0.43"/>
<ellipse cx="0.00" cy="0.00" transform="translate(309.87,93.03) rotate(31.1)" rx="2.56" ry="0.47"/>
<ellipse cx="0.00" cy="0.00" transform="translate(322.63,95.91) rotate(29.3)" rx="3.62" ry="0.41"/>
<ellipse cx="0.00" cy="0.00" transform="translate(317.50,97.28) rotate(24.9)" rx="3.45" ry="0.41"/>
<ellipse cx="0.00" cy="0.00" transform="translate(312.65,98.76) rotate(28.5)" rx="3.86" ry="0.41"/>
<ellipse cx="0.00" cy="0.00" transform="translate(324.53,101.06) rotate(32.4)" rx="1.57" ry="0.53"/>
<ellipse cx="0.00" cy="0.00" transform="translate(320.07,102.94) rotate(31.8)" rx="2.14" ry="0.42"/>
<path d="
  M 418.23 116.15
  L 415.93 114.63
  A 0.34 0.34 0.0 0 1 415.78 114.35
  L 415.84 103.59
  A 0.34 0.34 0.0 0 1 416.33 103.29
  L 418.57 104.44
  A 0.34 0.34 0.0 0 1 418.75 104.75
  L 418.76 115.87
  A 0.34 0.34 0.0 0 1 418.23 116.15
  Z
  M 417.7721 107.2402
  A 1.00 0.54 55.1 0 0 417.6429 106.1110
  A 1.00 0.54 55.1 0 0 416.6279 105.5998
  A 1.00 0.54 55.1 0 0 416.7571 106.7290
  A 1.00 0.54 55.1 0 0 417.7721 107.2402
  Z
  M 417.5635 110.5042
  A 0.78 0.62 66.3 0 0 417.8177 109.5408
  A 0.78 0.62 66.3 0 0 416.9365 109.0758
  A 0.78 0.62 66.3 0 0 416.6823 110.0392
  A 0.78 0.62 66.3 0 0 417.5635 110.5042
  Z
  M 417.7582 113.8940
  A 1.12 0.68 56.5 0 0 417.7070 112.5847
  A 1.12 0.68 56.5 0 0 416.5218 112.0260
  A 1.12 0.68 56.5 0 0 416.5730 113.3353
  A 1.12 0.68 56.5 0 0 417.7582 113.8940
  Z"
/>
<path d="
  M 325.36 106.63
  L 324.62 105.92
  A 0.39 0.39 0.0 0 1 324.95 105.26
  Q 326.02 105.41 325.79 106.50
  A 0.26 0.26 0.0 0 1 325.36 106.63
  Z"
/>
<path d="
  M 393.75 120.43
  L 393.83 121.99
  Q 393.86 122.71 393.15 122.69
  L 390.50 122.63
  A 0.48 0.47 -57.7 0 1 390.30 121.73
  L 393.35 120.19
  Q 393.73 120.00 393.75 120.43
  Z"
/>
<path d="
  M 418.50 127.18
  Q 418.97 128.88 418.70 130.73
  Q 418.59 131.52 418.14 130.85
  Q 417.56 129.99 416.42 129.90
  A 0.61 0.61 0.0 0 1 415.86 129.29
  L 415.84 124.01
  Q 415.84 123.90 415.93 123.95
  L 418.69 125.44
  Q 418.90 125.55 418.80 125.78
  L 418.58 126.26
  Q 418.38 126.71 418.50 127.18
  Z
  M 416.38 127.03
  L 416.97 128.01
  A 0.52 0.52 0.0 0 0 417.87 127.49
  Q 417.52 126.85 416.79 126.55
  Q 415.89 126.19 416.38 127.03
  Z"
/>
<rect x="-9.55" y="-0.86" transform="translate(568.62,130.36) rotate(30.2)" width="19.10" height="1.72" rx="0.84"/>
<rect x="-5.74" y="-0.62" transform="translate(562.02,135.69) rotate(30.4)" width="11.48" height="1.24" rx="0.59"/>
<rect x="-0.77" y="-2.36" transform="translate(429.98,136.69) rotate(-5.0)" width="1.54" height="4.72" rx="0.69"/>
<ellipse cx="0.00" cy="0.00" transform="translate(559.00,140.64) rotate(29.1)" rx="2.27" ry="0.62"/>
<rect x="-5.42" y="-0.57" transform="translate(574.95,142.79) rotate(28.3)" width="10.84" height="1.14" rx="0.55"/>
<rect x="-4.57" y="-0.60" transform="translate(568.26,145.56) rotate(30.6)" width="9.14" height="1.20" rx="0.58"/>
<rect x="-3.52" y="-0.58" transform="translate(560.33,147.74) rotate(30.9)" width="7.04" height="1.16" rx="0.56"/>
<ellipse cx="0.00" cy="0.00" transform="translate(577.68,151.01) rotate(31.2)" rx="2.49" ry="0.64"/>
<rect x="-4.47" y="-0.58" transform="translate(570.42,153.55) rotate(30.7)" width="8.94" height="1.16" rx="0.56"/>
<rect x="-12.25" y="-0.81" transform="translate(558.03,159.24) rotate(30.3)" width="24.50" height="1.62" rx="0.71"/>
<ellipse cx="0.00" cy="0.00" transform="translate(578.64,158.36) rotate(40.3)" rx="1.11" ry="0.61"/>
<path d="
  M 342.77 180.63
  L 342.41 183.82
  L 340.31 181.15
  Q 340.02 180.79 339.57 180.70
  Q 338.23 180.43 337.37 179.41
  A 1.49 1.37 -5.5 0 1 339.24 177.34
  Q 339.84 177.61 340.36 177.17
  A 0.86 0.85 -22.2 0 0 340.66 176.46
  Q 340.35 171.17 341.61 165.84
  A 1.26 1.26 0.0 0 1 344.08 165.96
  Q 345.11 173.60 342.77 180.63
  Z"
/>
<rect x="-4.19" y="-0.57" transform="translate(551.09,167.95) rotate(30.2)" width="8.38" height="1.14" rx="0.55"/>
<path d="
  M 421.59 168.98
  L 437.34 186.25
  A 0.76 0.76 0.0 0 1 437.39 187.21
  L 434.95 190.56
  A 0.76 0.76 0.0 0 1 433.79 190.65
  L 419.10 175.65
  A 0.76 0.76 0.0 0 1 418.90 174.94
  L 420.29 169.31
  A 0.76 0.76 0.0 0 1 421.59 168.98
  Z"
/>
<rect x="-5.02" y="-0.58" transform="translate(562.05,174.62) rotate(30.1)" width="10.04" height="1.16" rx="0.41"/>
<rect x="-3.71" y="-0.58" transform="translate(555.93,177.64) rotate(33.3)" width="7.42" height="1.16" rx="0.56"/>
<rect x="-5.69" y="-0.61" transform="translate(574.73,181.92) rotate(30.2)" width="11.38" height="1.22" rx="0.59"/>
<rect x="-5.38" y="-0.59" transform="translate(567.01,184.15) rotate(28.0)" width="10.76" height="1.18" rx="0.57"/>
<rect x="-5.43" y="-0.55" transform="translate(559.67,186.37) rotate(28.5)" width="10.86" height="1.10" rx="0.32"/>
<ellipse cx="0.00" cy="0.00" transform="translate(577.32,189.68) rotate(31.6)" rx="2.77" ry="0.68"/>
<rect x="-12.33" y="-0.83" transform="translate(558.01,197.21) rotate(31.0)" width="24.66" height="1.66" rx="0.80"/>
<rect x="-3.32" y="-0.62" transform="translate(570.73,192.64) rotate(31.1)" width="6.64" height="1.24" rx="0.57"/>
<ellipse cx="0.00" cy="0.00" transform="translate(578.24,197.02) rotate(31.7)" rx="1.41" ry="0.62"/>
<path d="
  M 451.94 220.73
  L 441.44 201.97
  A 1.46 1.46 0.0 0 1 441.69 200.22
  L 443.67 198.27
  A 1.46 1.46 0.0 0 1 445.96 198.59
  L 457.43 218.77
  A 1.46 1.46 0.0 0 1 456.41 220.93
  L 453.47 221.45
  A 1.46 1.46 0.0 0 1 451.94 220.73
  Z"
/>
<rect x="-21.81" y="-0.54" transform="translate(560.69,211.06) rotate(29.8)" width="43.62" height="1.08" rx="0.53"/>
<rect x="-21.76" y="-0.55" transform="translate(560.54,217.83) rotate(30.5)" width="43.52" height="1.10" rx="0.53"/>
<rect x="-21.88" y="-0.53" transform="translate(560.55,224.67) rotate(29.7)" width="43.76" height="1.06" rx="0.29"/>
<path d="
  M 462.12 253.11
  L 456.87 232.85
  A 0.71 0.71 0.0 0 1 457.57 231.97
  L 462.63 232.10
  A 0.71 0.71 0.0 0 1 463.30 232.66
  L 468.22 254.73
  A 0.71 0.71 0.0 0 1 467.26 255.54
  L 462.54 253.59
  A 0.71 0.71 0.0 0 1 462.12 253.11
  Z"
/>
<path d="
  M 285.25 241.33
  C 283.98 242.46 283.10 241.39 281.76 241.97
  Q 281.09 242.27 281.83 242.31
  L 282.95 242.37
  L 280.02 242.76
  Q 279.45 242.84 279.64 242.30
  C 280.37 240.16 284.57 238.27 285.25 241.33
  Z"
/>
<path d="
  M 552.94 242.48
  Q 559.44 244.81 564.92 249.47
  L 560.65 248.70
  Q 560.06 248.60 560.01 249.20
  C 559.10 261.69 559.53 274.13 559.44 286.65
  Q 559.42 289.60 555.58 291.52
  Q 548.11 295.25 541.07 299.98
  Q 534.55 299.24 527.38 295.49
  Q 515.08 287.82 502.33 280.18
  C 499.33 278.39 500.06 271.04 500.63 268.23
  Q 500.72 267.80 500.85 268.21
  C 502.37 272.65 499.00 276.96 503.32 279.73
  Q 518.70 289.58 535.02 297.77
  C 540.31 300.43 545.95 295.25 550.42 293.16
  Q 553.76 291.59 556.66 289.89
  A 2.89 2.89 0.0 0 0 558.09 287.45
  Q 558.37 271.39 558.27 255.25
  Q 558.24 250.78 556.42 248.17
  Q 556.12 247.75 556.05 247.23
  Q 555.60 244.29 552.94 242.48
  Z"
/>
<path d="
  M 269.23 245.15
  A 0.99 0.98 -7.9 0 0 268.45 246.17
  L 268.61 248.69
  A 0.54 0.54 0.0 0 1 267.80 249.19
  Q 265.97 248.11 265.98 245.98
  A 0.78 0.78 0.0 0 1 266.77 245.20
  Q 268.65 245.22 269.98 243.92
  Q 270.33 243.57 270.78 243.78
  L 273.52 245.09
  Q 274.09 245.36 273.57 245.71
  Q 272.13 246.71 270.56 245.40
  Q 270.05 244.98 269.23 245.15
  Z"
/>
<path d="
  M 269.65 254.51
  L 272.54 257.31
  Q 273.20 257.95 272.29 258.03
  Q 266.70 258.52 261.89 255.70
  A 1.37 1.37 0.0 0 1 262.73 253.16
  Q 266.43 253.53 268.02 256.78
  A 1.06 1.06 0.0 0 0 270.00 256.09
  L 269.65 254.51
  Z"
/>
<path d="
  M 369.92 295.14
  L 372.84 294.25
  Q 373.21 294.14 373.57 294.29
  C 376.59 295.60 385.60 296.41 386.15 291.41
  A 0.39 0.39 0.0 0 1 386.82 291.18
  C 390.63 295.07 382.48 298.33 379.87 298.55
  C 377.09 298.79 373.86 297.17 370.34 298.35
  A 2.46 2.46 0.0 0 1 367.16 296.55
  C 366.67 294.35 366.35 284.51 371.21 285.96
  Q 374.76 287.01 373.85 291.21
  A 0.84 0.84 0.0 0 1 372.25 291.33
  L 371.08 288.28
  A 0.91 0.90 72.4 0 0 370.02 287.73
  L 369.76 287.79
  A 1.31 1.31 0.0 0 0 368.75 289.14
  L 369.03 294.52
  A 0.69 0.69 0.0 0 0 369.92 295.14
  Z"
/>
<path d="
  M 167.76 291.10
  Q 175.56 288.59 182.51 292.67
  Q 184.78 294.00 185.49 296.24
  A 0.46 0.46 0.0 0 1 184.73 296.71
  C 179.73 291.86 172.54 292.04 166.24 293.59
  Q 164.41 294.03 163.26 292.71
  A 0.86 0.86 0.0 0 1 164.11 291.31
  Q 165.82 291.73 167.76 291.10
  Z"
/>
</g>
<g fill="#e2e8f9">
<path d="
  M 338.71 60.93
  Q 338.61 87.88 338.73 114.75
  Q 338.74 118.41 335.11 119.24
  C 334.88 117.18 334.14 115.25 334.18 113.22
  Q 334.66 88.05 335.04 62.88
  Q 335.05 62.37 335.38 61.98
  Q 336.64 60.51 338.71 60.93
  Z"
/>
<ellipse cx="0.00" cy="0.00" transform="translate(417.23,85.69) rotate(55.5)" rx="1.07" ry="0.61"/>
<path d="
  M 417.14 91.02
  Q 418.30 91.28 418.04 92.58
  Q 417.91 93.22 417.40 92.81
  L 416.59 92.15
  A 0.65 0.64 -19.1 0 1 417.14 91.02
  Z"
/>
<ellipse cx="0.00" cy="0.00" transform="translate(417.20,106.42) rotate(55.1)" rx="1.00" ry="0.54"/>
<path d="
  M 394.02 108.68
  Q 395.00 111.02 394.82 113.44
  Q 394.79 113.80 394.47 113.97
  Q 394.21 114.09 394.15 114.38
  Q 393.09 119.17 394.72 123.70
  Q 394.88 124.15 394.52 124.45
  Q 388.68 129.33 381.94 132.86
  A 1.46 1.46 0.0 0 0 382.10 135.52
  C 392.24 139.31 402.82 143.46 411.82 150.32
  C 420.39 156.85 429.44 165.43 436.91 174.07
  Q 438.86 176.32 441.43 180.20
  C 443.59 183.47 445.90 186.29 447.82 189.78
  Q 448.68 191.35 450.19 192.40
  Q 450.57 192.66 451.02 192.60
  Q 459.65 191.41 462.74 189.75
  Q 464.18 188.98 464.96 189.77
  Q 465.21 190.02 465.53 189.86
  Q 467.55 188.80 469.59 187.63
  Q 470.00 187.39 470.26 187.00
  Q 471.46 185.19 473.46 184.60
  Q 475.89 183.87 476.72 183.35
  Q 481.03 180.65 485.47 178.17
  Q 485.90 177.92 486.16 177.50
  Q 486.57 176.85 487.16 176.43
  Q 487.41 176.25 487.22 176.01
  Q 486.75 175.42 487.17 175.23
  C 494.74 186.55 500.90 199.33 505.48 211.75
  C 510.68 225.84 513.93 242.04 513.71 257.43
  L 501.91 264.08
  A 0.73 0.73 0.0 0 1 500.82 263.42
  Q 501.19 254.15 500.96 244.51
  Q 500.92 242.90 499.50 241.82
  A 0.29 0.29 0.0 0 0 499.08 242.20
  L 500.27 244.16
  A 0.22 0.21 -61.8 0 1 500.30 244.27
  Q 500.52 251.92 500.23 259.53
  C 500.15 261.90 501.51 264.35 498.60 266.03
  Q 487.04 272.72 481.27 275.77
  Q 479.63 276.64 478.10 276.06
  Q 480.20 275.77 478.57 273.12
  Q 478.31 272.69 478.34 272.19
  C 478.49 269.46 478.69 266.97 478.35 264.28
  Q 476.13 246.75 469.40 230.39
  Q 469.25 230.02 468.86 229.90
  Q 468.09 229.67 468.11 228.93
  Q 468.12 228.43 467.87 227.99
  Q 465.82 224.40 464.07 220.67
  Q 462.11 216.53 460.15 213.37
  Q 455.05 205.20 450.61 196.63
  C 449.80 195.05 448.18 193.27 447.11 191.53
  Q 439.52 179.14 429.07 169.27
  Q 421.97 162.56 413.93 156.20
  Q 402.10 146.82 389.49 142.13
  Q 381.79 139.27 372.30 138.93
  C 355.07 138.32 341.52 145.99 334.43 162.07
  Q 333.47 164.27 330.21 165.79
  A 0.79 0.79 0.0 0 0 329.76 166.52
  Q 329.79 168.23 329.21 169.79
  Q 328.39 172.02 328.30 173.39
  Q 328.07 177.07 327.57 178.50
  Q 326.63 181.19 327.69 182.84
  Q 327.93 183.22 327.72 183.62
  Q 326.47 185.99 327.65 189.00
  Q 326.27 187.98 325.96 183.19
  Q 326.66 180.50 326.79 177.41
  Q 327.00 172.48 327.12 171.61
  C 328.66 160.72 334.36 147.27 344.18 141.21
  C 354.58 134.79 365.19 128.81 375.60 122.41
  Q 383.68 117.46 392.85 114.87
  A 1.93 1.92 -9.4 0 0 394.25 112.92
  L 394.02 108.68
  Z
  M 393.75 120.43
  Q 393.73 120.00 393.35 120.19
  L 390.30 121.73
  A 0.48 0.47 -57.7 0 0 390.50 122.63
  L 393.15 122.69
  Q 393.86 122.71 393.83 121.99
  L 393.75 120.43
  Z
  M 494.34 236.14
  Q 495.10 235.95 496.08 235.77
  Q 496.41 235.71 496.23 235.42
  L 495.95 234.97
  Q 495.84 234.79 495.64 234.86
  C 493.56 235.67 488.37 237.70 488.93 240.48
  Q 489.04 241.01 489.23 240.51
  Q 490.55 237.11 494.34 236.14
  Z"
/>
<ellipse cx="0.00" cy="0.00" transform="translate(417.25,109.79) rotate(66.3)" rx="0.78" ry="0.62"/>
<ellipse cx="0.00" cy="0.00" transform="translate(417.14,112.96) rotate(56.5)" rx="1.12" ry="0.68"/>
<path d="
  M 416.38 127.03
  Q 415.89 126.19 416.79 126.55
  Q 417.52 126.85 417.87 127.49
  A 0.52 0.52 0.0 0 1 416.97 128.01
  L 416.38 127.03
  Z"
/>
<path d="
  M 595.50 130.09
  Q 595.66 166.38 595.52 203.00
  C 595.51 206.17 596.07 208.88 596.71 211.88
  Q 596.77 212.38 596.49 212.74
  Q 596.40 212.86 596.52 212.93
  Q 596.90 213.19 596.67 213.06
  Q 595.74 214.89 595.70 217.26
  Q 595.31 243.33 595.53 253.01
  Q 595.69 259.54 588.94 261.09
  Q 589.00 178.64 589.85 133.74
  Q 589.93 129.41 595.50 130.09
  Z"
/>
<path d="
  M 379.14 285.05
  L 382.03 290.17
  A 0.63 0.62 -29.6 0 1 381.79 291.02
  L 381.47 291.19
  A 0.95 0.94 58.1 0 1 380.23 290.90
  C 376.49 285.53 376.54 281.28 382.59 278.36
  Q 386.66 276.39 391.02 278.12
  Q 391.73 278.40 390.98 278.56
  L 387.64 279.27
  Q 387.17 279.37 386.70 279.27
  C 383.64 278.62 381.05 281.70 379.21 284.13
  A 0.84 0.83 -40.9 0 0 379.14 285.05
  Z"
/>
</g>
</svg>
