<svg width="572" height="160" viewBox="0 0 572 160" fill="none" xmlns="http://www.w3.org/2000/svg">
<path d="M255.03 74.52C261.27 46.41 302.83 45 307.89 73.78C307.943 74.0733 307.82 74.22 307.52 74.22L297.19 74.31C296.903 74.3166 296.73 74.18 296.67 73.9C295.403 68.3466 292.263 64.8866 287.25 63.52C258.23 55.59 257.1 111.34 286.26 105.2C291.653 104.067 295.133 100.647 296.7 94.94C296.78 94.6466 296.973 94.5 297.28 94.5H307.48C307.563 94.4991 307.646 94.5174 307.722 94.5534C307.797 94.5895 307.864 94.6423 307.916 94.7079C307.968 94.7735 308.004 94.8501 308.022 94.9319C308.04 95.0137 308.039 95.0986 308.02 95.18C305.84 104.08 301.05 110.1 293.65 113.24C282.86 117.83 269.4 115.75 261.44 106.68C253.93 98.12 252.58 85.57 255.03 74.52Z" fill="#C2C2C2"/>
<path d="M494.35 68.08C497.05 47.55 538.08 47.62 538.66 70.02C538.667 70.34 538.51 70.5 538.19 70.5H528.77C528.39 70.5 528.157 70.3166 528.07 69.95C525.99 61.22 514 60.45 508.18 64.64C502.53 68.7 506.09 76.04 512 77.5C523.3 80.3 540.7 83.17 539.6 99.14C538.95 108.65 530.16 114.57 521.07 115.32C507.54 116.43 494.25 113.19 492.37 97.48C492.36 97.3875 492.37 97.294 492.398 97.2056C492.426 97.1171 492.472 97.0358 492.534 96.9669C492.595 96.898 492.67 96.843 492.754 96.8056C492.838 96.7682 492.928 96.7493 493.02 96.75H502.75C503.143 96.75 503.373 96.9433 503.44 97.33C505.35 108.41 524.97 109.28 528.05 99.87C533.29 83.93 490.97 93.73 494.35 68.08Z" fill="#C2C2C2"/>
<path d="M330.33 99.98L325.42 114.52C325.397 114.587 325.354 114.645 325.297 114.686C325.239 114.727 325.171 114.75 325.1 114.75H313.93C313.876 114.75 313.823 114.737 313.775 114.712C313.727 114.687 313.686 114.651 313.655 114.607C313.623 114.563 313.603 114.512 313.595 114.459C313.588 114.406 313.593 114.351 313.61 114.3L335 53.98C335.023 53.9132 335.066 53.8551 335.123 53.8139C335.181 53.7727 335.249 53.7504 335.32 53.75H348.6C348.671 53.7504 348.739 53.7727 348.797 53.8139C348.854 53.8551 348.897 53.9132 348.92 53.98L370.31 114.3C370.328 114.351 370.333 114.406 370.325 114.459C370.317 114.512 370.297 114.563 370.265 114.607C370.234 114.651 370.193 114.687 370.145 114.712C370.097 114.737 370.044 114.75 369.99 114.75H358.86C358.789 114.75 358.721 114.727 358.663 114.686C358.606 114.645 358.563 114.587 358.54 114.52L353.61 99.98C353.587 99.9132 353.544 99.8551 353.487 99.8139C353.429 99.7727 353.361 99.7504 353.29 99.75H330.65C330.579 99.7504 330.511 99.7727 330.453 99.8139C330.396 99.8551 330.353 99.9132 330.33 99.98ZM333.63 90.26C333.611 90.3171 333.606 90.3778 333.615 90.4373C333.624 90.4968 333.647 90.5532 333.682 90.602C333.717 90.6508 333.764 90.6906 333.817 90.7181C333.871 90.7455 333.93 90.7599 333.99 90.76L349.96 90.73C350.02 90.7299 350.08 90.7155 350.133 90.6881C350.187 90.6606 350.233 90.6208 350.268 90.572C350.303 90.5232 350.326 90.4668 350.335 90.4073C350.344 90.3478 350.339 90.2871 350.32 90.23L342.29 66.54C342.265 66.4647 342.216 66.3993 342.152 66.3529C342.087 66.3066 342.01 66.2817 341.93 66.2817C341.851 66.2817 341.773 66.3066 341.709 66.3529C341.644 66.3993 341.596 66.4647 341.57 66.54L333.63 90.26Z" fill="#C2C2C2"/>
<path d="M412.45 91.1301L425.17 114.04C425.437 114.513 425.297 114.75 424.75 114.75H413.8C413.579 114.75 413.362 114.691 413.172 114.578C412.982 114.466 412.826 114.304 412.72 114.11L401.48 93.2401C401.2 92.7201 400.767 92.4601 400.18 92.4601H390.15C390.033 92.4601 389.921 92.5075 389.839 92.5919C389.756 92.6763 389.71 92.7908 389.71 92.9101L389.77 114.12C389.77 114.54 389.557 114.75 389.13 114.75H379.25C378.75 114.75 378.5 114.5 378.5 114V54.4601C378.5 54.0068 378.727 53.7768 379.18 53.7701C388.59 53.7101 402.51 52.3201 410.81 55.2101C426.49 60.6801 427.95 83.5601 412.7 90.3801C412.347 90.5401 412.263 90.7901 412.45 91.1301ZM389.75 63.3001L389.71 82.9201C389.71 82.9944 389.74 83.0656 389.792 83.1181C389.845 83.1706 389.916 83.2001 389.99 83.2001L401.75 83.2201C403.063 83.223 404.364 82.9994 405.579 82.5622C406.793 82.125 407.897 81.4827 408.828 80.672C409.758 79.8613 410.497 78.8981 411.002 77.8374C411.507 76.7767 411.768 75.6393 411.77 74.4901V71.8101C411.775 69.4897 410.726 67.2623 408.855 65.6176C406.983 63.973 404.442 63.0458 401.79 63.0401L390.03 63.0201C389.956 63.0201 389.885 63.0496 389.832 63.1021C389.779 63.1546 389.75 63.2259 389.75 63.3001Z" fill="#C2C2C2"/>
<path d="M433.489 54.0902C433.489 53.9814 433.532 53.8772 433.609 53.8003C433.686 53.7234 433.791 53.6802 433.899 53.6802H456.149C459.803 53.6802 463.42 54.3972 466.796 55.7902C470.171 57.1833 473.238 59.2251 475.821 61.7992C478.404 64.3732 480.454 67.429 481.852 70.7922C483.25 74.1553 483.969 77.7599 483.969 81.4002V87.0802C483.969 94.432 481.038 101.483 475.821 106.681C470.604 111.88 463.528 114.8 456.149 114.8H433.899C433.791 114.8 433.686 114.757 433.609 114.68C433.532 114.603 433.489 114.499 433.489 114.39V54.0902ZM444.569 63.6002L444.429 104.82C444.429 104.932 444.474 105.038 444.552 105.117C444.631 105.196 444.738 105.24 444.849 105.24L455.089 105.28C457.427 105.288 459.743 104.836 461.906 103.951C464.068 103.065 466.035 101.762 467.693 100.118C469.352 98.4734 470.67 96.5189 471.571 94.3659C472.473 92.213 472.941 89.9038 472.949 87.5702L472.969 81.0502C472.977 78.7166 472.525 76.4043 471.637 74.2453C470.75 72.0864 469.445 70.123 467.798 68.4673C466.151 66.8117 464.193 65.4961 462.036 64.5958C459.88 63.6955 457.567 63.2281 455.229 63.2202L444.989 63.1802C444.878 63.1802 444.771 63.2244 444.692 63.3032C444.614 63.382 444.569 63.4888 444.569 63.6002Z" fill="#C2C2C2"/>
<path d="M99.7196 76.6299L103.33 78.9699C103.477 79.0652 103.599 79.1943 103.686 79.3463C103.773 79.4984 103.823 79.6692 103.831 79.8443C103.839 80.0195 103.805 80.194 103.731 80.3532C103.658 80.5125 103.548 80.6519 103.41 80.7599L98.9896 84.2699C98.9076 84.3353 98.8418 84.4189 98.7975 84.5138C98.7531 84.6088 98.7316 84.7125 98.7345 84.8166C98.7374 84.9207 98.7647 85.0223 98.8143 85.1132C98.8638 85.2041 98.9341 85.2818 99.0196 85.3399L104.39 89.0799C104.703 89.2933 104.713 89.5233 104.42 89.7699L101.38 92.2699L85.9796 103.54C85.6544 103.777 85.2622 103.905 84.8596 103.905C84.457 103.905 84.0648 103.777 83.7396 103.54L53.2696 81.1999L50.7396 79.6499C50.4796 79.4899 50.3163 79.2633 50.2496 78.9699C50.1229 78.3766 50.3629 78.0499 50.9696 77.9899C51.311 77.9515 51.6277 77.7878 51.8596 77.5299C52.8463 76.3966 54.0263 75.5599 55.3996 75.0199C55.5926 74.9438 55.7615 74.8168 55.8882 74.6525C56.0149 74.4882 56.0948 74.2926 56.1194 74.0866C56.144 73.8805 56.1124 73.6717 56.0279 73.4821C55.9435 73.2926 55.8093 73.1294 55.6396 73.0099L51.5496 70.1299C51.1229 69.8233 51.0729 69.4666 51.3996 69.0599L52.7796 67.3199C52.9996 67.0533 53.2763 66.9533 53.6096 67.0199C54.3163 67.1599 54.8429 66.7399 55.1896 65.7599C58.7096 63.2466 62.1996 60.7099 65.6596 58.1499C66.9696 57.1899 68.0696 55.7699 70.0496 55.3299C70.423 55.2499 70.7729 55.3033 71.0996 55.4899C72.6996 56.4166 74.0663 57.6333 75.1996 59.1399C75.4075 59.4129 75.6945 59.6124 76.0196 59.7099C78.2296 60.3699 79.5196 62.1499 80.7696 63.0399C87.0763 67.5399 93.3929 72.0699 99.7196 76.6299ZM96.9196 83.8599C89.6129 78.5066 82.6563 73.3933 76.0496 68.5199C75.0996 67.8199 74.0796 66.6999 72.6196 66.1099C72.333 65.9899 72.0896 65.8199 71.8896 65.5999C70.7829 64.3866 69.5496 64.3233 68.1896 65.4099C64.7096 68.2033 61.2263 70.7499 57.7396 73.0499C57.6022 73.1414 57.4887 73.2645 57.4088 73.4089C57.329 73.5533 57.2853 73.7145 57.2813 73.8788C57.2774 74.043 57.3134 74.2054 57.3863 74.3519C57.4591 74.4984 57.5666 74.6247 57.6996 74.7199L83.6896 93.5799C84.042 93.8354 84.4665 93.9729 84.9027 93.9729C85.339 93.9729 85.7648 93.8354 86.1196 93.5799L96.9196 85.6599C97.7396 85.0599 97.7396 84.4599 96.9196 83.8599Z" fill="#C2C2C2" fill-opacity="0.733"/>
<path d="M116.77 90.0001L111.64 93.6401C111.568 93.6911 111.508 93.7588 111.466 93.8374C111.425 93.9161 111.403 94.0036 111.402 94.0925C111.401 94.1814 111.421 94.2693 111.461 94.3489C111.501 94.4285 111.559 94.4974 111.63 94.5501L116.73 98.2701C116.801 98.3221 116.858 98.39 116.897 98.4681C116.937 98.5463 116.957 98.6326 116.957 98.7201C116.957 98.8076 116.937 98.8938 116.897 98.972C116.858 99.0501 116.801 99.118 116.73 99.1701L85.1604 122.43C85.0645 122.5 84.949 122.538 84.8304 122.538C84.7118 122.538 84.5962 122.5 84.5004 122.43L38.1004 88.5101C38.0314 88.4586 37.9752 88.3919 37.9361 88.3151C37.8971 88.2383 37.8763 88.1536 37.8753 88.0675C37.8743 87.9814 37.8933 87.8963 37.9305 87.8187C37.9678 87.7411 38.0225 87.6731 38.0904 87.6201L43.0804 83.8001C43.1501 83.7472 43.2065 83.6787 43.245 83.6002C43.2835 83.5216 43.3031 83.435 43.3021 83.3475C43.3011 83.26 43.2796 83.174 43.2394 83.0963C43.1992 83.0186 43.1413 82.9514 43.0704 82.9001L38.0604 79.3601C37.9889 79.3096 37.9302 79.243 37.8891 79.1657C37.848 79.0885 37.8255 79.0026 37.8236 78.9151C37.8217 78.8276 37.8403 78.7408 37.8779 78.6618C37.9155 78.5828 37.9712 78.5137 38.0404 78.4601L43.0204 74.6301C43.0901 74.5772 43.1465 74.5087 43.185 74.4301C43.2235 74.3516 43.2431 74.265 43.2421 74.1775C43.2411 74.09 43.2196 74.004 43.1794 73.9263C43.1392 73.8486 43.0813 73.7814 43.0104 73.7301L37.9904 70.1201C37.9181 70.0682 37.8592 69.9999 37.8186 69.9208C37.778 69.8417 37.7568 69.754 37.7568 69.6651C37.7568 69.5761 37.778 69.4885 37.8186 69.4093C37.8592 69.3302 37.9181 69.2619 37.9904 69.2101L43.5504 65.1001C43.6221 65.0474 43.6802 64.9785 43.72 64.8989C43.7597 64.8193 43.7799 64.7314 43.7789 64.6425C43.778 64.5536 43.7558 64.4661 43.7143 64.3875C43.6728 64.3088 43.6132 64.2411 43.5404 64.1901L38.0204 60.3501C37.9475 60.299 37.8879 60.2313 37.8464 60.1527C37.8049 60.074 37.7828 59.9866 37.7818 59.8976C37.7808 59.8087 37.8011 59.7208 37.8408 59.6412C37.8806 59.5617 37.9387 59.4927 38.0104 59.4401L69.7004 36.1701C69.7962 36.1002 69.9118 36.0625 70.0304 36.0625C70.149 36.0625 70.2645 36.1002 70.3604 36.1701L116.61 69.9401C116.682 69.9906 116.741 70.0571 116.782 70.1344C116.823 70.2117 116.845 70.2975 116.847 70.385C116.849 70.4725 116.831 70.5593 116.793 70.6383C116.755 70.7173 116.7 70.7864 116.63 70.8401L111.29 75.0301C111.221 75.0837 111.166 75.1528 111.128 75.2318C111.09 75.3108 111.072 75.3976 111.074 75.4851C111.076 75.5726 111.098 75.6585 111.139 75.7357C111.18 75.813 111.239 75.8796 111.31 75.9301L116.72 79.8701C116.791 79.9221 116.848 79.99 116.887 80.0681C116.927 80.1463 116.947 80.2326 116.947 80.3201C116.947 80.4076 116.927 80.4939 116.887 80.572C116.848 80.6501 116.791 80.718 116.72 80.7701L111.62 84.5001C111.549 84.5527 111.491 84.6217 111.451 84.7012C111.411 84.7808 111.391 84.8687 111.392 84.9576C111.393 85.0466 111.415 85.134 111.456 85.2127C111.498 85.2913 111.558 85.359 111.63 85.4101L116.77 89.0901C116.843 89.1419 116.902 89.2102 116.942 89.2893C116.983 89.3685 117.004 89.4561 117.004 89.5451C117.004 89.634 116.983 89.7217 116.942 89.8008C116.902 89.8799 116.843 89.9482 116.77 90.0001ZM49.3404 60.9601L44.9504 64.2201C44.8576 64.29 44.7825 64.3809 44.7315 64.4851C44.6804 64.5894 44.6548 64.704 44.6567 64.8194C44.6587 64.9348 44.6881 65.0477 44.7427 65.1487C44.7973 65.2497 44.8753 65.3359 44.9704 65.4001L49.8204 68.7901C49.9241 68.8619 50.0065 68.9602 50.0589 69.075C50.1114 69.1897 50.132 69.3168 50.1188 69.443C50.1056 69.5693 50.0589 69.6902 49.9836 69.7934C49.9083 69.8965 49.8071 69.9782 49.6904 70.0301C47.5904 70.9234 45.8637 72.2334 44.5104 73.9601C44.2104 74.3401 44.257 74.6701 44.6504 74.9501L49.3604 78.3101C49.4465 78.3701 49.5161 78.4507 49.5632 78.5446C49.6103 78.6385 49.6334 78.7429 49.6304 78.8486C49.6275 78.9543 49.5986 79.0581 49.5462 79.1508C49.4939 79.2434 49.4198 79.3222 49.3304 79.3801L44.4204 82.5301C44.2837 82.6183 44.1711 82.7393 44.0928 82.882C44.0145 83.0247 43.973 83.1846 43.972 83.3474C43.971 83.5101 44.0106 83.6705 44.0871 83.8142C44.1636 83.9578 44.2747 84.0801 44.4104 84.1701L47.2304 86.0301C44.7237 87.0367 44.8037 88.2234 47.4704 89.5901C47.7637 89.7367 48.0037 89.9467 48.1904 90.2201C48.9304 91.3134 49.9504 92.0234 51.2504 92.3501C51.5975 92.4339 51.8985 92.6489 52.0904 92.9501C53.0704 94.4801 54.6904 94.8101 55.7804 95.8301C60.4804 100.22 66.8704 104.02 70.9704 107.18C74.8704 110.173 78.8037 113.123 82.7704 116.03C86.0004 118.39 87.0204 115.64 89.1304 114.11C93.717 110.783 98.317 107.47 102.93 104.17C105.204 102.543 107.334 100.74 109.32 98.7601C109.443 98.638 109.518 98.4757 109.531 98.3031C109.543 98.1305 109.494 97.959 109.39 97.8201L108.95 97.2201C108.784 96.9934 108.564 96.9134 108.29 96.9801C108.024 97.0467 107.74 97.0167 107.44 96.8901L110.22 95.0601C110.392 94.945 110.526 94.7818 110.605 94.5909C110.685 94.4001 110.706 94.1901 110.666 93.9872C110.627 93.7843 110.528 93.5976 110.383 93.4505C110.238 93.3033 110.053 93.2023 109.85 93.1601C109.217 93.0334 108.784 92.6667 108.55 92.0601C108.525 91.994 108.486 91.9339 108.436 91.884C108.386 91.834 108.326 91.7951 108.26 91.7701C107.174 91.3301 106.224 90.7301 105.41 89.9701C105.358 89.9196 105.318 89.8585 105.292 89.7908C105.266 89.7232 105.255 89.6508 105.26 89.5785C105.265 89.5062 105.285 89.4358 105.32 89.3722C105.354 89.3086 105.402 89.2533 105.46 89.2101L110.35 85.7401C110.468 85.656 110.564 85.5443 110.629 85.4149C110.694 85.2854 110.727 85.142 110.724 84.9971C110.721 84.8523 110.682 84.7103 110.612 84.5836C110.542 84.4569 110.442 84.3493 110.32 84.2701L104.99 80.8601C104.866 80.7784 104.763 80.6674 104.691 80.5367C104.619 80.4059 104.58 80.2595 104.578 80.1104C104.576 79.9612 104.611 79.8139 104.679 79.6813C104.748 79.5487 104.848 79.435 104.97 79.3501L109.89 76.0301C110.217 75.8101 110.234 75.5667 109.94 75.3001L107.39 73.0001C109.377 70.5534 108.257 68.2101 104.03 65.9701C101.88 64.8401 100.27 63.2801 98.5104 62.2201C94.7904 59.9701 91.8504 56.9001 87.6904 54.3301C86.0004 53.2901 84.6204 51.6301 82.6804 50.5701C79.3704 48.7601 77.4004 46.1801 74.0904 44.3901C72.4004 43.4701 71.0704 41.4601 68.3004 42.0601C68.0137 42.1201 67.777 42.2634 67.5904 42.4901C66.617 43.6967 65.5004 44.7001 64.2404 45.5001C61.9304 46.9801 60.1404 49.2101 57.2904 50.0201C57.017 50.1001 56.7937 50.2567 56.6204 50.4901C55.7737 51.6501 54.6937 52.4601 53.3804 52.9201C53.0604 53.0334 52.7937 53.2167 52.5804 53.4701C50.6937 55.6501 48.5037 57.4434 46.0104 58.8501C45.6437 59.0567 45.6004 59.3167 45.8804 59.6301L46.9404 60.8401C47.1004 61.0267 47.3037 61.1134 47.5504 61.1001L49.3404 60.9601Z" fill="#C2C2C2" fill-opacity="0.404"/>
<path d="M132.84 50.8001C132.84 50.6914 132.883 50.5871 132.96 50.5102C133.037 50.4333 133.141 50.3901 133.25 50.3901L157.31 50.4701C164.813 50.4971 171.998 53.4401 177.284 58.6517C182.571 63.8633 185.526 70.9166 185.5 78.2601L185.48 83.9601C185.467 87.5966 184.723 91.1949 183.289 94.5495C181.855 97.9041 179.761 100.949 177.124 103.511C174.488 106.073 171.362 108.102 167.924 109.481C164.487 110.861 160.805 111.564 157.09 111.55L133.03 111.47C132.921 111.47 132.817 111.427 132.74 111.35C132.663 111.273 132.62 111.169 132.62 111.06L132.84 50.8001ZM147.52 63.3401L147.46 98.6201C147.46 98.7156 147.498 98.8072 147.566 98.8747C147.633 98.9422 147.725 98.9801 147.82 98.9801L156.14 98.9901C160 98.9953 163.704 97.4392 166.438 94.664C169.172 91.8888 170.712 88.1215 170.72 84.1901L170.74 77.8501C170.744 75.9017 170.371 73.9717 169.642 72.1702C168.914 70.3688 167.844 68.7312 166.493 67.3512C165.143 65.9712 163.539 64.8757 161.773 64.1274C160.007 63.3791 158.113 62.9927 156.2 62.9901L147.88 62.9801C147.785 62.9801 147.693 63.0181 147.626 63.0856C147.558 63.1531 147.52 63.2447 147.52 63.3401Z" fill="#909090"/>
<path d="M209.54 99.5H236.86C236.963 99.5 237.063 99.5411 237.136 99.6142C237.209 99.6874 237.25 99.7866 237.25 99.89V111.11C237.25 111.213 237.209 111.313 237.136 111.386C237.063 111.459 236.963 111.5 236.86 111.5H194.64C194.537 111.5 194.437 111.459 194.364 111.386C194.291 111.313 194.25 111.213 194.25 111.11V50.89C194.25 50.7866 194.291 50.6874 194.364 50.6142C194.437 50.5411 194.537 50.5 194.64 50.5H236.86C236.963 50.5 237.063 50.5411 237.136 50.6142C237.209 50.6874 237.25 50.7866 237.25 50.89L237.24 61.84C237.24 61.9434 237.199 62.0426 237.126 62.1158C237.053 62.1889 236.953 62.23 236.85 62.23L209.56 62.51C209.457 62.51 209.357 62.5511 209.284 62.6242C209.211 62.6974 209.17 62.7966 209.17 62.9L209.29 74.4C209.29 74.5034 209.331 74.6026 209.404 74.6758C209.477 74.7489 209.577 74.79 209.68 74.79L234.61 74.73C234.713 74.73 234.813 74.7711 234.886 74.8442C234.959 74.9174 235 75.0166 235 75.12V86.61C235 86.7134 234.959 86.8126 234.886 86.8858C234.813 86.9589 234.713 87 234.61 87H209.69C209.588 87 209.491 87.0397 209.418 87.1107C209.345 87.1817 209.303 87.2783 209.3 87.38L209.15 99.1C209.149 99.1521 209.158 99.2038 209.177 99.2523C209.196 99.3008 209.224 99.345 209.261 99.3823C209.297 99.4195 209.34 99.4492 209.388 99.4694C209.436 99.4896 209.488 99.5 209.54 99.5Z" fill="#909090"/>
<path d="M107.39 73L109.94 75.3C110.233 75.5667 110.217 75.81 109.89 76.03L104.97 79.35C104.847 79.4349 104.747 79.5486 104.679 79.6812C104.611 79.8138 104.576 79.9612 104.578 80.1103C104.58 80.2595 104.619 80.4059 104.69 80.5366C104.762 80.6673 104.865 80.7784 104.99 80.86L110.32 84.27C110.441 84.3492 110.542 84.4568 110.612 84.5835C110.682 84.7102 110.72 84.8522 110.723 84.9971C110.726 85.1419 110.694 85.2853 110.629 85.4148C110.564 85.5443 110.468 85.6559 110.35 85.74L105.46 89.21C105.402 89.2532 105.354 89.3085 105.319 89.3721C105.285 89.4358 105.264 89.5061 105.259 89.5784C105.255 89.6507 105.266 89.7232 105.292 89.7908C105.318 89.8584 105.358 89.9195 105.41 89.97C106.223 90.73 107.173 91.33 108.26 91.77C108.326 91.7951 108.386 91.8339 108.436 91.8839C108.486 91.9339 108.525 91.9939 108.55 92.06C108.783 92.6666 109.217 93.0333 109.85 93.16C110.052 93.2022 110.238 93.3033 110.383 93.4504C110.528 93.5975 110.627 93.7842 110.666 93.9871C110.706 94.19 110.684 94.4 110.605 94.5909C110.526 94.7817 110.392 94.9449 110.22 95.06L107.44 96.89L85.8201 112.73C85.5183 112.951 85.1541 113.07 84.7801 113.07C84.4061 113.07 84.0418 112.951 83.7401 112.73L47.2301 86.03L44.4101 84.17C44.2744 84.08 44.1633 83.9577 44.0868 83.8141C44.0103 83.6705 43.9707 83.51 43.9717 83.3473C43.9727 83.1845 44.0142 83.0246 44.0925 82.8819C44.1708 82.7392 44.2833 82.6183 44.4201 82.53L49.3301 79.38C49.4195 79.3221 49.4936 79.2433 49.5459 79.1507C49.5982 79.058 49.6272 78.9543 49.6301 78.8486C49.6331 78.7429 49.61 78.6384 49.5629 78.5445C49.5158 78.4506 49.4462 78.3701 49.3601 78.31L44.6501 74.95C44.2567 74.67 44.2101 74.34 44.5101 73.96C45.8634 72.2333 47.5901 70.9233 49.6901 70.03C49.8068 69.9782 49.908 69.8965 49.9833 69.7933C50.0586 69.6901 50.1052 69.5692 50.1185 69.443C50.1317 69.3167 50.1111 69.1897 50.0586 69.0749C50.0062 68.9602 49.9238 68.8618 49.8201 68.79L44.9701 65.4C44.875 65.3358 44.7969 65.2496 44.7424 65.1486C44.6878 65.0476 44.6583 64.9347 44.6564 64.8193C44.6544 64.7039 44.6801 64.5893 44.7311 64.4851C44.7822 64.3808 44.8573 64.2899 44.9501 64.22L49.3401 60.96L68.8701 46.57C69.7101 45.95 70.5501 45.95 71.3901 46.57L107.39 73ZM55.1901 65.76C54.8434 66.74 54.3167 67.16 53.6101 67.02C53.2767 66.9533 53.0001 67.0533 52.7801 67.32L51.4001 69.06C51.0734 69.4666 51.1234 69.8233 51.5501 70.13L55.6401 73.01C55.8097 73.1295 55.9439 73.2926 56.0284 73.4822C56.1128 73.6717 56.1444 73.8806 56.1198 74.0866C56.0952 74.2926 56.0153 74.4882 55.8886 74.6525C55.7619 74.8168 55.5931 74.9438 55.4001 75.02C54.0267 75.56 52.8467 76.3966 51.8601 77.53C51.6281 77.7879 51.3115 77.9515 50.9701 77.99C50.3634 78.05 50.1234 78.3766 50.2501 78.97C50.3167 79.2633 50.4801 79.49 50.7401 79.65L53.2701 81.2L52.2201 81.26C51.9652 81.2764 51.7209 81.3675 51.5175 81.5219C51.3141 81.6764 51.1608 81.8873 51.0765 82.1283C50.9922 82.3694 50.9808 82.6299 51.0437 82.8774C51.1066 83.1249 51.241 83.3484 51.4301 83.52C54.7234 86.48 58.2601 89.0966 62.0401 91.37C62.3267 91.5367 62.5434 91.7666 62.6901 92.06C62.8034 92.2866 63.0034 92.4967 63.2901 92.69C67.9301 95.7433 74.0667 100.197 81.7001 106.05C84.3334 108.07 86.4934 107.757 88.1801 105.11C88.3601 104.83 88.6101 104.72 88.9301 104.78C89.3434 104.847 89.6367 104.723 89.8101 104.41C89.9434 104.17 90.1267 103.977 90.3601 103.83C92.5667 102.437 94.7001 100.927 96.7601 99.3C98.5601 97.87 100.88 96.66 102.56 94.24C102.74 93.98 102.763 93.7066 102.63 93.42C102.417 92.9533 102 92.57 101.38 92.27L104.42 89.77C104.713 89.5233 104.703 89.2933 104.39 89.08L99.0201 85.34C98.9346 85.2818 98.8642 85.2041 98.8147 85.1132C98.7652 85.0223 98.7379 84.9207 98.7349 84.8166C98.732 84.7125 98.7536 84.6088 98.7979 84.5139C98.8422 84.4189 98.908 84.3354 98.9901 84.27L103.41 80.76C103.548 80.652 103.658 80.5125 103.732 80.3533C103.805 80.194 103.839 80.0195 103.831 79.8444C103.824 79.6692 103.774 79.4985 103.687 79.3464C103.6 79.1943 103.477 79.0652 103.33 78.97L99.7201 76.63C100.7 76.9166 101.563 76.5567 102.31 75.55C102.477 75.3167 102.447 75.1133 102.22 74.94C99.7801 73.0933 94.8734 69.4466 87.5001 64C84.7901 61.99 81.8501 60.77 79.6401 58.35C77.0501 55.51 73.5001 54.38 70.5101 52.23C70.2701 52.0566 70.0001 51.9466 69.7001 51.9C68.9067 51.7733 68.4301 51.9266 68.2701 52.36C68.1501 52.6933 67.9334 52.94 67.6201 53.1C65.4001 54.2466 63.3967 55.7366 61.6101 57.57C61.3701 57.8166 61.0801 57.9633 60.7401 58.01C59.6934 58.1566 58.9267 58.7266 58.4401 59.72C58.2801 60.0466 58.0501 60.3133 57.7501 60.52L52.9201 63.83C52.6601 64.01 52.5867 64.2466 52.7001 64.54C53.1467 65.7466 53.9767 66.1533 55.1901 65.76Z" fill="#C2C2C2" fill-opacity="0.612"/>
<path d="M107.39 73.0001L71.3901 46.5701C70.5501 45.9501 69.7101 45.9501 68.8701 46.5701L49.3401 60.9601L47.5501 61.1001C47.3034 61.1134 47.1001 61.0268 46.9401 60.8401L45.8801 59.6301C45.6001 59.3168 45.6434 59.0568 46.0101 58.8501C48.5034 57.4434 50.6934 55.6501 52.5801 53.4701C52.7934 53.2168 53.0601 53.0334 53.3801 52.9201C54.6934 52.4601 55.7734 51.6501 56.6201 50.4901C56.7934 50.2568 57.0168 50.1001 57.2901 50.0201C60.1401 49.2101 61.9301 46.9801 64.2401 45.5001C65.5001 44.7001 66.6168 43.6968 67.5901 42.4901C67.7768 42.2634 68.0134 42.1201 68.3001 42.0601C71.0701 41.4601 72.4001 43.4701 74.0901 44.3901C77.4001 46.1801 79.3701 48.7601 82.6801 50.5701C84.6201 51.6301 86.0001 53.2901 87.6901 54.3301C91.8501 56.9001 94.7901 59.9701 98.5101 62.2201C100.27 63.2801 101.88 64.8401 104.03 65.9701C108.257 68.2101 109.377 70.5534 107.39 73.0001Z" fill="#380339" fill-opacity="0.337"/>
<path d="M47.2301 86.0303L83.7401 112.73C84.0418 112.951 84.4061 113.07 84.7801 113.07C85.1541 113.07 85.5183 112.951 85.8201 112.73L107.44 96.8903C107.74 97.0169 108.023 97.0469 108.29 96.9803C108.563 96.9136 108.783 96.9936 108.95 97.2203L109.39 97.8203C109.493 97.9592 109.543 98.1307 109.53 98.3033C109.517 98.476 109.443 98.6382 109.32 98.7603C107.333 100.74 105.203 102.544 102.93 104.17C98.3167 107.47 93.7167 110.784 89.1301 114.11C87.0201 115.64 86.0001 118.39 82.7701 116.03C78.8034 113.124 74.8701 110.174 70.9701 107.18C66.8701 104.02 60.4801 100.22 55.7801 95.8303C54.6901 94.8103 53.0701 94.4803 52.0901 92.9503C51.8982 92.6491 51.5971 92.4341 51.2501 92.3503C49.9501 92.0236 48.9301 91.3136 48.1901 90.2203C48.0034 89.9469 47.7634 89.7369 47.4701 89.5903C44.8034 88.2236 44.7234 87.0369 47.2301 86.0303Z" fill="#380339" fill-opacity="0.337"/>
<path d="M96.9198 83.8598C97.7398 84.4598 97.7398 85.0598 96.9198 85.6598L86.1198 93.5798C85.765 93.8352 85.3392 93.9727 84.9029 93.9727C84.4667 93.9727 84.0422 93.8352 83.6898 93.5798L57.6998 74.7198C57.5669 74.6245 57.4593 74.4982 57.3865 74.3517C57.3136 74.2052 57.2776 74.0428 57.2815 73.8786C57.2855 73.7143 57.3292 73.5531 57.4091 73.4087C57.4889 73.2644 57.6024 73.1412 57.7398 73.0498C61.2265 70.7498 64.7098 68.2031 68.1898 65.4098C69.5498 64.3231 70.7832 64.3864 71.8898 65.5998C72.0898 65.8198 72.3332 65.9898 72.6198 66.1098C74.0798 66.6998 75.0998 67.8198 76.0498 68.5198C82.6565 73.3931 89.6132 78.5064 96.9198 83.8598Z" fill="#C2C2C2" fill-opacity="0.82"/>
<path d="M99.72 76.6299C93.3934 72.0699 87.0767 67.5399 80.77 63.0399C79.52 62.1499 78.23 60.3699 76.02 59.7099C75.695 59.6124 75.4079 59.4129 75.2 59.1399C74.0667 57.6332 72.7 56.4166 71.1 55.4899C70.7734 55.3032 70.4234 55.2499 70.05 55.3299C68.07 55.7699 66.97 57.1899 65.66 58.1499C62.2 60.7099 58.71 63.2466 55.19 65.7599C53.9767 66.1532 53.1467 65.7466 52.7 64.5399C52.5867 64.2466 52.66 64.0099 52.92 63.8299L57.75 60.5199C58.05 60.3132 58.28 60.0466 58.44 59.7199C58.9267 58.7266 59.6934 58.1566 60.74 58.0099C61.08 57.9632 61.37 57.8166 61.61 57.5699C63.3967 55.7366 65.4 54.2466 67.62 53.0999C67.9334 52.9399 68.15 52.6932 68.27 52.3599C68.43 51.9266 68.9067 51.7732 69.7 51.8999C70 51.9466 70.27 52.0566 70.51 52.2299C73.5 54.3799 77.05 55.5099 79.64 58.3499C81.85 60.7699 84.79 61.9899 87.5 63.9999C94.8734 69.4466 99.78 73.0932 102.22 74.9399C102.447 75.1132 102.477 75.3166 102.31 75.5499C101.563 76.5566 100.7 76.9166 99.72 76.6299Z" fill="#C2C2C2" fill-opacity="0.561"/>
<path d="M53.2703 81.1997L83.7403 103.54C84.0655 103.777 84.4577 103.905 84.8603 103.905C85.2629 103.905 85.6551 103.777 85.9803 103.54L101.38 92.2697C102 92.5697 102.417 92.953 102.63 93.4197C102.764 93.7064 102.74 93.9797 102.56 94.2397C100.88 96.6597 98.5603 97.8697 96.7603 99.2997C94.7003 100.926 92.5669 102.436 90.3603 103.83C90.1269 103.976 89.9436 104.17 89.8103 104.41C89.6369 104.723 89.3436 104.846 88.9303 104.78C88.6103 104.72 88.3603 104.83 88.1803 105.11C86.4936 107.756 84.3336 108.07 81.7003 106.05C74.0669 100.196 67.9303 95.743 63.2903 92.6897C63.0036 92.4964 62.8036 92.2864 62.6903 92.0597C62.5436 91.7664 62.3269 91.5364 62.0403 91.3697C58.2603 89.0964 54.7236 86.4797 51.4303 83.5197C51.2412 83.3481 51.1068 83.1246 51.0439 82.8771C50.9811 82.6296 50.9925 82.3691 51.0767 82.128C51.161 81.887 51.3144 81.6761 51.5177 81.5217C51.7211 81.3673 51.9655 81.2761 52.2203 81.2597L53.2703 81.1997Z" fill="#C2C2C2" fill-opacity="0.561"/>
</svg>
