<?xml version="1.0" encoding="utf-8"?>
<!-- Generator: Adobe Illustrator 26.0.1, SVG Export Plug-In . SVG Version: 6.00 Build 0)  -->
<svg version="1.1" id="Layer_1" xmlns="http://www.w3.org/2000/svg" xmlns:xlink="http://www.w3.org/1999/xlink" x="0px" y="0px"
	 viewBox="0 0 64 64" style="enable-background:new 0 0 64 64;" xml:space="preserve">
<style type="text/css">
	.st0{fill:#D7E7FF;}
	.st1{fill:none;}
	.st2{fill:#020553;}
</style>
<path class="st0" d="M22.7,51.2c-0.3,0-0.6,0-0.9,0c-1.8,0-3.6-0.4-5.3-1.1c-1.6-0.7-3.1-1.7-4.3-2.9s-2.2-2.7-2.9-4.3
	c-0.7-1.7-1.1-3.5-1.1-5.3s0.4-3.6,1.1-5.3c0.7-1.6,1.7-3.1,2.9-4.3c1.3-1.3,2.7-2.2,4.3-2.9c1.7-0.7,3.4-1.1,5.3-1.1h0
	c1.2,0,2.3,0.1,3.4,0.4c0.7,0.2,1.3,0.4,1.9,0.7c1.6,0.7,3.1,1.7,4.3,2.9c0.9,0.9,1.6,1.8,2.2,2.8c0.3,0.5,0.5,1,0.8,1.5
	c0.3,0.6,0.5,1.3,0.6,1.9c0.3,1.1,0.4,2.2,0.4,3.4S35.3,39.9,35,41c-0.2,0.6-0.4,1.3-0.6,1.9c-0.2,0.5-0.5,1-0.8,1.5
	c-0.6,1-1.3,2-2.2,2.8c-1.3,1.3-2.7,2.2-4.3,2.9c-0.2,0.1-0.5,0.2-0.7,0.3C25.2,50.9,24,51.1,22.7,51.2z"/>
<g>
	<rect x="1.3" y="1.8" class="st1" width="61.4" height="61.4"/>
	<g>
		<path class="st2" d="M55.9,23.1c2-1.2,3.4-3.4,3.4-5.9v-6.8H25.2v6.8c0,1.2,0.3,2.4,0.9,3.4h-4.3h0c-9.4,0-17,7.6-17,17.1
			c0,9.4,7.6,17.1,17.1,17.1c1.4,0,2.9-0.2,4.2-0.5c0.8,0.3,1.7,0.5,2.6,0.5h20.5c3.8,0,6.8-3.1,6.8-6.8v-4.3c2-1.2,3.4-3.4,3.4-5.9
			v-6.8h-4.3c0.6-1,0.9-2.2,0.9-3.4V23.1z M28.6,17.2v-3.4h27.3v3.4c0,1.9-1.5,3.4-3.4,3.4H32C30.1,20.6,28.6,19,28.6,17.2z
			 M22.7,51.2c-0.3,0-0.6,0-0.9,0c-1.8,0-3.6-0.4-5.3-1.1c-1.6-0.7-3.1-1.7-4.3-2.9s-2.2-2.7-2.9-4.3c-0.7-1.7-1.1-3.5-1.1-5.3
			s0.4-3.6,1.1-5.3c0.7-1.6,1.7-3.1,2.9-4.3c1.3-1.3,2.7-2.2,4.3-2.9c1.7-0.7,3.4-1.1,5.3-1.1h0c1.2,0,2.3,0.1,3.4,0.4
			c0.7,0.2,1.3,0.4,1.9,0.7c1.6,0.7,3.1,1.7,4.3,2.9c0.9,0.9,1.6,1.8,2.2,2.8c0.3,0.5,0.5,1,0.8,1.5c0.3,0.6,0.5,1.3,0.6,1.9
			c0.3,1.1,0.4,2.2,0.4,3.4S35.3,39.9,35,41c-0.2,0.6-0.4,1.3-0.6,1.9c-0.2,0.5-0.5,1-0.8,1.5c-0.6,1-1.3,2-2.2,2.8
			c-1.3,1.3-2.7,2.2-4.3,2.9c-0.2,0.1-0.5,0.2-0.7,0.3C25.2,50.9,24,51.1,22.7,51.2z M52.5,47.8c0,1.9-1.5,3.4-3.4,3.4H32
			c2.3-1.8,4.2-4.1,5.4-6.8h15.1V47.8z M55.9,34.2v3.4c0,1.9-1.5,3.4-3.4,3.4h-14c0.2-1.1,0.3-2.2,0.3-3.4s-0.1-2.3-0.3-3.4H49H55.9
			z M37.4,30.8c-1.2-2.7-3.1-5.1-5.4-6.8h20.4v3.4c0,1.9-1.5,3.4-3.4,3.4H37.4z"/>
		<path class="st2" d="M27.7,41c0-0.1,0-0.2,0-0.3c0-1.6-0.6-2.8-1.9-3.7c-0.2-0.1-0.4-0.3-0.7-0.4c-0.9-0.5-2-0.7-2.9-0.9
			c-1.5-0.4-2.6-0.6-2.6-1.5c0-0.8,0.7-1.2,1.8-1.2c1.2,0,2,0.7,2,1.8l0,0.2h1.7h2v-0.2c0-0.3,0-0.5,0-0.8c-0.1-0.9-0.4-1.7-0.9-2.4
			c-0.2-0.3-0.5-0.6-0.8-0.8c-0.6-0.5-1.3-0.8-2.1-1v-2.6h-1.6H20v2.6c-1.1,0.3-2.1,0.8-2.8,1.6c-0.8,0.8-1.2,1.9-1.2,3
			c0,1.5,0.6,2.7,1.8,3.5c1,0.7,2.3,1,3.5,1.3c1.5,0.4,2.8,0.7,2.8,1.6c0,0.1,0,0.2,0,0.3c-0.2,0.7-1,1.2-2.1,1.2c0,0-0.1,0-0.1,0
			c-1.4,0-2.3-0.8-2.3-2V40h-3.6v0.2c0,2.5,1.6,4.6,4.1,5.2v2.6h1.8h1.6v-2.5c0.7-0.1,1.3-0.4,1.8-0.7c0.2-0.1,0.4-0.3,0.6-0.4
			c0.7-0.5,1.2-1.1,1.5-1.9C27.5,42.1,27.7,41.6,27.7,41z"/>
	</g>
</g>
</svg>
