<svg width="55" height="55" viewBox="0 0 55 55" fill="none" xmlns="http://www.w3.org/2000/svg">
<path d="M42.7778 14.514V10.6946H37.6852L27.5 3.05566L17.3148 10.6946H12.2696V14.4783L3.05554 21.389V51.9445H42.7778C45.2089 51.9445 47.5405 50.9788 49.2596 49.2597C50.9787 47.5406 51.9444 45.209 51.9444 42.7779V21.389L42.7778 14.514ZM48.8889 22.9168V23.6807L42.7778 28.264V18.3334L48.8889 22.9168ZM27.5 6.87511L32.5926 10.6946H22.4074L27.5 6.87511ZM18.3333 13.7501H39.7222V30.5557L27.5 39.7223L15.3251 30.5913V13.7501H18.3333ZM6.1111 22.9168L12.2696 18.2978V28.2996L6.1111 23.6807V22.9168ZM47.0988 47.0989C46.5328 47.6683 45.8594 48.1196 45.1176 48.4269C44.3759 48.7341 43.5806 48.8912 42.7778 48.889H6.1111V27.5001L12.2696 32.1191L15.3251 34.4108L22.4074 39.7223L26.4815 42.7779L27.5 43.5418L28.5185 42.7779L32.5926 39.7223L39.7222 34.3751L42.7778 32.0834L48.8889 27.5001V42.7779C48.8911 43.5807 48.734 44.376 48.4268 45.1178C48.1195 45.8595 47.6681 46.5329 47.0988 47.0989Z" fill="#020553"/>
<path d="M25.984 31.7442L26.0513 31.7646V33.605H28.9963V31.8012L29.0549 31.7865C30.9473 31.2859 32.17 29.834 32.17 28.0877C32.17 25.1849 29.7098 24.5799 27.9136 24.1379C26.67 23.8323 25.9081 23.6159 25.9081 23.0445C25.9081 22.4889 26.3981 22.1569 27.219 22.1569C28.1356 22.1569 28.7345 22.6865 28.7498 23.5059L28.7539 23.731H31.7977V23.5018C31.7977 21.6084 30.7792 20.1468 29.0676 19.5917L28.9963 19.5698V17.6968H26.0513V19.4792L25.9957 19.4924C24.1736 19.9477 22.9962 21.3497 22.9962 23.0639C22.9962 24.2825 23.4545 25.1859 24.4018 25.8261C25.1977 26.3654 26.2142 26.6277 27.1105 26.8599C28.4208 27.1985 29.2239 27.4394 29.2239 28.0897C29.2239 28.7222 28.568 29.147 27.5913 29.147C26.507 29.147 25.8088 28.5593 25.8088 27.6497V27.4206H22.8796V27.6497C22.8707 28.58 23.1727 29.4865 23.7377 30.2256C24.2862 30.938 25.0638 31.4636 25.984 31.7442Z" fill="#020553"/>
<path d="M48.8888 22.9168V23.6807L42.7777 28.264V18.3335L48.8888 22.9168Z" fill="#D7E7FF"/>
<path d="M27.5001 6.875L32.5927 10.6944H22.4075L27.5001 6.875Z" fill="#D7E7FF"/>
<path d="M6.11108 22.9168L12.2696 18.2979V28.2997L6.11108 23.6807V22.9168Z" fill="#D7E7FF"/>
</svg>
