<svg width="250" height="69" viewBox="0 0 250 69" fill="none" xmlns="http://www.w3.org/2000/svg">
<mask id="mask0_1_12760" style="mask-type:luminance" maskUnits="userSpaceOnUse" x="7" y="6" width="61" height="53">
<path d="M7.21785 11.5248C7.11554 19.8119 7.11554 25.2426 7.21785 27.8168C7.27395 29.2327 7.81026 30.7624 8.82676 32.4059C8.91587 32.5512 8.94557 32.7063 8.91587 32.8713C8.88286 33.0297 8.92082 33.1716 9.02973 33.297C10.0033 34.4125 11.0924 35.3812 12.2971 36.203C16.9505 39.3812 23.1634 37.6782 27.1881 34.0941C27.5512 33.7475 28.0099 33.2954 28.5644 32.7376C28.9769 32.3218 29.3301 31.7987 29.6238 31.1683C30.9802 28.2508 33.0066 26.0726 35.703 24.6337C43.0545 20.7178 51.4208 25.5644 55.5545 31.6485C55.6997 31.8597 55.6518 31.9208 55.4109 31.8317C52.0891 30.5941 48.8317 32.9257 46.7376 35.6535C41.4258 41.6584 43.7178 50.9852 49.5099 55.5495C53.7426 58.8861 57.5792 58.8713 63.1535 58.396C64.4555 58.2822 65.1337 57.6733 65.9307 56.7525C66.8119 55.6172 67.2096 53.9852 67.1238 51.8564C66.6683 40.8861 67.2129 25.5 67.0495 12.3465C67.0396 11.2937 66.8383 10.2772 66.4456 9.29704C66.4117 9.20944 66.3579 9.13079 66.2884 9.06724C66.2188 9.0037 66.1354 8.95697 66.0446 8.9307C65.4769 8.75908 65.0512 8.4175 64.7673 7.90595C64.6878 7.76236 64.5592 7.65317 64.406 7.59902C63.5198 7.29209 62.7178 6.93565 61.7525 6.93565C45.6832 6.92245 29.6188 6.9241 13.5594 6.9406C10.3218 6.94555 8.2327 8.48516 7.21785 11.5248Z" fill="white"/>
</mask>
<g mask="url(#mask0_1_12760)">
<path d="M65.9307 56.7525L64.7129 55.1782C64.6072 55.0429 64.4703 54.9769 64.302 54.9802C54.2376 55.099 46.9505 48.5099 47.0445 38.2426C47.0544 37.3267 47.8515 36.4654 46.7376 35.6535" stroke="#67AFFF" stroke-width="2"/>
<path d="M27.1881 34.0941C21.9109 33.5726 17.604 31.3531 14.2673 27.4357C11.406 24.0792 9.61387 20.9654 8.87625 16.6881C8.56932 14.9027 8.01651 13.1815 7.21783 11.5248" stroke="#67AFFF" stroke-width="2"/>
</g>
<path d="M89.6485 20.297C89.6664 20.3347 89.6949 20.3663 89.7305 20.3879C89.7661 20.4095 89.8073 20.4202 89.849 20.4186C89.8906 20.417 89.9309 20.4032 89.9648 20.379C89.9986 20.3547 90.0247 20.3211 90.0396 20.2822C90.2409 19.7574 90.6254 19.4224 91.1931 19.2772C91.2791 19.2556 91.3588 19.2138 91.4259 19.1554C91.493 19.0969 91.5455 19.0233 91.5792 18.9406C91.7145 18.6205 91.8779 18.4059 92.0693 18.297C94.6271 16.8383 97.1386 16.8878 99.604 18.4455C99.7558 18.5412 99.8696 18.67 99.9455 18.8317L100.045 19.0347C100.101 19.1568 100.195 19.231 100.327 19.2574C100.865 19.3597 101.267 19.6502 101.535 20.1287C103.951 24.4505 105.02 31.3267 102.193 35.7772C102.111 35.9059 102.058 36.0462 102.035 36.198L101.906 37.0941C101.897 37.1496 101.875 37.2022 101.842 37.2477C101.81 37.2932 101.767 37.3304 101.718 37.3564C100.843 37.8152 100.188 38.4752 99.7525 39.3366C99.67 39.4983 99.538 39.5825 99.3564 39.5891C98.835 39.6056 98.4686 39.6535 98.2574 39.7327C95.0033 40.9406 92.1964 40.3333 89.8366 37.9109C89.8232 37.8961 89.8056 37.886 89.7861 37.8819C89.7667 37.8778 89.7463 37.8799 89.7276 37.8879C89.709 37.8959 89.6929 37.9094 89.6814 37.9268C89.6699 37.9441 89.6637 37.9645 89.6634 37.9851L89.7574 49.5495C89.7574 49.7673 89.6502 49.8762 89.4356 49.8762H82.5495C82.302 49.8762 82.1782 49.7525 82.1782 49.5049V17.9455C82.1782 17.8799 82.2043 17.8169 82.2507 17.7705C82.2971 17.7241 82.3601 17.698 82.4257 17.698H88.1287C88.207 17.6979 88.2839 17.7202 88.3504 17.7622C88.417 17.8043 88.4705 17.8644 88.505 17.9356L89.6485 20.297ZM95.5495 26.297C95.5594 23.2426 91.2624 22.0099 90.2327 25.3812C89.6238 27.3663 89.1584 32.8861 91.7178 33.8416C93.1733 34.3812 95.4852 33.8069 95.505 31.797C95.5281 29.9719 95.5429 28.1386 95.5495 26.297Z" fill="#373737"/>
<path d="M122.733 19.2822C123.627 19.2954 124.137 19.736 124.262 20.604C124.289 20.7789 124.356 20.9373 124.465 21.0792C125.337 22.2475 125.79 23.462 125.827 24.7228C125.916 27.8779 125.916 32.8465 125.827 39.6287C125.827 39.7772 125.752 39.8515 125.604 39.8515H120.678C120.6 39.8517 120.524 39.8312 120.457 39.792C120.389 39.7528 120.334 39.6964 120.297 39.6287L119.223 37.6584C119.181 37.5809 119.119 37.5159 119.043 37.4701C118.968 37.4242 118.881 37.399 118.793 37.397C118.704 37.395 118.616 37.4163 118.538 37.4587C118.46 37.501 118.394 37.5631 118.347 37.6386C116.391 40.8069 110.668 40.7327 107.802 39.4455C105.975 38.6238 105.074 36.3416 104.797 34.5495C104.312 31.4373 105.352 29.0413 107.916 27.3614C108.039 27.2805 108.181 27.2359 108.327 27.2327C109.312 27.2129 109.96 26.6139 110.743 26.4505C113.145 25.9488 115.574 25.7211 118.03 25.7673C118.327 25.7739 118.422 25.637 118.317 25.3564L117.673 23.6436C117.607 23.4653 117.48 23.3564 117.292 23.3168C114.51 22.7525 111.88 23.1287 109.401 24.4455C109.213 24.5446 109.078 24.4951 108.995 24.297L107.149 19.7772C107.089 19.6254 107.132 19.5132 107.277 19.4406C111.564 17.297 117.668 16.0941 122.064 18.6386C122.177 18.7046 122.266 18.8267 122.332 19.005C122.401 19.1898 122.535 19.2822 122.733 19.2822ZM113.99 30.7525C110.802 32.1287 113.153 35.7822 115.599 34.896C117.724 34.1271 118.614 32.6304 118.267 30.4059C118.241 30.2409 118.144 30.1502 117.975 30.1337C116.569 30.005 115.241 30.2112 113.99 30.7525Z" fill="#373737"/>
<path d="M158.005 32.8564C157.867 32.8712 157.737 32.9311 157.635 33.0268C157.534 33.1225 157.467 33.2486 157.444 33.3856C157.421 33.5227 157.445 33.663 157.51 33.7848C157.576 33.9066 157.68 34.0031 157.807 34.0594C160.178 35.1287 162.916 34.7921 165.475 34.7822C166.066 34.7789 167.162 35.0347 168.762 35.5495C170.114 35.9852 170.708 36.7327 171.574 37.7525C171.68 37.8779 171.738 38.0215 171.747 38.1832C171.911 40.7129 172.332 43.104 170.871 45.5891C170.792 45.7244 170.677 45.8152 170.525 45.8614C170.089 45.9967 169.795 46.2888 169.644 46.7376C169.587 46.906 169.483 47.033 169.332 47.1188C164.252 49.9852 155.455 51.4703 150.589 47.2574C147.203 44.3317 149.129 39.4406 153.297 38.6931C153.387 38.6774 153.469 38.6337 153.533 38.5682C153.596 38.5027 153.637 38.4188 153.65 38.3286C153.662 38.2384 153.646 38.1464 153.603 38.066C153.56 37.9856 153.493 37.9209 153.411 37.8812C152.117 37.2541 151.464 36.2904 151.45 34.9901C151.441 33.5594 152.668 32.6337 153.708 31.797C153.755 31.7588 153.794 31.7112 153.822 31.6572C153.849 31.6032 153.865 31.5442 153.869 31.4838C153.872 31.4235 153.862 31.3634 153.841 31.3073C153.819 31.2512 153.785 31.2005 153.743 31.1584L151.708 29.1238C151.599 29.0149 151.535 28.8828 151.515 28.7277C151.114 25.8564 150.302 24.1337 151.688 21.4208C153.564 17.7525 158.941 16.797 162.589 17.3812C165.767 17.8861 168.832 17.6584 171.975 17.7129C172.157 17.7162 172.251 17.8086 172.257 17.9901C172.3 18.8977 172.307 19.7772 172.277 20.6287C172.228 22.1089 170.713 21.8861 169.832 22.5396C169.7 22.6386 169.644 22.7706 169.663 22.9357C169.921 24.9951 170.322 28.2673 168.52 29.5495C168.388 29.6419 168.282 29.7591 168.203 29.901L167.554 31.0446C167.52 31.1061 167.467 31.1552 167.403 31.1846C167.339 31.2139 167.267 31.2221 167.198 31.2079C166.63 31.0792 166.165 31.2277 165.802 31.6535C165.686 31.7921 165.545 31.8927 165.376 31.9555C163.581 32.6353 161.718 32.9274 159.787 32.8317C159.104 32.7987 158.51 32.8069 158.005 32.8564ZM160.275 28.4555C160.584 28.4565 160.89 28.3696 161.176 28.1997C161.462 28.0298 161.722 27.7802 161.941 27.4651C162.161 27.1501 162.335 26.7758 162.455 26.3636C162.575 25.9513 162.637 25.5093 162.639 25.0627C162.64 24.6161 162.581 24.1736 162.464 23.7606C162.347 23.3475 162.176 22.972 161.958 22.6554C161.741 22.3388 161.483 22.0874 161.198 21.9155C160.913 21.7436 160.608 21.6546 160.299 21.6535C159.99 21.6524 159.684 21.7393 159.398 21.9092C159.112 22.0791 158.852 22.3287 158.633 22.6438C158.413 22.9588 158.239 23.3331 158.119 23.7454C158 24.1576 157.937 24.5996 157.936 25.0462C157.934 25.4929 157.993 25.9353 158.11 26.3484C158.227 26.7614 158.399 27.1369 158.616 27.4535C158.833 27.7701 159.092 28.0215 159.376 28.1934C159.661 28.3653 159.966 28.4544 160.275 28.4555ZM155.421 42.5495C155.351 43.1238 155.599 43.5099 156.124 43.7921C158.615 45.1287 161.148 45.1634 163.723 43.896C164.634 43.4505 165.644 43.6931 165.599 42.1139C165.589 41.797 165.432 41.5908 165.129 41.4951C162.817 40.7525 157.822 40.0842 155.747 41.9357C155.563 42.1007 155.454 42.3053 155.421 42.5495Z" fill="#373737"/>
<path d="M192.871 22.0297C194.436 24.7178 194.475 27.6535 194.252 30.8961C194.239 31.0908 194.135 31.1881 193.941 31.1881H180.792C180.594 31.1881 180.498 31.2871 180.505 31.4852C180.545 33.0594 182.015 34.1931 183.381 34.6683C185.866 35.5396 189.109 34.6634 191.505 33.5842C191.62 33.5321 191.747 33.5097 191.873 33.519C191.999 33.5283 192.12 33.5691 192.227 33.6375C192.333 33.7059 192.421 33.7998 192.481 33.9107C192.542 34.0216 192.574 34.1459 192.574 34.2723V38.4951C192.574 38.7033 192.502 38.9052 192.37 39.0666C192.239 39.228 192.055 39.3391 191.851 39.3812C187.921 40.1683 184.248 40.9109 180.178 39.7079C179.614 39.5446 178.98 39.7475 178.515 39.4604C176.746 38.3746 175.211 37.0215 173.911 35.401C173.809 35.2723 173.761 35.1271 173.767 34.9654C173.822 34.0149 173.238 33.4406 173.074 32.7079C172.243 28.9258 172.65 25.269 174.297 21.7376C174.366 21.5858 174.474 21.4687 174.619 21.3861C175.355 20.9604 175.917 20.3696 176.307 19.6139C176.389 19.4522 176.52 19.3614 176.698 19.3416C177.658 19.2376 178.153 18.5495 178.851 18.2624C183.767 16.2475 190.054 17.1832 192.871 22.0297ZM180.728 26.1188L186.955 26.099C186.982 26.099 187.007 26.0886 187.025 26.07C187.044 26.0515 187.054 26.0263 187.054 26V25.9456C187.053 25.5301 186.969 25.119 186.808 24.7357C186.646 24.3524 186.41 24.0044 186.112 23.7116C185.815 23.4187 185.462 23.1868 185.074 23.0291C184.686 22.8713 184.271 22.7908 183.851 22.7921H183.812C182.965 22.7947 182.154 23.1306 181.557 23.7257C180.96 24.3208 180.626 25.1264 180.629 25.9654V26.0198C180.629 26.0461 180.639 26.0713 180.658 26.0898C180.676 26.1084 180.701 26.1188 180.728 26.1188Z" fill="#373737"/>
<path d="M196.178 33.302C194.723 29.1683 195.614 26.0198 196.911 22.0149C196.962 21.8547 197.069 21.7165 197.213 21.6238L198.114 21.0446C198.269 20.946 198.379 20.7913 198.421 20.6139C198.738 19.2921 199.916 19.3069 200.738 18.8317C203.285 17.3531 205.983 16.8944 208.832 17.4555C212.748 18.2327 217.015 21.5248 217.351 25.7921C217.639 29.4208 218 33.6337 215.52 36.1634C215.408 36.2789 215.351 36.4175 215.351 36.5792C215.351 37.1931 215.043 37.5462 214.426 37.6386C214.267 37.6617 214.13 37.7261 214.015 37.8317C213.074 38.6832 212.446 39.3862 211.119 39.6386C208.248 40.1881 206.03 40.8416 202.911 39.7525C202.351 39.5594 201.421 39.7178 201.099 39.4901C199.469 38.3185 198.03 36.9439 196.782 35.3664C196.686 35.2442 196.632 35.1073 196.619 34.9555C196.592 34.6122 196.446 34.0611 196.178 33.302ZM208.411 33.9258C210.054 32.5495 209.817 27.4951 209.297 25.6485C209.173 25.2129 208.842 25.0248 208.911 24.406C208.927 24.2625 208.89 24.1182 208.807 24C208.069 22.9703 206.549 23.2772 205.46 23.2574C205.386 23.2574 205.312 23.2728 205.245 23.3027C205.177 23.3326 205.117 23.3762 205.069 23.4307C204.234 24.368 203.703 25.2591 203.475 26.104C202.891 28.2921 202.886 32.9555 205.267 34.3218C206.323 34.9291 207.371 34.797 208.411 33.9258Z" fill="#373737"/>
<path d="M227.505 20.5347L227.807 19.6287C227.853 19.4835 227.949 19.3927 228.094 19.3564C229.198 19.0792 229.748 18.2525 230.609 17.8961C232.411 17.1535 234.254 17.0363 236.139 17.5446C237.406 17.8861 238.411 18.8663 239.728 19.4208C239.876 19.4835 239.974 19.5924 240.02 19.7475C240.356 20.8515 241.129 21.5446 241.431 22.5693C242.421 25.9604 241.866 32.5792 241.797 39.6139C241.797 39.7723 241.718 39.8515 241.559 39.8515H234.054C233.876 39.8515 233.787 39.7624 233.787 39.5842C233.804 35.1287 233.776 30.6898 233.703 26.2673C233.678 24.6683 232.941 23.4159 231.317 23.3267C228.753 23.1832 227.713 26.3614 227.723 28.3961C227.743 32.132 227.738 35.8663 227.708 39.599C227.708 39.7673 227.624 39.8515 227.455 39.8515H220.173C219.926 39.8515 219.802 39.7277 219.802 39.4802V17.9456C219.802 17.8799 219.828 17.8169 219.875 17.7705C219.921 17.7241 219.984 17.698 220.05 17.698H225.257C225.432 17.698 225.556 17.7772 225.629 17.9357L226.842 20.5743C226.872 20.6396 226.921 20.6943 226.982 20.7313C227.044 20.7683 227.115 20.7858 227.187 20.7815C227.259 20.7772 227.327 20.7514 227.384 20.7073C227.441 20.6633 227.483 20.6031 227.505 20.5347Z" fill="#373737"/>
<path d="M138.936 32.5347C139.158 31.104 139.005 29.9158 139.55 28.5693C140.233 26.8812 140.762 25.5149 141.173 23.5792C141.592 21.6122 142.262 19.7277 143.183 17.9257C143.262 17.7739 143.388 17.698 143.559 17.698H150.614C150.656 17.6984 150.697 17.7093 150.734 17.7296C150.771 17.75 150.802 17.7792 150.824 17.8146C150.847 17.8499 150.86 17.8904 150.863 17.9323C150.866 17.9742 150.859 18.0162 150.842 18.0545C150.307 19.2624 149.739 20.4653 149.139 21.6634C148.881 22.1733 149.084 22.7822 148.807 23.401C148.193 24.7822 146.985 26.8168 147.03 28.3119C147.036 28.4736 146.997 28.6254 146.911 28.7673C145.964 30.3779 145.272 32.0875 144.837 33.896C144.46 35.4653 143.475 36.7624 143.114 38.3762C142.913 39.2673 142.691 39.9637 142.451 40.4653C141.579 42.2723 140.901 44.9604 139.332 46.2129C139.206 46.3152 139.125 46.4439 139.089 46.599C138.762 47.9554 137.604 47.7525 136.693 48.3762C134.396 49.9505 131.327 50.1683 128.683 49.5049C128.538 49.4686 128.465 49.3762 128.465 49.2277V43.6782C128.465 43.4736 128.564 43.3911 128.762 43.4307C129.858 43.6353 130.959 43.6436 132.064 43.4554C132.113 43.4457 132.159 43.4217 132.198 43.3861L134.545 41.0693C134.579 41.0364 134.606 40.9967 134.625 40.9524C134.644 40.9082 134.653 40.8604 134.653 40.8119V38.4851C134.654 38.3276 134.603 38.1748 134.51 38.0495C133.891 37.2079 133.614 36.4257 132.965 35.2673C132.599 34.604 132.718 33.8515 132.446 33.198C131.937 32.0066 131.385 30.8383 130.787 29.6931C130.713 29.5473 130.68 29.3845 130.693 29.2228C130.827 27.4802 128.743 26.0297 128.713 23.6733C128.71 23.5148 128.665 23.368 128.579 23.2327C127.543 21.6089 126.847 19.8597 126.49 17.9851C126.454 17.7937 126.533 17.698 126.728 17.698H134.287C134.37 17.6976 134.45 17.7281 134.512 17.7839C134.574 17.8396 134.614 17.9165 134.624 18C134.906 20.5842 135.683 22.3515 136.525 24.7475C136.748 25.3713 136.525 26.1287 136.837 26.8614C137.622 28.6997 138.251 30.5941 138.723 32.5446C138.809 32.9076 138.88 32.9043 138.936 32.5347Z" fill="#373737"/>
<path d="M65.9307 56.7525L64.7129 55.1782C64.6073 55.0429 64.4703 54.9769 64.302 54.9802C54.2376 55.099 46.9505 48.5099 47.0446 38.2426C47.0545 37.3267 47.8515 36.4654 46.7376 35.6535C48.8317 32.9257 52.0891 30.5941 55.4109 31.8317C55.6518 31.9208 55.6997 31.8597 55.5545 31.6485C51.4208 25.5644 43.0545 20.7178 35.703 24.6337C33.0066 26.0726 30.9802 28.2508 29.6238 31.1683C29.33 31.7987 28.9769 32.3218 28.5644 32.7376C28.0099 33.2954 27.5512 33.7475 27.1881 34.0941C21.9109 33.5726 17.604 31.3531 14.2673 27.4356C11.406 24.0792 9.61387 20.9654 8.87625 16.6881C8.56932 14.9026 8.01651 13.1815 7.21783 11.5248C8.23269 8.48516 10.3218 6.94555 13.5594 6.9406C29.6188 6.9241 45.6832 6.92245 61.7525 6.93565C62.7178 6.93565 63.5198 7.29209 64.406 7.59902C64.5592 7.65317 64.6878 7.76236 64.7673 7.90595C65.0512 8.4175 65.4769 8.75908 66.0446 8.9307C66.1354 8.95697 66.2188 9.0037 66.2884 9.06724C66.3579 9.13079 66.4117 9.20944 66.4456 9.29704C66.8383 10.2772 67.0396 11.2937 67.0495 12.3465C67.2129 25.5 66.6683 40.8861 67.1238 51.8564C67.2096 53.9852 66.8119 55.6172 65.9307 56.7525Z" fill="#59C0FF"/>
<path d="M41.6486 27.7822C41.6486 28.6434 42.2603 29.3416 43.0149 29.3416C43.7695 29.3416 44.3812 28.6434 44.3812 27.7822C44.3812 26.9209 43.7695 26.2228 43.0149 26.2228C42.2603 26.2228 41.6486 26.9209 41.6486 27.7822Z" fill="#59C0FF"/>
<path d="M7.21785 11.5247C8.01653 13.1815 8.56933 14.9026 8.87626 16.6881C9.61389 20.9653 11.406 24.0792 14.2674 27.4356C17.604 31.3531 21.9109 33.5726 27.1881 34.0941C23.1634 37.6782 16.9505 39.3812 12.2971 36.203C11.0924 35.3812 10.0033 34.4125 9.02973 33.297C8.92082 33.1716 8.88286 33.0297 8.91587 32.8713C8.94557 32.7063 8.91587 32.5512 8.82676 32.4059C7.81026 30.7624 7.27395 29.2327 7.21785 27.8168C7.11554 25.2426 7.11554 19.8119 7.21785 11.5247Z" fill="#759DFF"/>
<path d="M46.7376 35.6535C47.8515 36.4653 47.0545 37.3267 47.0446 38.2426C46.9505 48.5099 54.2376 55.099 64.302 54.9802C64.4703 54.9769 64.6073 55.0429 64.7129 55.1782L65.9307 56.7525C65.1337 57.6733 64.4554 58.2822 63.1535 58.396C57.5792 58.8713 53.7426 58.8861 49.5099 55.5495C43.7178 50.9851 41.4257 41.6584 46.7376 35.6535Z" fill="#759DFF"/>
</svg>
