<svg width="505" height="139" viewBox="0 0 505 139" fill="none" xmlns="http://www.w3.org/2000/svg">
<mask id="mask0_1_12738" style="mask-type:luminance" maskUnits="userSpaceOnUse" x="14" y="13" width="122" height="106">
<path d="M14.58 23.28C14.3733 40.02 14.3733 50.99 14.58 56.19C14.6933 59.05 15.7767 62.14 17.83 65.46C18.01 65.7533 18.07 66.0667 18.01 66.4C17.9433 66.72 18.02 67.0067 18.24 67.26C20.2067 69.5133 22.4067 71.47 24.84 73.13C34.24 79.55 46.79 76.11 54.92 68.87C55.6533 68.17 56.58 67.2567 57.7 66.13C58.5333 65.29 59.2467 64.2333 59.84 62.96C62.58 57.0667 66.6733 52.6667 72.12 49.76C86.97 41.85 103.87 51.64 112.22 63.93C112.513 64.3567 112.417 64.48 111.93 64.3C105.22 61.8 98.64 66.51 94.41 72.02C83.68 84.15 88.31 102.99 100.01 112.21C108.56 118.95 116.31 118.92 127.57 117.96C130.2 117.73 131.57 116.5 133.18 114.64C134.96 112.347 135.763 109.05 135.59 104.75C134.67 82.59 135.77 51.51 135.44 24.94C135.42 22.8133 135.013 20.76 134.22 18.78C134.152 18.603 134.043 18.4442 133.902 18.3158C133.762 18.1875 133.593 18.0931 133.41 18.04C132.263 17.6933 131.403 17.0033 130.83 15.97C130.669 15.68 130.41 15.4594 130.1 15.35C128.31 14.73 126.69 14.01 124.74 14.01C92.28 13.9833 59.83 13.9867 27.39 14.02C20.85 14.03 16.63 17.14 14.58 23.28Z" fill="white"/>
</mask>
<g mask="url(#mask0_1_12738)">
<path d="M133.18 114.64L130.72 111.46C130.507 111.187 130.23 111.053 129.89 111.06C109.56 111.3 94.84 97.99 95.03 77.25C95.05 75.4 96.66 73.66 94.41 72.02" stroke="#67AFFF" stroke-width="2"/>
<path d="M54.92 68.87C44.26 67.8167 35.56 63.3333 28.82 55.42C23.04 48.64 19.42 42.35 17.93 33.71C17.31 30.1033 16.1934 26.6267 14.58 23.28" stroke="#67AFFF" stroke-width="2"/>
</g>
<path d="M181.09 41C181.126 41.0761 181.184 41.1399 181.256 41.1835C181.328 41.2272 181.411 41.2487 181.495 41.2455C181.579 41.2424 181.66 41.2145 181.729 41.1656C181.797 41.1166 181.85 41.0486 181.88 40.97C182.287 39.91 183.063 39.2333 184.21 38.94C184.384 38.8963 184.545 38.812 184.68 38.6938C184.816 38.5757 184.922 38.4271 184.99 38.26C185.263 37.6133 185.593 37.18 185.98 36.96C191.147 34.0133 196.22 34.1133 201.2 37.26C201.507 37.4533 201.737 37.7133 201.89 38.04L202.09 38.45C202.203 38.6967 202.393 38.8467 202.66 38.9C203.747 39.1067 204.56 39.6933 205.1 40.66C209.98 49.39 212.14 63.28 206.43 72.27C206.263 72.53 206.157 72.8133 206.11 73.12L205.85 74.93C205.831 75.0422 205.787 75.1484 205.721 75.2403C205.655 75.3322 205.569 75.4074 205.47 75.46C203.703 76.3867 202.38 77.72 201.5 79.46C201.333 79.7867 201.067 79.9567 200.7 79.97C199.647 80.0033 198.907 80.1 198.48 80.26C191.907 82.7 186.237 81.4733 181.47 76.58C181.443 76.5501 181.407 76.5297 181.368 76.5215C181.329 76.5132 181.288 76.5174 181.25 76.5336C181.212 76.5497 181.18 76.5771 181.156 76.6121C181.133 76.6471 181.121 76.6882 181.12 76.73L181.31 100.09C181.31 100.53 181.093 100.75 180.66 100.75H166.75C166.25 100.75 166 100.5 166 100V36.25C166 36.1174 166.053 35.9902 166.146 35.8964C166.24 35.8027 166.367 35.75 166.5 35.75H178.02C178.178 35.7499 178.333 35.7948 178.468 35.8797C178.602 35.9646 178.71 36.0861 178.78 36.23L181.09 41ZM193.01 53.12C193.03 46.95 184.35 44.46 182.27 51.27C181.04 55.28 180.1 66.43 185.27 68.36C188.21 69.45 192.88 68.29 192.92 64.23C192.967 60.5433 192.997 56.84 193.01 53.12Z" fill="white"/>
<path d="M247.92 38.95C249.727 38.9767 250.757 39.8667 251.01 41.62C251.063 41.9733 251.2 42.2933 251.42 42.58C253.18 44.94 254.097 47.3933 254.17 49.94C254.35 56.3133 254.35 66.35 254.17 80.05C254.17 80.35 254.02 80.5 253.72 80.5H243.77C243.612 80.5005 243.458 80.4589 243.322 80.3798C243.187 80.3006 243.075 80.1867 243 80.05L240.83 76.07C240.745 75.9134 240.62 75.7822 240.467 75.6895C240.315 75.5969 240.141 75.546 239.961 75.542C239.782 75.5379 239.605 75.5809 239.447 75.6665C239.289 75.7521 239.155 75.8774 239.06 76.03C235.11 82.43 223.55 82.28 217.76 79.68C214.07 78.02 212.25 73.41 211.69 69.79C210.71 63.5033 212.81 58.6633 217.99 55.27C218.238 55.1067 218.526 55.0166 218.82 55.01C220.81 54.97 222.12 53.76 223.7 53.43C228.553 52.4167 233.46 51.9567 238.42 52.05C239.02 52.0633 239.213 51.7867 239 51.22L237.7 47.76C237.567 47.4 237.31 47.18 236.93 47.1C231.31 45.96 225.997 46.72 220.99 49.38C220.61 49.58 220.337 49.48 220.17 49.08L216.44 39.95C216.32 39.6433 216.407 39.4167 216.7 39.27C225.36 34.94 237.69 32.51 246.57 37.65C246.797 37.7833 246.977 38.03 247.11 38.39C247.25 38.7633 247.52 38.95 247.92 38.95ZM230.26 62.12C223.82 64.9 228.57 72.28 233.51 70.49C237.803 68.9367 239.6 65.9133 238.9 61.42C238.847 61.0867 238.65 60.9033 238.31 60.87C235.47 60.61 232.787 61.0267 230.26 62.12Z" fill="white"/>
<path d="M319.17 66.37C318.89 66.3999 318.628 66.5208 318.423 66.7141C318.218 66.9073 318.083 67.1621 318.037 67.4389C317.991 67.7157 318.039 67.9992 318.171 68.2452C318.304 68.4913 318.514 68.6863 318.77 68.8C323.56 70.96 329.09 70.28 334.26 70.26C335.453 70.2533 337.667 70.77 340.9 71.81C343.63 72.69 344.83 74.2 346.58 76.26C346.793 76.5133 346.91 76.8033 346.93 77.13C347.26 82.24 348.11 87.07 345.16 92.09C345 92.3633 344.767 92.5467 344.46 92.64C343.58 92.9133 342.987 93.5033 342.68 94.41C342.567 94.75 342.357 95.0067 342.05 95.18C331.79 100.97 314.02 103.97 304.19 95.46C297.35 89.55 301.24 79.67 309.66 78.16C309.841 78.1284 310.008 78.0401 310.136 77.9078C310.264 77.7755 310.347 77.606 310.372 77.4238C310.398 77.2415 310.365 77.0558 310.278 76.8934C310.192 76.731 310.056 76.6003 309.89 76.52C307.277 75.2533 305.957 73.3067 305.93 70.68C305.91 67.79 308.39 65.92 310.49 64.23C310.585 64.1529 310.664 64.0566 310.72 63.9476C310.776 63.8385 310.808 63.7192 310.814 63.5973C310.821 63.4755 310.802 63.354 310.758 63.2407C310.714 63.1274 310.647 63.0249 310.56 62.94L306.45 58.83C306.23 58.61 306.1 58.3433 306.06 58.03C305.25 52.23 303.61 48.75 306.41 43.27C310.2 35.86 321.06 33.93 328.43 35.11C334.85 36.13 341.04 35.67 347.39 35.78C347.757 35.7867 347.947 35.9733 347.96 36.34C348.047 38.1733 348.06 39.95 348 41.67C347.9 44.66 344.84 44.21 343.06 45.53C342.793 45.73 342.68 45.9967 342.72 46.33C343.24 50.49 344.05 57.1 340.41 59.69C340.143 59.8767 339.93 60.1133 339.77 60.4L338.46 62.71C338.391 62.8344 338.283 62.9334 338.154 62.9928C338.025 63.0521 337.879 63.0687 337.74 63.04C336.593 62.78 335.653 63.08 334.92 63.94C334.687 64.22 334.4 64.4233 334.06 64.55C330.433 65.9233 326.67 66.5133 322.77 66.32C321.39 66.2533 320.19 66.27 319.17 66.37ZM323.756 57.48C324.38 57.4822 324.998 57.3066 325.576 56.9634C326.153 56.6202 326.678 56.116 327.122 55.4796C327.565 54.8432 327.918 54.0871 328.159 53.2544C328.401 52.4217 328.527 51.5288 328.53 50.6266C328.533 49.7244 328.413 48.8306 328.178 47.9963C327.942 47.162 327.595 46.4034 327.156 45.7639C326.717 45.1244 326.195 44.6166 325.62 44.2693C325.045 43.922 324.428 43.7422 323.804 43.74C323.18 43.7378 322.562 43.9133 321.984 44.2566C321.407 44.5998 320.881 45.104 320.438 45.7404C319.995 46.3768 319.642 47.1329 319.401 47.9656C319.159 48.7983 319.033 49.6912 319.03 50.5934C319.027 51.4956 319.147 52.3894 319.382 53.2237C319.618 54.058 319.965 54.8166 320.404 55.4561C320.843 56.0956 321.365 56.6034 321.94 56.9507C322.515 57.298 323.132 57.4778 323.756 57.48ZM313.95 85.95C313.81 87.11 314.31 87.89 315.37 88.46C320.403 91.16 325.52 91.23 330.72 88.67C332.56 87.77 334.6 88.26 334.51 85.07C334.49 84.43 334.173 84.0133 333.56 83.82C328.89 82.32 318.8 80.97 314.61 84.71C314.237 85.0433 314.017 85.4567 313.95 85.95Z" fill="white"/>
<path d="M389.6 44.5C392.76 49.93 392.84 55.86 392.39 62.41C392.363 62.8033 392.153 63 391.76 63H365.2C364.8 63 364.607 63.2 364.62 63.6C364.7 66.78 367.67 69.07 370.43 70.03C375.45 71.79 382 70.02 386.84 67.84C387.073 67.7349 387.328 67.6896 387.583 67.7084C387.837 67.7272 388.083 67.8095 388.298 67.9477C388.513 68.0858 388.689 68.2756 388.812 68.4996C388.935 68.7235 388.999 68.9747 389 69.23V77.76C389 78.1807 388.854 78.5884 388.588 78.9145C388.322 79.2405 387.952 79.4649 387.54 79.55C379.6 81.14 372.18 82.64 363.96 80.21C362.82 79.88 361.54 80.29 360.6 79.71C357.027 77.5167 353.927 74.7833 351.3 71.51C351.093 71.25 350.997 70.9567 351.01 70.63C351.12 68.71 349.94 67.55 349.61 66.07C347.93 58.43 348.753 51.0433 352.08 43.91C352.22 43.6033 352.437 43.3667 352.73 43.2C354.217 42.34 355.353 41.1467 356.14 39.62C356.307 39.2933 356.57 39.11 356.93 39.07C358.87 38.86 359.87 37.47 361.28 36.89C371.21 32.82 383.91 34.71 389.6 44.5ZM365.07 52.76L377.65 52.72C377.703 52.72 377.754 52.6989 377.791 52.6614C377.829 52.6239 377.85 52.573 377.85 52.52V52.41C377.847 51.5708 377.678 50.7404 377.351 49.9661C377.025 49.1918 376.548 48.4889 375.947 47.8974C375.346 47.3058 374.633 46.8374 373.85 46.5187C373.066 46.2 372.227 46.0373 371.38 46.04H371.3C369.589 46.0454 367.951 46.7237 366.745 47.9258C365.539 49.1279 364.865 50.7553 364.87 52.45V52.56C364.87 52.613 364.891 52.6639 364.929 52.7014C364.966 52.7389 365.017 52.76 365.07 52.76Z" fill="white"/>
<path d="M396.28 67.27C393.34 58.92 395.14 52.56 397.76 44.47C397.864 44.1465 398.079 43.8673 398.37 43.68L400.19 42.51C400.504 42.3109 400.727 41.9985 400.81 41.64C401.45 38.97 403.83 39 405.49 38.04C410.637 35.0533 416.087 34.1267 421.84 35.26C429.75 36.83 438.37 43.48 439.05 52.1C439.63 59.43 440.36 67.94 435.35 73.05C435.123 73.2833 435.01 73.5633 435.01 73.89C435.01 75.13 434.387 75.8433 433.14 76.03C432.82 76.0767 432.543 76.2067 432.31 76.42C430.41 78.14 429.14 79.56 426.46 80.07C420.66 81.18 416.18 82.5 409.88 80.3C408.75 79.91 406.87 80.23 406.22 79.77C402.927 77.4033 400.02 74.6267 397.5 71.44C397.307 71.1933 397.197 70.9167 397.17 70.61C397.117 69.9167 396.82 68.8033 396.28 67.27ZM420.99 68.53C424.31 65.75 423.83 55.54 422.78 51.81C422.53 50.93 421.86 50.55 422 49.3C422.032 49.0102 421.957 48.7188 421.79 48.48C420.3 46.4 417.23 47.02 415.03 46.98C414.879 46.9799 414.73 47.0111 414.594 47.0715C414.458 47.1318 414.337 47.2199 414.24 47.33C412.553 49.2233 411.48 51.0233 411.02 52.73C409.84 57.15 409.83 66.57 414.64 69.33C416.773 70.5567 418.89 70.29 420.99 68.53Z" fill="white"/>
<path d="M459.56 41.48L460.17 39.65C460.263 39.3567 460.457 39.1733 460.75 39.1C462.98 38.54 464.09 36.87 465.83 36.15C469.47 34.65 473.193 34.4133 477 35.44C479.56 36.13 481.59 38.11 484.25 39.23C484.55 39.3567 484.747 39.5767 484.84 39.89C485.52 42.12 487.08 43.52 487.69 45.59C489.69 52.44 488.57 65.81 488.43 80.02C488.43 80.34 488.27 80.5 487.95 80.5H472.79C472.43 80.5 472.25 80.32 472.25 79.96C472.283 70.96 472.227 61.9933 472.08 53.06C472.03 49.83 470.54 47.3 467.26 47.12C462.08 46.83 459.98 53.25 460 57.36C460.04 64.9067 460.03 72.45 459.97 79.99C459.97 80.33 459.8 80.5 459.46 80.5H444.75C444.25 80.5 444 80.25 444 79.75V36.25C444 36.1174 444.053 35.9902 444.146 35.8964C444.24 35.8027 444.367 35.75 444.5 35.75H455.02C455.373 35.75 455.623 35.91 455.77 36.23L458.22 41.56C458.281 41.6919 458.379 41.8025 458.504 41.8772C458.628 41.9519 458.772 41.9873 458.917 41.9786C459.062 41.97 459.201 41.9177 459.316 41.8287C459.431 41.7398 459.516 41.6182 459.56 41.48Z" fill="white"/>
<path d="M280.65 65.72C281.1 62.83 280.79 60.43 281.89 57.71C283.27 54.3 284.34 51.54 285.17 47.63C286.017 43.6567 287.37 39.85 289.23 36.21C289.39 35.9033 289.643 35.75 289.99 35.75H304.24C304.325 35.7508 304.408 35.7727 304.482 35.8138C304.557 35.8549 304.619 35.9139 304.665 35.9854C304.711 36.0569 304.738 36.1387 304.744 36.2233C304.75 36.3079 304.735 36.3927 304.7 36.47C303.62 38.91 302.473 41.34 301.26 43.76C300.74 44.79 301.15 46.02 300.59 47.27C299.35 50.06 296.91 54.17 297 57.19C297.013 57.5167 296.933 57.8233 296.76 58.11C294.847 61.3633 293.45 64.8167 292.57 68.47C291.81 71.64 289.82 74.26 289.09 77.52C288.683 79.32 288.237 80.7267 287.75 81.74C285.99 85.39 284.62 90.82 281.45 93.35C281.197 93.5567 281.033 93.8167 280.96 94.13C280.3 96.87 277.96 96.46 276.12 97.72C271.48 100.9 265.28 101.34 259.94 100C259.647 99.9267 259.5 99.74 259.5 99.44V88.23C259.5 87.8167 259.7 87.65 260.1 87.73C262.313 88.1433 264.537 88.16 266.77 87.78C266.868 87.7603 266.962 87.7118 267.04 87.64L271.78 82.96C271.849 82.8936 271.905 82.8133 271.942 82.7239C271.98 82.6346 272 82.538 272 82.44V77.74C272 77.4218 271.899 77.1131 271.71 76.86C270.46 75.16 269.9 73.58 268.59 71.24C267.85 69.9 268.09 68.38 267.54 67.06C266.513 64.6533 265.397 62.2933 264.19 59.98C264.039 59.6856 263.974 59.3567 264 59.03C264.27 55.51 260.06 52.58 260 47.82C259.993 47.5 259.903 47.2033 259.73 46.93C257.637 43.65 256.23 40.1167 255.51 36.33C255.437 35.9433 255.597 35.75 255.99 35.75H271.26C271.427 35.7491 271.589 35.8109 271.715 35.9234C271.84 36.0359 271.92 36.1914 271.94 36.36C272.51 41.58 274.08 45.15 275.78 49.99C276.23 51.25 275.78 52.78 276.41 54.26C277.997 57.9733 279.267 61.8 280.22 65.74C280.393 66.4733 280.537 66.4667 280.65 65.72Z" fill="white"/>
<path d="M133.18 114.64L130.72 111.46C130.507 111.187 130.23 111.053 129.89 111.06C109.56 111.3 94.84 97.99 95.03 77.25C95.05 75.4 96.66 73.66 94.41 72.02C98.64 66.51 105.22 61.8 111.93 64.3C112.417 64.48 112.513 64.3567 112.22 63.93C103.87 51.64 86.97 41.85 72.12 49.76C66.6734 52.6667 62.58 57.0667 59.84 62.96C59.2467 64.2333 58.5334 65.29 57.7 66.13C56.58 67.2567 55.6533 68.17 54.92 68.87C44.26 67.8167 35.56 63.3333 28.82 55.42C23.04 48.64 19.42 42.35 17.93 33.71C17.31 30.1033 16.1934 26.6267 14.58 23.28C16.63 17.14 20.85 14.03 27.39 14.02C59.83 13.9867 92.28 13.9833 124.74 14.01C126.69 14.01 128.31 14.73 130.1 15.35C130.41 15.4594 130.669 15.68 130.83 15.97C131.403 17.0033 132.263 17.6933 133.41 18.04C133.593 18.0931 133.762 18.1875 133.902 18.3158C134.043 18.4442 134.152 18.603 134.22 18.78C135.013 20.76 135.42 22.8133 135.44 24.94C135.77 51.51 134.67 82.59 135.59 104.75C135.763 109.05 134.96 112.347 133.18 114.64Z" fill="#59C0FF"/>
<path d="M84.13 56.12C84.13 57.8597 85.3657 59.27 86.89 59.27C88.4143 59.27 89.65 57.8597 89.65 56.12C89.65 54.3803 88.4143 52.97 86.89 52.97C85.3657 52.97 84.13 54.3803 84.13 56.12Z" fill="#59C0FF"/>
<path d="M14.58 23.28C16.1933 26.6267 17.31 30.1033 17.93 33.71C19.42 42.35 23.04 48.64 28.82 55.42C35.56 63.3333 44.26 67.8167 54.92 68.87C46.79 76.11 34.24 79.55 24.84 73.13C22.4067 71.47 20.2067 69.5133 18.24 67.26C18.02 67.0067 17.9433 66.72 18.01 66.4C18.07 66.0667 18.01 65.7533 17.83 65.46C15.7767 62.14 14.6933 59.05 14.58 56.19C14.3733 50.99 14.3733 40.02 14.58 23.28Z" fill="#759DFF"/>
<path d="M94.41 72.02C96.66 73.66 95.05 75.4 95.03 77.25C94.84 97.99 109.56 111.3 129.89 111.06C130.23 111.053 130.507 111.187 130.72 111.46L133.18 114.64C131.57 116.5 130.2 117.73 127.57 117.96C116.31 118.92 108.56 118.95 100.01 112.21C88.31 102.99 83.68 84.15 94.41 72.02Z" fill="#759DFF"/>
</svg>
