<svg width="201" height="87" viewBox="0 0 201 87" fill="none" xmlns="http://www.w3.org/2000/svg">
<path d="M2.86316 8.57253L0.633166 9.15253C0.548475 9.17361 0.459785 9.1726 0.375597 9.1496C0.291409 9.1266 0.214542 9.08238 0.152331 9.02117C0.0901194 8.95996 0.0446466 8.88381 0.020281 8.80001C-0.00408451 8.71621 -0.0065401 8.62755 0.0131552 8.54253L1.54317 2.21253C1.62317 1.89253 1.82316 1.69587 2.14316 1.62254C8.77649 0.0225352 15.1698 -0.394131 21.3232 0.372535C29.2432 1.35254 31.1232 10.0725 28.0532 16.2425C25.2732 21.8525 18.2532 24.3225 12.1932 24.0425C11.8532 24.0292 11.6698 24.1892 11.6432 24.5225L10.8732 32.5825C10.8332 33.0159 10.6065 33.3059 10.1932 33.4525L2.97316 35.9825C1.93983 36.3425 1.46317 35.9792 1.54317 34.8925L3.45316 9.07253C3.45834 8.99743 3.4458 8.92217 3.41652 8.85282C3.38725 8.78347 3.34205 8.72197 3.28462 8.6733C3.22719 8.62463 3.15912 8.59016 3.08591 8.57265C3.01269 8.55515 2.93639 8.5551 2.86316 8.57253ZM12.9632 17.7425C17.5132 17.7025 20.0932 12.7625 19.2832 8.89254C19.2419 8.69641 19.1612 8.51094 19.046 8.34756C18.9307 8.18418 18.7834 8.04634 18.6132 7.94253C17.1332 7.04253 15.5198 6.77587 13.7732 7.14254C13.3865 7.22254 13.1732 7.4592 13.1332 7.85253L12.3032 17.0325C12.2565 17.5125 12.4765 17.7492 12.9632 17.7425Z" fill="white"/>
<path d="M29.1894 56.4888L26.5677 56.9351C26.0869 57.017 25.9115 56.7901 26.0415 56.2545L27.747 49.2028C27.791 49.0142 27.8796 48.8428 28.0033 48.7071C28.1269 48.5714 28.281 48.4766 28.4488 48.4329C33.1984 47.2055 38.8348 46.7667 45.3582 47.1163C56.1081 47.6965 57.6383 61.8223 51.0987 68.7401C47.759 72.2735 43.435 73.8765 38.1266 73.5492C37.972 73.5396 37.8203 73.5984 37.7038 73.713C37.5873 73.8277 37.5152 73.989 37.5029 74.1629L36.7622 83.2119C36.7482 83.42 36.6798 83.6195 36.5656 83.786C36.4513 83.9525 36.2961 84.0787 36.1189 84.1491L29.3356 86.827C28.1531 87.2956 27.6073 86.8121 27.6983 85.3765L29.5696 56.9017C29.589 56.5818 29.4623 56.4442 29.1894 56.4888ZM38.7016 66.5867C46.6642 65.5713 47.6583 51.903 39.4521 54.9156C39.1597 55.0272 39.0005 55.2578 38.9745 55.6074L38.1948 66.0176C38.1886 66.0951 38.1976 66.1732 38.221 66.2462C38.2444 66.3193 38.2817 66.3854 38.3302 66.4399C38.3788 66.4944 38.4373 66.5358 38.5015 66.5612C38.5657 66.5866 38.6341 66.5953 38.7016 66.5867Z" fill="white"/>
<path d="M106.273 64.9508L102.498 64.9278C102.409 64.9276 102.321 64.8997 102.244 64.8471C102.167 64.7944 102.104 64.7188 102.061 64.6283C102.018 64.5378 101.997 64.4357 102 64.3327C102.003 64.2297 102.031 64.1296 102.079 64.0428L105.055 58.6293C105.221 58.3305 105.454 58.1428 105.754 58.0661L106.713 57.8248C106.992 57.7635 107.145 57.5681 107.172 57.2386L107.771 50.6528C107.789 50.4728 107.855 50.3038 107.961 50.1697C108.067 50.0356 108.206 49.9432 108.36 49.9057L116.499 48.0093C116.565 47.9944 116.634 47.9974 116.699 48.018C116.764 48.0386 116.824 48.0762 116.873 48.1278C116.923 48.1793 116.961 48.2433 116.985 48.3146C117.008 48.3859 117.016 48.4624 117.008 48.538L116.169 57.3765C116.129 57.8133 116.299 58.0317 116.679 58.0317L122.451 58.0661C122.957 58.0738 123.113 58.3458 122.92 58.8822L120.953 64.3187C120.8 64.7324 120.53 64.9393 120.144 64.9393H115.99C115.65 64.9393 115.464 65.1347 115.43 65.5255L114.502 77.2029C114.476 77.5367 114.519 77.8728 114.627 78.1838C114.735 78.4949 114.906 78.7721 115.125 78.9928C115.344 79.2136 115.605 79.3716 115.887 79.454C116.169 79.5365 116.465 79.541 116.749 79.4672L120.653 78.4557C120.973 78.3715 121.166 78.5132 121.232 78.881L122.111 83.6278C122.184 84.034 122.055 84.3213 121.722 84.4899C116.599 87.0299 108.73 89.3746 106.443 82.2946C105.165 78.3178 106.343 70.5827 106.783 65.5944C106.816 65.1653 106.646 64.9508 106.273 64.9508Z" fill="white"/>
<path d="M184.593 10.8427C191.463 6.8327 201.253 6.18269 200.123 17.5227C199.617 22.6427 199.173 27.7727 198.793 32.9127C198.773 33.2327 198.61 33.436 198.303 33.5227L190.873 35.5827C190.763 35.6126 190.648 35.6153 190.537 35.5904C190.425 35.5656 190.322 35.514 190.235 35.4401C190.149 35.3662 190.081 35.2722 190.039 35.1664C189.997 35.0605 189.981 34.946 189.993 34.8327C190.627 28.9327 191.177 23.3394 191.643 18.0527C191.75 16.8394 191.423 15.806 190.663 14.9527C190.443 14.706 190.167 14.5727 189.833 14.5527C185.78 14.3527 183.557 16.2627 183.163 20.2827C182.77 24.3227 182.38 28.3594 181.993 32.3927C181.982 32.5199 181.933 32.6409 181.853 32.7405C181.773 32.8401 181.665 32.9139 181.543 32.9527L173.343 35.6427C173.25 35.6731 173.15 35.6798 173.054 35.6621C172.957 35.6444 172.867 35.6029 172.79 35.5413C172.714 35.4798 172.654 35.4001 172.616 35.3095C172.578 35.219 172.563 35.1204 172.573 35.0227L174.813 10.1527C174.829 10.0036 174.89 9.86327 174.989 9.75189C175.088 9.64051 175.219 9.56379 175.363 9.5327L183.933 7.7027C184.293 7.62936 184.44 7.77269 184.373 8.13269L183.973 10.4127C183.867 10.9994 184.073 11.1427 184.593 10.8427Z" fill="white"/>
<path d="M135.252 59.4937C140.39 56.0456 150.618 53.8726 149.971 65.3254C149.752 69.1393 149.255 75.3517 148.48 83.9625C148.443 84.3617 148.258 84.6167 147.927 84.7275L141.29 86.9338C141.175 86.9722 141.055 86.9771 140.939 86.9482C140.823 86.9193 140.715 86.8574 140.623 86.768C140.532 86.6785 140.46 86.5641 140.415 86.4346C140.369 86.3051 140.351 86.1644 140.361 86.0247L141.899 66.5228C141.949 65.8755 141.79 65.2301 141.454 64.7175C141.118 64.2049 140.63 63.8633 140.09 63.7622C135.983 62.9861 134.211 66.29 133.846 70.758C133.496 74.9784 133.155 79.1952 132.824 83.4082C132.812 83.5503 132.767 83.6856 132.692 83.7976C132.617 83.9097 132.516 83.9939 132.402 84.0401L124.94 86.956C124.828 87.0004 124.709 87.0114 124.593 86.988C124.477 86.9646 124.367 86.9075 124.274 86.8218C124.181 86.7361 124.108 86.6245 124.06 86.497C124.013 86.3695 123.993 86.2301 124.002 86.0912L126.065 58.8617C126.096 58.4478 126.287 58.1965 126.637 58.1078L134.624 56.0235C134.974 55.9348 135.115 56.0974 135.046 56.5113L134.671 59.0059C134.571 59.6563 134.765 59.8189 135.252 59.4937Z" fill="white"/>
<path d="M46.4232 32.8225C39.6832 38.9825 31.5032 33.6825 30.3032 25.7825C28.7932 15.8625 36.9632 3.02253 47.7932 10.3425C48.1799 10.6025 48.4165 10.5059 48.5032 10.0525L48.6432 9.36253C48.7365 8.88253 49.0265 8.61586 49.5132 8.56253L56.0632 7.84253C56.4232 7.80253 56.5832 7.9592 56.5432 8.31253C55.5965 17.8925 54.8799 24.4692 54.3932 28.0425C54.1732 29.6559 54.3832 31.0225 55.0232 32.1425C55.1965 32.4492 55.1232 32.6692 54.8032 32.8025L48.6332 35.4325C48.1932 35.6192 47.8999 35.4859 47.7532 35.0325L47.1032 33.0025C46.9699 32.5892 46.7432 32.5292 46.4232 32.8225ZM40.2132 17.2325C39.1232 20.0525 38.3132 27.7325 42.2032 29.0125C43.4765 29.4325 44.7032 29.0925 45.8832 27.9925C46.1165 27.7792 46.2565 27.5159 46.3032 27.2025C46.7632 24.3525 47.7732 19.7925 47.6732 17.4625C47.4932 13.5925 41.6532 13.4925 40.2132 17.2325Z" fill="white"/>
<path d="M153.443 8.29238C153.409 8.18571 153.396 8.07571 153.403 7.96238C153.416 7.77571 153.519 7.69238 153.713 7.71238C154.979 7.82571 156.249 7.95571 157.523 8.10238C166.913 9.18238 171.653 15.7924 169.293 25.2924C166.573 36.2824 150.383 39.4324 143.753 29.8724C141.639 26.8257 141.086 23.3824 142.093 19.5424C143.346 14.7424 147.039 11.1724 153.173 8.83237C153.278 8.79125 153.364 8.71285 153.414 8.61278C153.464 8.51271 153.475 8.39831 153.443 8.29238ZM155.641 29.4541C157.045 29.5203 158.429 28.7987 159.488 27.4481C160.546 26.0974 161.194 24.2284 161.287 22.2521C161.333 21.2735 161.242 20.298 161.018 19.3814C160.795 18.4648 160.444 17.6249 159.985 16.9098C159.526 16.1946 158.968 15.6182 158.343 15.2134C157.719 14.8087 157.039 14.5835 156.344 14.5507C154.94 14.4845 153.556 15.2061 152.498 16.5567C151.439 17.9073 150.792 19.7764 150.699 21.7527C150.652 22.7312 150.744 23.7067 150.967 24.6233C151.19 25.54 151.542 26.3798 152.001 27.095C152.46 27.8101 153.017 28.3865 153.642 28.7913C154.267 29.1961 154.946 29.4213 155.641 29.4541Z" fill="white"/>
<path d="M71.0744 83.7805C65.5073 90.5454 57.641 85.7038 55.6451 77.9884C53.5318 69.77 56.6822 59.6394 64.0495 56.8664C67.0238 55.7482 69.8579 56.4675 72.5517 59.0244C72.6107 59.0785 72.6815 59.1136 72.7564 59.1256C72.8313 59.1377 72.9074 59.1263 72.9762 59.0928C73.0451 59.0592 73.104 59.0048 73.1465 58.9355C73.189 58.8662 73.2134 58.7848 73.2171 58.7002L73.2855 57.5037C73.3116 57.1012 73.5008 56.8775 73.853 56.8328L80.5844 56.0054C80.891 55.9681 81.0279 56.1246 80.9953 56.475L78.608 81.1193C78.5957 81.2773 78.613 81.436 78.6586 81.5846C78.7041 81.7332 78.777 81.8681 78.8722 81.9803L79.5864 82.8301C79.9321 83.2401 79.8767 83.5569 79.4201 83.7805L73.1681 86.9002C73.0906 86.938 73.007 86.9572 72.9229 86.9566C72.8387 86.956 72.7557 86.9355 72.6793 86.8966C72.6029 86.8577 72.5347 86.8011 72.479 86.7305C72.4234 86.6598 72.3815 86.5768 72.3561 86.4865L71.6418 83.9259C71.531 83.5084 71.3418 83.46 71.0744 83.7805ZM72.1017 66.5273C72.3952 62.7591 66.9455 62.6696 65.4584 65.3644C63.4135 69.0543 63.6679 75.0589 65.5367 78.9053C65.6295 79.0893 65.7534 79.2503 65.9012 79.3789C66.049 79.5075 66.2178 79.6012 66.3977 79.6545C68.0218 80.1241 69.4209 79.6955 70.595 78.3686C70.8298 78.1077 70.97 77.7909 71.0157 77.4182C71.4592 73.8028 71.8212 70.1725 72.1017 66.5273Z" fill="white"/>
<path d="M93.7358 59.8971C96.0883 57.8871 98.6851 56.5933 101.526 56.0158C101.899 55.9408 102.052 56.1321 101.985 56.5896L100.885 63.5871C100.868 63.6905 100.835 63.7888 100.788 63.8762C100.74 63.9637 100.678 64.0385 100.606 64.0961C100.535 64.1538 100.454 64.1933 100.37 64.2121C100.285 64.2309 100.199 64.2288 100.115 64.2058C96.1372 63.1146 92.9751 65.0721 92.5902 70.2808C92.2725 74.6233 91.9395 78.9245 91.5912 83.1845C91.5667 83.5295 91.4201 83.762 91.1513 83.882L84.1215 86.942C83.9884 86.9991 83.8458 87.0144 83.7067 86.9863C83.5676 86.9583 83.4364 86.8879 83.3251 86.7816C83.2139 86.6753 83.1262 86.5365 83.07 86.3778C83.0137 86.2191 82.9908 86.0456 83.0033 85.8733L84.8547 59.5821C84.873 59.306 84.9631 59.0444 85.1115 58.8358C85.26 58.6272 85.4592 58.4826 85.6796 58.4233L93.1493 56.4433C93.2191 56.424 93.2917 56.426 93.3607 56.4489C93.4298 56.4718 93.4933 56.5151 93.5457 56.5749C93.598 56.6348 93.6377 56.7094 93.6613 56.7923C93.6848 56.8753 93.6915 56.964 93.6809 57.0508L93.3784 59.6271C93.3295 60.0471 93.4487 60.1371 93.7358 59.8971Z" fill="white"/>
<path d="M190.983 59.7752C193.228 57.8723 195.704 56.6212 198.411 56.0218C198.867 55.9244 199.059 56.1529 198.985 56.7073L198.032 63.7759C198.022 63.8524 197.999 63.9257 197.965 63.991C197.931 64.0564 197.887 64.1125 197.835 64.1557C197.783 64.199 197.724 64.2285 197.662 64.2425C197.601 64.2564 197.537 64.2544 197.477 64.2367C191.038 62.4386 189.78 66.945 189.429 73.6315C189.256 76.793 189 79.9246 188.661 83.0263C188.612 83.4533 188.42 83.738 188.087 83.8803L181.02 86.9482C180.899 86.9992 180.77 87.0128 180.644 86.9878C180.518 86.9629 180.399 86.9002 180.298 86.8053C180.197 86.7105 180.117 86.5865 180.066 86.4447C180.014 86.3029 179.992 86.1476 180.002 85.993L181.899 59.3819C181.936 58.8425 182.17 58.5204 182.602 58.4155L190.465 56.3814C190.537 56.3635 190.613 56.3689 190.683 56.3972C190.753 56.4255 190.817 56.4756 190.866 56.5426C190.916 56.6096 190.95 56.6911 190.965 56.7791C190.981 56.8672 190.977 56.9586 190.955 57.0445L190.372 59.2358C190.347 59.3326 190.347 59.4365 190.373 59.5329C190.399 59.6293 190.45 59.7134 190.517 59.7731C190.585 59.8328 190.666 59.8651 190.75 59.8655C190.833 59.8659 190.915 59.8343 190.983 59.7752Z" fill="white"/>
<path d="M70.3227 23.5425C70.3285 23.5855 70.3488 23.6251 70.3803 23.6549C70.4117 23.6847 70.4524 23.7029 70.4956 23.7064C70.5388 23.7099 70.5819 23.6985 70.6177 23.6742C70.6536 23.6498 70.68 23.614 70.6927 23.5725L76.0327 8.66251C76.0746 8.54727 76.1565 8.4515 76.262 8.39411C76.3675 8.33671 76.4891 8.32187 76.6027 8.35251L84.0427 10.3125C84.1148 10.3304 84.1819 10.364 84.2395 10.4112C84.2971 10.4583 84.3437 10.5177 84.3761 10.5853C84.4084 10.653 84.4258 10.7271 84.427 10.8026C84.4281 10.8781 84.413 10.9532 84.3827 11.0225L69.4927 44.6225C69.326 44.9892 69.046 45.1259 68.6527 45.0325L62.4127 43.5425C62.026 43.4492 61.9093 43.2192 62.0627 42.8525L65.1727 35.5725C65.306 35.2525 65.3294 34.9258 65.2427 34.5925L59.2727 11.0725C59.1594 10.6192 59.326 10.3358 59.7727 10.2225L67.0827 8.37251C67.1519 8.35624 67.2237 8.35407 67.2937 8.36615C67.3636 8.37823 67.4301 8.40429 67.4892 8.44272C67.5482 8.48115 67.5985 8.53114 67.637 8.58959C67.6754 8.64803 67.7012 8.7137 67.7127 8.78252L70.3227 23.5425Z" fill="white"/>
<path d="M100.453 33.4324C91.5129 38.7424 85.0929 33.2624 84.7629 24.1024C84.4229 14.5624 92.0529 3.35237 102.683 10.8124C102.963 11.0124 103.2 10.9724 103.393 10.6924C103.526 10.4924 103.68 10.309 103.853 10.1424C104.013 9.98904 104.213 9.8857 104.453 9.83236C106.946 9.29903 109.296 8.80904 111.503 8.36238C111.633 8.33769 111.767 8.34412 111.894 8.38115C112.021 8.41817 112.138 8.48474 112.235 8.57542C112.331 8.6661 112.405 8.77832 112.45 8.90292C112.495 9.02752 112.509 9.16096 112.493 9.29237C111.786 15.0857 111.17 20.7924 110.643 26.4124C110.196 31.1924 109.446 34.7057 108.393 36.9524C104.72 44.799 97.7462 47.8324 87.4729 46.0524C86.1462 45.8257 85.6595 45.0624 86.0129 43.7624L87.3529 38.8224C87.4462 38.4824 87.6529 38.3857 87.9729 38.5324C94.1862 41.4257 98.5029 39.859 100.923 33.8324C101.17 33.2324 101.013 33.099 100.453 33.4324ZM96.9029 14.8424C93.8829 17.4924 92.2329 24.9024 94.6329 28.1424C96.1829 30.2424 99.2329 29.3124 100.623 27.6624C102.163 25.8124 101.973 21.8124 102.113 19.3424C102.273 16.4124 100.663 14.5324 97.8029 14.5124C97.4673 14.5122 97.1476 14.6294 96.9029 14.8424Z" fill="white"/>
<path d="M124.243 26.2427C127.063 31.0927 133.533 28.8527 137.483 26.8827C137.554 26.8474 137.632 26.8314 137.711 26.8362C137.79 26.841 137.866 26.8665 137.932 26.9101C137.998 26.9536 138.051 27.0138 138.086 27.0845C138.122 27.1551 138.138 27.2339 138.133 27.3127L137.843 32.5127C137.823 32.7794 137.693 32.9727 137.453 33.0927C134.5 34.4994 131.88 35.2994 129.593 35.4927C121.423 36.1727 115.203 30.6527 115.033 22.5327C114.773 10.2127 133.543 1.38269 138.753 14.8127C139.593 16.9727 139.443 19.0327 137.943 20.9127C134.263 25.5027 130.043 25.3827 124.603 25.5927C124.123 25.606 124.003 25.8227 124.243 26.2427ZM124.333 19.2527C124.213 19.806 124.433 20.0494 124.993 19.9827C127.246 19.7227 129.393 18.996 131.433 17.8027C131.731 17.6309 131.969 17.3706 132.113 17.0578C132.257 16.745 132.3 16.3952 132.236 16.0568C132.172 15.7185 132.005 15.4083 131.757 15.1693C131.509 14.9302 131.193 14.7742 130.853 14.7227C127.273 14.1627 125.1 15.6727 124.333 19.2527Z" fill="white"/>
<path d="M162.389 76.3693C164.897 81.9978 170.746 79.5139 174.304 77.2124C174.702 76.9618 174.902 77.1175 174.902 77.6796V83.308C174.902 83.7182 174.754 84.0144 174.458 84.1967C171.699 85.9058 169.36 86.8287 167.441 86.9654C154.729 87.8883 149.505 70.137 158.532 59.9169C163.647 54.1061 173.399 54.1973 175.698 64.03C177.862 73.2133 167.848 76.2326 162.787 75.6173C162.274 75.549 162.141 75.7996 162.389 76.3693ZM162.389 68.1431C162.099 69.0242 162.329 69.4154 163.077 69.3166C165.389 69.0052 167.489 68.0368 169.379 66.4113C169.503 66.3031 169.6 66.1512 169.657 65.9734C169.715 65.7957 169.731 65.5997 169.705 65.4086C169.505 64.1553 168.844 63.4489 167.722 63.2894C165.35 62.94 163.572 64.5579 162.389 68.1431Z" fill="white"/>
</svg>
