<svg width="272" height="310" viewBox="0 0 272 310" fill="none" xmlns="http://www.w3.org/2000/svg">
<g clip-path="url(#clip0_69_2)">
<path fill-rule="evenodd" clip-rule="evenodd" d="M265.955 310H6.04534C2.7063 310 0 307.366 0 304.118V64H272V304.118C272 307.366 269.293 310 265.955 310Z" fill="#1F2225"/>
<path fill-rule="evenodd" clip-rule="evenodd" d="M156 266H258C260.21 266 262 267.791 262 270V296C262 298.209 260.21 300 258 300H156C153.791 300 152 298.209 152 296V270C152 267.791 153.791 266 156 266Z" fill="#4F545C"/>
<path fill-rule="evenodd" clip-rule="evenodd" d="M15.0223 272H140.978C142.648 272 144 273.344 144 275.001V290.999C144 292.656 142.648 294 140.978 294H15.0223C13.353 294 12 292.656 12 290.999V275.001C12 273.344 13.353 272 15.0223 272Z" fill="#36393F"/>
<path fill-rule="evenodd" clip-rule="evenodd" d="M11.9956 74H142.004C143.106 74 144 74.9775 144 76.182V83.818C144 85.0235 143.106 86 142.004 86H11.9956C10.894 86 10 85.0235 10 83.818V76.182C10 74.9775 10.894 74 11.9956 74Z" fill="#72767D"/>
<path fill-rule="evenodd" clip-rule="evenodd" d="M37.0208 90H68.9792C70.0947 90 71 90.9775 71 92.182V99.818C71 101.024 70.0947 102 68.9792 102H37.0208C35.9053 102 35 101.024 35 99.818V92.182C35 90.9775 35.9053 90 37.0208 90ZM77 90H169.966C171.07 90 171.966 90.9775 171.966 92.182V99.818C171.966 101.024 171.07 102 169.966 102H77C75.896 102 75 101.024 75 99.818V92.182C75 90.9775 75.896 90 77 90ZM253.998 91H260.002C261.105 91 262 91.8146 262 92.8183V99.1817C262 100.186 261.105 101 260.002 101H253.998C252.895 101 252 100.186 252 99.1817V92.8183C252 91.8146 252.895 91 253.998 91ZM239.998 91H246.002C247.105 91 248 91.8146 248 92.8183V99.1817C248 100.186 247.105 101 246.002 101H239.998C238.895 101 238 100.186 238 99.1817V92.8183C238 91.8146 238.895 91 239.998 91ZM37.0228 106H96.9772C98.0948 106 99 106.978 99 108.182V115.818C99 117.024 98.0948 118 96.9772 118H37.0228C35.9062 118 35 117.024 35 115.818V108.182C35 106.978 35.9062 106 37.0228 106ZM36.9713 122H75.0287C76.1178 122 77 122.978 77 124.182V131.818C77 133.024 76.1178 134 75.0287 134H36.9713C35.8832 134 35 133.024 35 131.818V124.182C35 122.978 35.8832 122 36.9713 122ZM104.973 106H149.027C150.116 106 151 106.978 151 108.182V115.818C151 117.024 150.116 118 149.027 118H104.973C103.884 118 103 117.024 103 115.818V108.182C103 106.978 103.884 106 104.973 106ZM253.998 107H260.002C261.105 107 262 107.815 262 108.818V115.182C262 116.186 261.105 117 260.002 117H253.998C252.895 117 252 116.186 252 115.182V108.818C252 107.815 252.895 107 253.998 107Z" fill="#36393F"/>
<path fill-rule="evenodd" clip-rule="evenodd" d="M25.0005 90C28.3139 90 31 92.6861 31 95.9995C31 99.3139 28.3139 102 25.0005 102C21.6861 102 19 99.3139 19 95.9995C19 92.6861 21.6861 90 25.0005 90ZM25.0005 106C28.3139 106 31 108.686 31 111.999C31 115.314 28.3139 118 25.0005 118C21.6861 118 19 115.314 19 111.999C19 108.686 21.6861 106 25.0005 106ZM25.0005 122C28.3139 122 31 124.686 31 127.999C31 131.314 28.3139 134 25.0005 134C21.6861 134 19 131.314 19 127.999C19 124.686 21.6861 122 25.0005 122Z" fill="#B9BBBE"/>
<path fill-rule="evenodd" clip-rule="evenodd" d="M253.998 123H260.002C261.105 123 262 123.815 262 124.818V131.182C262 132.186 261.105 133 260.002 133H253.998C252.895 133 252 132.186 252 131.182V124.818C252 123.815 252.895 123 253.998 123Z" fill="#36393F"/>
<path fill-rule="evenodd" clip-rule="evenodd" d="M11.9918 142H160.008C161.108 142 162 142.978 162 144.182V151.818C162 153.024 161.108 154 160.008 154H11.9918C10.8923 154 10 153.024 10 151.818V144.182C10 142.978 10.8923 142 11.9918 142ZM11.9903 162H192.01C193.109 162 194 162.977 194 164.182V171.818C194 173.023 193.109 174 192.01 174H11.9903C10.8916 174 10 173.023 10 171.818V164.182C10 162.977 10.8916 162 11.9903 162Z" fill="#72767D"/>
<path fill-rule="evenodd" clip-rule="evenodd" d="M12.003 190H143.997C145.103 190 146 190.978 146 192.182V199.818C146 201.024 145.103 202 143.997 202H12.003C10.8973 202 10 201.024 10 199.818V192.182C10 190.978 10.8973 190 12.003 190Z" fill="#4F545C"/>
<path fill-rule="evenodd" clip-rule="evenodd" d="M36.9733 206H103.027C104.117 206 105 206.978 105 208.182V215.818C105 217.024 104.117 218 103.027 218H36.9733C35.884 218 35 217.024 35 215.818V208.182C35 206.978 35.884 206 36.9733 206ZM36.9925 222H165.008C166.108 222 167 222.978 167 224.182V231.818C167 233.024 166.108 234 165.008 234H36.9925C35.8926 234 35 233.024 35 231.818V224.182C35 222.978 35.8926 222 36.9925 222ZM37.0228 238H64.9772C66.0938 238 67 238.978 67 240.182V247.818C67 249.024 66.0938 250 64.9772 250H37.0228C35.9062 250 35 249.024 35 247.818V240.182C35 238.978 35.9062 238 37.0228 238Z" fill="#36393F"/>
<path fill-rule="evenodd" clip-rule="evenodd" d="M25.0005 206C28.3139 206 31 208.686 31 211.999C31 215.314 28.3139 218 25.0005 218C21.6861 218 19 215.314 19 211.999C19 208.686 21.6861 206 25.0005 206ZM25.0005 222C28.3139 222 31 224.686 31 227.999C31 231.314 28.3139 234 25.0005 234C21.6861 234 19 231.314 19 227.999C19 224.686 21.6861 222 25.0005 222ZM25.0005 238C28.3139 238 31 240.686 31 243.999C31 247.314 28.3139 250 25.0005 250C21.6861 250 19 247.314 19 243.999C19 240.686 21.6861 238 25.0005 238Z" fill="#B9BBBE"/>
<path fill-rule="evenodd" clip-rule="evenodd" d="M83.9801 122H176.02C177.113 122 178 122.978 178 124.182V131.818C178 133.024 177.113 134 176.02 134H83.9801C82.8871 134 82 133.024 82 131.818V124.182C82 122.978 82.8871 122 83.9801 122Z" fill="#36393F"/>
<path fill-rule="evenodd" clip-rule="evenodd" d="M272 64H0V6.01928C0 2.69563 2.7063 0 6.04534 0H265.955C269.293 0 272 2.69563 272 6.01928V64Z" fill="#5865F2"/>
<path fill-rule="evenodd" clip-rule="evenodd" d="M210.029 18H259.971C261.092 18 262 18.9775 262 20.182V27.818C262 29.0235 261.092 30 259.971 30H210.029C208.909 30 208 29.0235 208 27.818V20.182C208 18.9775 208.909 18 210.029 18ZM199.992 34H260.008C261.108 34 262 34.9775 262 36.182V43.818C262 45.0235 261.108 46 260.008 46H199.992C198.893 46 198 45.0235 198 43.818V36.182C198 34.9775 198.893 34 199.992 34Z" fill="white"/>
<mask id="mask0_69_2" style="mask-type:luminance" maskUnits="userSpaceOnUse" x="10" y="10" width="24" height="22">
<path d="M10.0297 12.8676C9.99009 16.2339 9.99009 18.44 10.0297 19.4857C10.0515 20.0608 10.2593 20.6822 10.6531 21.3498C10.6876 21.4088 10.6991 21.4718 10.6876 21.5388C10.6748 21.6032 10.6895 21.6609 10.7317 21.7118C11.109 22.1649 11.5309 22.5584 11.9976 22.8922C13.8006 24.1833 16.2077 23.4915 17.7671 22.0356C17.9077 21.8948 18.0855 21.7111 18.3003 21.4846C18.4601 21.3156 18.597 21.1031 18.7108 20.8471C19.2363 19.662 20.0214 18.7771 21.0661 18.1926C23.9144 16.602 27.1559 18.5707 28.7575 21.0421C28.8137 21.128 28.7952 21.1527 28.7018 21.1165C27.4148 20.6138 26.1528 21.561 25.3414 22.669C23.2834 25.1083 24.1714 28.8969 26.4155 30.751C28.0555 32.1064 29.5419 32.1004 31.7016 31.9073C32.2061 31.8611 32.4689 31.6137 32.7777 31.2397C33.1191 30.7786 33.2731 30.1156 33.2399 29.2509C33.0634 24.7946 33.2744 18.5445 33.2111 13.2014C33.2073 12.7738 33.1292 12.3608 32.9771 11.9627C32.9641 11.9271 32.9432 11.8952 32.9161 11.8693C32.8893 11.8435 32.8569 11.8245 32.8218 11.8139C32.6018 11.7441 32.4368 11.6054 32.3269 11.3976C32.296 11.3393 32.2464 11.2949 32.1869 11.2729C31.8436 11.1482 31.5329 11.0035 31.1588 11.0035C24.9329 10.9981 18.7089 10.9988 12.4867 11.0055C11.2323 11.0075 10.4229 11.6329 10.0297 12.8676Z" fill="white"/>
</mask>
<g mask="url(#mask0_69_2)">
<path d="M32.7777 31.2396L32.3058 30.6002C32.265 30.5453 32.2118 30.5183 32.1466 30.5197C28.2473 30.568 25.4239 27.8914 25.4603 23.7207C25.4642 23.3486 25.773 22.9987 25.3414 22.6689" stroke="#67AFFF" stroke-width="2"/>
<path d="M17.7671 22.0355C15.7225 21.8237 14.0538 20.9221 12.7611 19.3308C11.6524 17.9673 10.9581 16.7024 10.6723 14.965C10.5534 14.2397 10.3392 13.5406 10.0298 12.8676" stroke="#67AFFF" stroke-width="2"/>
</g>
<path d="M41.7536 16.2181C41.7601 16.2331 41.7707 16.2457 41.7839 16.2543C41.797 16.2629 41.8121 16.2672 41.8275 16.2665C41.8428 16.2659 41.8576 16.2604 41.8702 16.2508C41.8826 16.2411 41.8922 16.2277 41.8977 16.2122C41.972 16.0032 42.1136 15.8697 42.3229 15.8119C42.3546 15.8033 42.384 15.7867 42.4087 15.7634C42.4335 15.7401 42.4528 15.7108 42.4652 15.6778C42.515 15.5503 42.5753 15.4649 42.6459 15.4215C43.5887 14.8404 44.5144 14.8602 45.4232 15.4806C45.4792 15.5188 45.5211 15.57 45.5491 15.6344L45.5856 15.7153C45.6062 15.7639 45.6409 15.7935 45.6896 15.804C45.8879 15.8448 46.0363 15.9605 46.1348 16.1511C47.0253 17.8725 47.4194 20.6114 46.3775 22.3841C46.347 22.4354 46.3277 22.4913 46.3191 22.5517L46.2717 22.9086C46.2682 22.9308 46.2602 22.9517 46.2481 22.9698C46.2361 22.988 46.2204 23.0028 46.2023 23.0132C45.8799 23.1959 45.6385 23.4588 45.4779 23.8019C45.4474 23.8663 45.3989 23.8998 45.3319 23.9025C45.1398 23.909 45.0047 23.9281 44.9268 23.9597C43.7274 24.4408 42.6928 24.1989 41.8229 23.234C41.818 23.2281 41.8114 23.2241 41.8043 23.2225C41.7972 23.2208 41.7897 23.2217 41.7828 23.2249C41.7758 23.228 41.77 23.2334 41.7656 23.2403C41.7614 23.2472 41.7592 23.2553 41.759 23.2636L41.7937 27.8699C41.7937 27.9566 41.7541 28 41.6751 28H39.1369C39.0456 28 39 27.9507 39 27.8521V15.2815C39 15.2553 39.0097 15.2303 39.0266 15.2118C39.0438 15.1933 39.067 15.1829 39.0912 15.1829H41.1934C41.2222 15.1829 41.2505 15.1917 41.2751 15.2085C41.2996 15.2252 41.3193 15.2492 41.332 15.2775L41.7536 16.2181ZM43.9287 18.608C43.9323 17.3914 42.3484 16.9004 41.9689 18.2432C41.7444 19.0339 41.5729 21.2326 42.5163 21.6131C43.0528 21.8281 43.905 21.5993 43.9123 20.7988C43.9208 20.0718 43.9263 19.3415 43.9287 18.608Z" fill="white"/>
<path d="M54.8079 15.9005C55.1453 15.9063 55.3376 16.0972 55.3848 16.4734C55.3947 16.5492 55.4203 16.6178 55.4614 16.6794C55.79 17.1857 55.9612 17.7121 55.9748 18.2584C56.0084 19.6258 56.0084 21.7792 55.9748 24.7186C55.9748 24.783 55.9468 24.8151 55.8908 24.8151H54.0331C54.0036 24.8152 53.9748 24.8063 53.9494 24.7893C53.9242 24.7724 53.9033 24.7479 53.8893 24.7186L53.4842 23.8647C53.4683 23.8311 53.445 23.8029 53.4164 23.783C53.388 23.7632 53.3555 23.7522 53.3219 23.7514C53.2885 23.7505 53.2555 23.7597 53.226 23.7781C53.1965 23.7965 53.1715 23.8233 53.1537 23.8561C52.4162 25.2292 50.258 25.197 49.1769 24.6392C48.488 24.283 48.1482 23.294 48.0437 22.5173C47.8607 21.1685 48.2528 20.13 49.2199 19.402C49.2662 19.367 49.32 19.3476 49.3749 19.3462C49.7464 19.3376 49.991 19.078 50.286 19.0072C51.192 18.7898 52.1082 18.6911 53.0342 18.7112C53.1462 18.714 53.1823 18.6547 53.1425 18.5331L52.8998 17.7907C52.875 17.7135 52.827 17.6663 52.756 17.6491C51.7068 17.4045 50.7148 17.5676 49.78 18.1383C49.7091 18.1812 49.6581 18.1598 49.6269 18.0739L48.9305 16.1151C48.9081 16.0493 48.9243 16.0007 48.979 15.9692C50.5959 15.0402 52.8979 14.5188 54.5559 15.6216C54.5982 15.6502 54.6318 15.7031 54.6567 15.7804C54.6828 15.8605 54.7332 15.9005 54.8079 15.9005ZM51.5107 20.8717C50.3084 21.4681 51.1952 23.0515 52.1175 22.6675C52.919 22.3342 53.2545 21.6855 53.1238 20.7215C53.1139 20.65 53.0772 20.6106 53.0137 20.6035C52.4835 20.5477 51.9825 20.6371 51.5107 20.8717Z" fill="white"/>
<path d="M68.5134 21.2241C68.4602 21.2299 68.4104 21.2538 68.3714 21.2919C68.3325 21.3299 68.3068 21.3802 68.2981 21.4347C68.2893 21.4893 68.2984 21.5451 68.3235 21.5936C68.3488 21.6421 68.3887 21.6806 68.4374 21.703C69.3478 22.1287 70.3989 21.9946 71.3815 21.9907C71.6082 21.9894 72.029 22.0912 72.6435 22.2962C73.1624 22.4696 73.3905 22.7672 73.7231 23.1732C73.7636 23.2231 73.7858 23.2803 73.7896 23.3446C73.8523 24.3517 74.0139 25.3036 73.4532 26.293C73.4228 26.3468 73.3785 26.383 73.3202 26.4014C73.1529 26.4552 73.0402 26.5715 72.9818 26.7502C72.9604 26.8172 72.9204 26.8678 72.8621 26.902C70.912 28.0431 67.5346 28.6343 65.6662 26.9572C64.3662 25.7924 65.1055 23.8452 66.7059 23.5476C66.7403 23.5414 66.772 23.524 66.7963 23.4979C66.8207 23.4719 66.8365 23.4385 66.8412 23.4026C66.8462 23.3666 66.8399 23.33 66.8233 23.298C66.807 23.266 66.7811 23.2403 66.7496 23.2244C66.253 22.9748 66.0021 22.5911 65.9969 22.0735C65.9931 21.5039 66.4645 21.1354 66.8636 20.8023C66.8817 20.7871 66.8967 20.7681 66.9073 20.7466C66.918 20.7251 66.9241 20.7016 66.9252 20.6776C66.9265 20.6536 66.9229 20.6297 66.9146 20.6073C66.9062 20.585 66.8935 20.5648 66.8769 20.5481L66.0958 19.7381C66.054 19.6947 66.0292 19.6421 66.0216 19.5804C65.8677 18.4373 65.556 17.7515 66.0882 16.6715C66.8085 15.2111 68.8726 14.8307 70.2734 15.0633C71.4936 15.2643 72.6701 15.1737 73.877 15.1953C73.9468 15.1967 73.9829 15.2334 73.9854 15.3057C74.0019 15.667 74.0044 16.0172 73.993 16.3561C73.974 16.9454 73.3924 16.8567 73.0541 17.1169C73.0033 17.1563 72.9818 17.2089 72.9894 17.2745C73.0883 18.0944 73.2422 19.3971 72.5504 19.9076C72.4996 19.9443 72.4592 19.991 72.4287 20.0475L72.1798 20.5027C72.1666 20.5273 72.1461 20.5468 72.1216 20.5585C72.0971 20.5702 72.0693 20.5734 72.0429 20.5678C71.8249 20.5165 71.6463 20.5757 71.5069 20.7451C71.4626 20.8003 71.4081 20.8404 71.3435 20.8654C70.6541 21.136 69.9389 21.2523 69.1976 21.2142C68.9353 21.2011 68.7073 21.2043 68.5134 21.2241ZM69.385 19.472C69.5036 19.4724 69.6211 19.4378 69.731 19.3702C69.8406 19.3026 69.9404 19.2032 70.0248 19.0778C70.109 18.9523 70.1761 18.8033 70.2219 18.6392C70.2679 18.4751 70.2918 18.2991 70.2924 18.1213C70.293 17.9435 70.2702 17.7674 70.2255 17.6029C70.1807 17.4385 70.1147 17.289 70.0313 17.163C69.9478 17.0369 69.8486 16.9369 69.7393 16.8684C69.63 16.8 69.5128 16.7645 69.3942 16.7641C69.2756 16.7637 69.1581 16.7983 69.0482 16.8659C68.9386 16.9336 68.8386 17.0329 68.7544 17.1583C68.6702 17.2838 68.6031 17.4328 68.5573 17.5969C68.5113 17.761 68.4874 17.937 68.4868 18.1148C68.4862 18.2926 68.509 18.4687 68.5537 18.6332C68.5985 18.7976 68.6645 18.9471 68.7479 19.0731C68.8314 19.1992 68.9306 19.2992 69.0399 19.3677C69.1492 19.4361 69.2664 19.4716 69.385 19.472ZM67.5213 25.0829C67.4947 25.3115 67.5897 25.4652 67.7912 25.5776C68.7478 26.1097 69.7203 26.1235 70.7087 25.619C71.0584 25.4416 71.4461 25.5382 71.429 24.9095C71.4252 24.7833 71.365 24.7012 71.2484 24.6631C70.3608 24.3675 68.4431 24.1014 67.6467 24.8385C67.5758 24.9042 67.534 24.9857 67.5213 25.0829Z" fill="white"/>
<path d="M82.3862 17.0645C83.0352 18.2295 83.0516 19.5017 82.9592 20.9069C82.9536 20.9913 82.9105 21.0335 82.8298 21.0335H77.3753C77.2932 21.0335 77.2535 21.0764 77.2562 21.1622C77.2726 21.8445 77.8826 22.3358 78.4494 22.5417C79.4803 22.9193 80.8254 22.5396 81.8194 22.0719C81.8673 22.0493 81.9196 22.0396 81.972 22.0436C82.0242 22.0477 82.0747 22.0653 82.1188 22.095C82.163 22.1246 82.1991 22.1653 82.2244 22.2134C82.2497 22.2614 82.2628 22.3153 82.263 22.3701V24.2001C82.263 24.2904 82.233 24.3778 82.1784 24.4478C82.1238 24.5177 82.0478 24.5659 81.9632 24.5841C80.3326 24.9252 78.8088 25.2471 77.1207 24.7257C76.8865 24.6549 76.6237 24.7429 76.4306 24.6185C75.6969 24.1479 75.0602 23.5615 74.5207 22.8592C74.4782 22.8035 74.4585 22.7405 74.4612 22.6704C74.4838 22.2585 74.2414 22.0097 74.1737 21.6921C73.8287 20.0531 73.9977 18.4683 74.6809 16.938C74.7097 16.8722 74.7542 16.8214 74.8144 16.7856C75.1198 16.6011 75.3531 16.3451 75.5147 16.0176C75.549 15.9475 75.603 15.9082 75.6769 15.8996C76.0754 15.8545 76.2807 15.5563 76.5703 15.4319C78.6096 14.5587 81.2177 14.9642 82.3862 17.0645ZM77.3486 18.8366L79.9321 18.828C79.943 18.828 79.9535 18.8235 79.9611 18.8155C79.9689 18.8074 79.9732 18.7965 79.9732 18.7851V18.7615C79.9726 18.5815 79.9379 18.4033 79.8707 18.2372C79.8038 18.0711 79.7058 17.9203 79.5824 17.7934C79.4589 17.6665 79.3125 17.566 79.1517 17.4976C78.9907 17.4292 78.8184 17.3943 78.6445 17.3949H78.628C78.2767 17.3961 77.9403 17.5416 77.6926 17.7995C77.4449 18.0574 77.3065 18.4065 77.3075 18.7701V18.7937C77.3075 18.8051 77.3119 18.816 77.3197 18.8241C77.3273 18.8321 77.3377 18.8366 77.3486 18.8366Z" fill="white"/>
<path d="M83.3051 21.955C82.7132 20.1669 83.0756 18.8049 83.6031 17.0724C83.6241 17.0032 83.6674 16.9434 83.726 16.9033L84.0924 16.6527C84.1557 16.6101 84.2006 16.5432 84.2173 16.4664C84.3461 15.8946 84.8254 15.9011 85.1596 15.6955C86.196 15.0559 87.2933 14.8574 88.4517 15.1001C90.0444 15.4364 91.7801 16.8604 91.917 18.7064C92.0338 20.2761 92.1808 22.0985 91.172 23.1928C91.1263 23.2427 91.1036 23.3027 91.1036 23.3726C91.1036 23.6382 90.9781 23.7909 90.727 23.8309C90.6626 23.8409 90.6068 23.8688 90.5599 23.9144C90.1773 24.2828 89.9216 24.5869 89.382 24.6961C88.2141 24.9338 87.3121 25.2164 86.0435 24.7453C85.816 24.6618 85.4375 24.7303 85.3066 24.6318C84.6435 24.125 84.0582 23.5304 83.5508 22.848C83.5119 22.7952 83.4898 22.7359 83.4843 22.6702C83.4737 22.5218 83.4139 22.2833 83.3051 21.955ZM88.2806 22.2248C88.9491 21.6295 88.8524 19.443 88.641 18.6443C88.5907 18.4558 88.4558 18.3744 88.4839 18.1068C88.4904 18.0447 88.4753 17.9823 88.4417 17.9312C88.1416 17.4857 87.5235 17.6185 87.0805 17.6099C87.0501 17.6099 87.0201 17.6166 86.9927 17.6295C86.9653 17.6425 86.941 17.6613 86.9214 17.6849C86.5818 18.0903 86.3657 18.4758 86.2731 18.8413C86.0355 19.7878 86.0335 21.8051 87.002 22.3961C87.4315 22.6588 87.8577 22.6017 88.2806 22.2248Z" fill="white"/>
<path d="M95.1211 16.3131L95.2435 15.9526C95.2621 15.8949 95.301 15.8587 95.3598 15.8443C95.8071 15.734 96.0298 15.405 96.3788 15.2631C97.1089 14.9676 97.8557 14.921 98.6193 15.1233C99.1328 15.2592 99.54 15.6493 100.074 15.8699C100.134 15.8949 100.173 15.9382 100.192 15.9999C100.328 16.4392 100.641 16.715 100.764 17.1228C101.165 18.4722 100.94 21.1061 100.912 23.9054C100.912 23.9685 100.88 24 100.816 24H97.7749C97.7027 24 97.6666 23.9645 97.6666 23.8936C97.6732 22.1206 97.6619 20.3542 97.6325 18.5944C97.6224 17.9581 97.3236 17.4597 96.6656 17.4242C95.6266 17.3671 95.2054 18.6318 95.2094 19.4415C95.2174 20.9282 95.2154 22.4142 95.2034 23.8995C95.2034 23.9665 95.1693 24 95.1011 24H92.1504C92.0501 24 92 23.9508 92 23.8523V15.2828C92 15.2567 92.0106 15.2317 92.0293 15.2132C92.0481 15.1947 92.0736 15.1843 92.1003 15.1843H94.2105C94.2813 15.1843 94.3314 15.2159 94.3609 15.2789L94.8523 16.3289C94.8646 16.3549 94.8842 16.3767 94.9093 16.3914C94.9342 16.4061 94.9631 16.4131 94.9921 16.4114C95.0212 16.4097 95.0491 16.3994 95.0722 16.3818C95.0952 16.3643 95.1123 16.3404 95.1211 16.3131Z" fill="white"/>
<path d="M61.1078 20.9975C61.1992 20.4192 61.1362 19.9389 61.3596 19.3946C61.6398 18.7122 61.857 18.1599 62.0255 17.3774C62.1975 16.5823 62.4722 15.8205 62.8498 15.0921C62.8823 15.0307 62.9337 15 63.0041 15H65.8974C65.9147 15.0002 65.9315 15.0045 65.9465 15.0128C65.9618 15.021 65.9744 15.0328 65.9837 15.0471C65.993 15.0614 65.9985 15.0778 65.9997 15.0947C66.001 15.1116 65.9979 15.1286 65.9908 15.1441C65.7715 15.6324 65.5386 16.1187 65.2924 16.6029C65.1868 16.8091 65.27 17.0552 65.1563 17.3054C64.9046 17.8637 64.4092 18.6862 64.4274 19.2905C64.4301 19.3559 64.4138 19.4173 64.3787 19.4746C63.9903 20.1257 63.7067 20.8168 63.528 21.5478C63.3737 22.1822 62.9696 22.7065 62.8214 23.3589C62.7388 23.7191 62.6482 24.0006 62.5494 24.2034C62.192 24.9338 61.9139 26.0205 61.2702 26.5268C61.2189 26.5681 61.1856 26.6202 61.1707 26.6829C61.0367 27.2312 60.5616 27.1491 60.188 27.4013C59.246 28.0376 57.9871 28.1257 56.9029 27.8575C56.8434 27.8429 56.8136 27.8055 56.8136 27.7455V25.5022C56.8136 25.4195 56.8542 25.3861 56.9354 25.4021C57.3847 25.4848 57.8363 25.4882 58.2897 25.4121C58.3096 25.4082 58.3286 25.3985 58.3445 25.3841L59.3069 24.4475C59.3209 24.4343 59.3323 24.4182 59.3398 24.4003C59.3475 24.3824 59.3515 24.3631 59.3515 24.3435V23.4029C59.3515 23.3393 59.331 23.2775 59.2927 23.2268C59.0389 22.8866 58.9252 22.5704 58.6592 22.1022C58.5089 21.834 58.5577 21.5298 58.446 21.2657C58.2375 20.7841 58.0109 20.3118 57.7658 19.8488C57.7352 19.7899 57.722 19.7241 57.7273 19.6587C57.7821 18.9543 56.9273 18.368 56.9151 17.4154C56.9137 17.3514 56.8954 17.292 56.8603 17.2373C56.4353 16.5809 56.1497 15.8739 56.0035 15.1161C55.9887 15.0387 56.0211 15 56.1009 15H59.2013C59.2352 14.9998 59.2681 15.0122 59.2937 15.0347C59.3191 15.0572 59.3353 15.0883 59.3394 15.1221C59.4551 16.1667 59.7739 16.8811 60.119 17.8497C60.2104 18.1018 60.119 18.408 60.2469 18.7042C60.5691 19.4473 60.827 20.2131 61.0205 21.0015C61.0556 21.1483 61.0849 21.1469 61.1078 20.9975Z" fill="white"/>
<path d="M32.5377 31L32.0702 30.3681C32.0297 30.3138 31.9771 30.2872 31.9125 30.2886C28.0491 30.3363 25.2519 27.6914 25.288 23.5701C25.2918 23.2025 25.5977 22.8567 25.1702 22.5309C25.974 21.436 27.2244 20.5 28.4995 20.9968C28.592 21.0326 28.6103 21.0081 28.5546 20.9233C26.9679 18.4811 23.7563 16.5357 20.9344 18.1075C19.8994 18.6851 19.1215 19.5594 18.6008 20.7305C18.4881 20.9835 18.3525 21.1935 18.1941 21.3604C17.9813 21.5843 17.8052 21.7658 17.6658 21.9049C15.6401 21.6956 13.9868 20.8047 12.706 19.2322C11.6077 17.885 10.9197 16.6351 10.6366 14.9182C10.5188 14.2015 10.3066 13.5106 10 12.8456C10.3896 11.6255 11.1915 11.0075 12.4343 11.0055C18.5989 10.9989 24.7654 10.9982 30.9338 11.0035C31.3044 11.0035 31.6122 11.1466 31.9524 11.2698C32.0113 11.2915 32.0605 11.3354 32.0911 11.393C32.2 11.5983 32.3634 11.7355 32.5814 11.8043C32.6161 11.8149 32.6483 11.8337 32.6749 11.8592C32.7017 11.8847 32.7224 11.9162 32.7353 11.9514C32.886 12.3448 32.9633 12.7529 32.9671 13.1755C33.0298 18.4553 32.8208 24.6313 32.9956 29.0347C33.0285 29.8892 32.8759 30.5444 32.5377 31Z" fill="white"/>
<path d="M23 19.5C23 19.7761 23.2239 20 23.5 20C23.7761 20 24 19.7761 24 19.5C24 19.2239 23.7761 19 23.5 19C23.2239 19 23 19.2239 23 19.5Z" fill="white"/>
<path d="M10.0306 13C10.3493 13.6915 10.57 14.4099 10.6924 15.1552C10.9868 16.9405 11.7019 18.2403 12.8438 19.6413C14.1753 21.2764 15.8941 22.2029 18 22.4205C16.3939 23.9165 13.9146 24.6274 12.0575 23.3008C11.5768 22.9578 11.1422 22.5534 10.7537 22.0878C10.7102 22.0355 10.6951 21.9762 10.7082 21.9101C10.7201 21.8412 10.7082 21.7765 10.6727 21.7159C10.267 21.0299 10.053 20.3913 10.0306 19.8004C9.98979 18.7259 9.98979 16.4591 10.0306 13Z" fill="#759DFF"/>
<path d="M25.2126 23C25.6646 23.3181 25.3412 23.6556 25.3372 24.0144C25.299 28.0373 28.2557 30.619 32.3392 30.5725C32.4075 30.5711 32.4631 30.5971 32.5059 30.6501L33 31.2669C32.6766 31.6277 32.4014 31.8662 31.8732 31.9109C29.6115 32.0971 28.0548 32.1029 26.3374 30.7955C23.9874 29.0072 23.0574 25.3528 25.2126 23Z" fill="#759DFF"/>
</g>
<defs>
<clipPath id="clip0_69_2">
<rect width="272" height="310" fill="white"/>
</clipPath>
</defs>
</svg>
