<svg width="57" height="57" viewBox="0 0 57 57" fill="none" xmlns="http://www.w3.org/2000/svg">
<g clip-path="url(#clip0_513_5184)">
<path d="M41.6704 39.9194L41.0817 32.8529C41.0447 32.4094 40.8329 31.9722 40.4927 31.6377C40.1526 31.3031 39.712 31.0985 39.2679 31.0689C38.8238 31.0392 38.4126 31.187 38.1247 31.4797C37.8368 31.7724 37.6958 32.186 37.7328 32.6296L37.9987 35.6807L30.8585 28.6574L36.9017 22.5135L37.1441 25.5631C37.1615 25.7829 37.2223 26.0036 37.3231 26.2125C37.4239 26.4214 37.5626 26.6144 37.7312 26.7803C37.8998 26.9461 38.095 27.0816 38.3056 27.1789C38.5161 27.2762 38.7378 27.3334 38.9579 27.3472C39.1781 27.3628 39.3927 27.3347 39.5893 27.2645C39.7859 27.1944 39.9605 27.0836 40.1033 26.9385C40.246 26.7934 40.3539 26.6169 40.4208 26.4192C40.4877 26.2214 40.5122 26.0064 40.493 25.7865L39.9043 18.72C39.8869 18.5002 39.826 18.2795 39.7253 18.0706C39.6245 17.8617 39.4858 17.6687 39.3172 17.5029C39.1486 17.337 38.9534 17.2015 38.7428 17.1042C38.5323 17.0069 38.3106 16.9497 38.0905 16.936L31.0153 16.464C30.5712 16.4344 30.16 16.5822 29.8721 16.8749C29.5842 17.1676 29.4432 17.5812 29.4802 18.0247C29.5171 18.4683 29.729 18.9054 30.0691 19.24C30.4093 19.5746 30.8499 19.7792 31.294 19.8088L34.3471 20.0007L28.3038 26.1446L21.1636 19.1214L24.2188 19.3369C24.6628 19.3665 25.0741 19.2187 25.362 18.926C25.6499 18.6333 25.7908 18.2197 25.7539 17.7762C25.7169 17.3326 25.5051 16.8955 25.1649 16.5609C24.8248 16.2263 24.3842 16.0217 23.9401 15.9921L16.8649 15.5202C16.6447 15.5046 16.4301 15.5327 16.2335 15.6028C16.0369 15.673 15.8622 15.7838 15.7195 15.9289C15.5768 16.074 15.4689 16.2505 15.402 16.4482C15.3351 16.6459 15.3105 16.8609 15.3298 17.0809L15.9185 24.1473C15.9359 24.3671 15.9967 24.5879 16.0975 24.7968C16.1982 25.0057 16.3369 25.1986 16.5056 25.3645C16.6742 25.5303 16.8694 25.6658 17.0799 25.7631C17.2905 25.8604 17.5122 25.9176 17.7322 25.9314C17.9525 25.947 18.1671 25.9189 18.3636 25.8487C18.5602 25.7786 18.7349 25.6678 18.8776 25.5227C19.0204 25.3776 19.1283 25.2011 19.1952 25.0034C19.2621 24.8057 19.2866 24.5906 19.2674 24.3707L19.0015 21.3196L26.1417 28.3428L20.0984 34.4867L19.8561 31.4371C19.8378 31.2175 19.7764 30.9972 19.6753 30.7886C19.5742 30.5801 19.4355 30.3875 19.2671 30.2219C19.0987 30.0562 18.9038 29.9207 18.6937 29.8231C18.4835 29.7255 18.2622 29.6677 18.0423 29.6531C17.8224 29.6384 17.6083 29.6671 17.4121 29.7376C17.2159 29.8081 17.0416 29.919 16.8991 30.0639C16.7565 30.2088 16.6485 30.385 16.5813 30.5823C16.514 30.7796 16.4889 30.9941 16.5071 31.2138L17.0958 38.2802C17.1133 38.5 17.1741 38.7208 17.2749 38.9297C17.3756 39.1386 17.5143 39.3315 17.683 39.4974C17.8516 39.6632 18.0468 39.7987 18.2573 39.896C18.4679 39.9933 18.6896 40.0505 18.9096 40.0643L25.9848 40.5362C26.4289 40.5658 26.8402 40.4181 27.1281 40.1254C27.4159 39.8327 27.5569 39.4191 27.52 38.9755C27.483 38.532 27.2712 38.0948 26.931 37.7602C26.5909 37.4257 26.1503 37.2211 25.7062 37.1914L22.653 36.9995L28.6963 30.8556L35.8365 37.8789L32.7814 37.6634C32.5612 37.6478 32.3466 37.6759 32.15 37.746C31.9534 37.8162 31.7787 37.927 31.636 38.0721C31.4933 38.2172 31.3854 38.3937 31.3185 38.5914C31.2516 38.7891 31.227 39.0041 31.2463 39.2241C31.2637 39.4439 31.3245 39.6646 31.4253 39.8735C31.526 40.0824 31.6647 40.2754 31.8334 40.4412C32.002 40.6071 32.1972 40.7426 32.4077 40.8399C32.6183 40.9372 32.84 40.9944 33.06 41.0082L40.1352 41.4801C40.3555 41.4957 40.5701 41.4676 40.7667 41.3974C40.9632 41.3273 41.1379 41.2165 41.2806 41.0714C41.4234 40.9263 41.5313 40.7498 41.5982 40.5521C41.6651 40.3543 41.6896 40.1393 41.6704 39.9194Z" fill="#4400FF"/>
</g>
<defs>
<clipPath id="clip0_513_5184">
<rect width="43" height="37" fill="white" transform="translate(26.1453 0.234375) rotate(44.5269)"/>
</clipPath>
</defs>
</svg>
