<?xml version="1.0" encoding="UTF-8"?> <svg xmlns="http://www.w3.org/2000/svg" width="437" height="458" viewBox="0 0 437 458" fill="none"><g clip-path="url(#clip0)"><path d="M294.765 326.292C342.104 288.331 353.7 220.424 319.51 169.023C285.321 117.622 217.539 100.881 163.386 128.586" stroke="#0069B4" stroke-width="2.55949"></path><path d="M142.584 142.026C95.2444 179.87 83.6486 247.776 117.838 299.295C152.028 350.696 219.69 367.437 273.963 339.732" stroke="#0069B4" stroke-width="2.55949"></path><path d="M141.986 180.104V142.261H103.612" stroke="#0069B4" stroke-width="2.55949"></path><path d="M289.862 293.519V331.362H328.236" stroke="#0069B4" stroke-width="2.55949"></path><path d="M299.474 245.32C307.237 202.769 278.554 162.069 235.408 154.412C192.262 146.755 150.991 175.042 143.227 217.593C135.463 260.143 164.146 300.844 207.293 308.5C250.439 316.157 291.71 287.87 299.474 245.32Z" fill="#00ACEB"></path><path d="M276.169 241.213C281.63 211.354 261.512 182.783 231.235 177.397C200.958 172.012 171.986 191.851 166.525 221.71C161.064 251.569 181.182 280.141 211.459 285.526C241.736 290.912 270.708 271.072 276.169 241.213Z" fill="white"></path><path d="M219.331 201.443V213.586" stroke="#0069B4" stroke-width="2.55949"></path><path d="M219.331 253.789V265.932" stroke="#0069B4" stroke-width="2.55949"></path><path d="M221.362 233.745H217.297C211.679 233.745 207.136 229.265 207.136 223.724C207.136 218.183 211.679 213.703 217.297 213.703H221.362C226.981 213.703 231.523 218.183 231.523 223.724" stroke="#0069B4" stroke-width="2.55949"></path><path d="M217.297 233.746H221.362C226.981 233.746 231.523 238.226 231.523 243.767C231.523 249.307 226.981 253.787 221.362 253.787H217.297C211.679 253.787 207.136 249.307 207.136 243.767" stroke="#0069B4" stroke-width="2.55949"></path></g><defs><clipPath id="clip0"><rect width="335.348" height="366.543" fill="white" transform="translate(50.9998)"></rect></clipPath></defs></svg> 