<svg width="24" height="24" viewBox="0 0 24 24" fill="none" xmlns="http://www.w3.org/2000/svg">
<path d="M18 9.15789C18 11.9015 15.11 15.5775 13.3415 17.5701C12.6179 18.3854 11.3821 18.3854 10.6585 17.5701C8.88998 15.5775 6 11.9015 6 9.15789C6 5.2047 8.68629 3 12 3C15.3137 3 18 5.2047 18 9.15789Z" stroke="#0048E5" stroke-linejoin="round"/>
<circle cx="12" cy="8" r="2" stroke="#0048E5"/>
<path d="M14.5 16.1817H15C17.9318 16.5526 20 17.4508 20 18.5C20 19.8807 16.4183 21 12 21C7.58172 21 4 19.8807 4 18.5C4 17.4508 6.06817 16.5526 9 16.1817H9.5" stroke="#0048E5"/>
</svg>
