<svg width="59" height="78" viewBox="0 0 59 78" fill="none" xmlns="http://www.w3.org/2000/svg">
<path d="M29.6228 52H29.377" stroke="#0048E5" stroke-width="3" stroke-linecap="round" stroke-linejoin="round"/>
<path d="M29.5002 68.25C36.2887 68.25 41.7918 60.9746 41.7918 52C41.7918 43.0254 36.2887 35.75 29.5002 35.75C22.7117 35.75 17.2085 43.0254 17.2085 52C17.2085 60.9746 22.7117 68.25 29.5002 68.25Z" fill="#0073E6" fill-opacity="0.14" stroke="#0048E5" stroke-width="2" stroke-linecap="round" stroke-linejoin="round"/>
<path d="M19.6665 42.25V22.75C19.6665 19.3022 20.7025 15.9956 22.5466 13.5576C24.3907 11.1196 26.8919 9.75 29.4998 9.75C32.1078 9.75 34.6089 11.1196 36.4531 13.5576C38.2972 15.9956 39.3332 19.3022 39.3332 22.75V42.25" fill="#0073E6" fill-opacity="0.09"/>
<path d="M19.6665 42.25V22.75C19.6665 19.3022 20.7025 15.9956 22.5466 13.5576C24.3907 11.1196 26.8919 9.75 29.4998 9.75C32.1078 9.75 34.6089 11.1196 36.4531 13.5576C38.2972 15.9956 39.3332 19.3022 39.3332 22.75V42.25" stroke="#0048E5" stroke-width="2" stroke-linecap="round" stroke-linejoin="round"/>
</svg>
