<svg width="43" height="38" viewBox="0 0 43 38" fill="none" xmlns="http://www.w3.org/2000/svg">
<path d="M20.9266 26.8058L28.2187 33.2499L31.4258 30.4158C31.6125 30.2514 31.7558 30.0527 31.8457 29.8337C31.9355 29.6148 31.9695 29.381 31.9454 29.1491L30.7808 17.8916" stroke="#1EF64E" stroke-width="2" stroke-linecap="round" stroke-linejoin="round"/>
<path d="M16.788 7.45752L14.3334 9.70585M32.0171 25.3334L34.5613 23.1009L32.0171 25.3334Z" stroke="#1EF64E" stroke-width="2" stroke-linecap="round" stroke-linejoin="round"/>
<path d="M22.8437 10.7985L10.0154 9.76935C9.753 9.74802 9.48848 9.77811 9.24073 9.85748C8.99297 9.93685 8.76808 10.0635 8.58208 10.2285L5.375 13.0627L12.7029 19.5385" stroke="#1EF64E" stroke-width="2" stroke-linecap="round" stroke-linejoin="round"/>
<path d="M16.7879 27.645C16.9544 27.7934 17.1526 27.9112 17.3709 27.9916C17.5893 28.072 17.8235 28.1133 18.06 28.1133C18.2965 28.1133 18.5307 28.072 18.749 27.9916C18.9673 27.9112 19.1655 27.7934 19.3321 27.645L33.5041 15.1208C36.1403 12.7894 37.6223 9.62915 37.625 6.33333C37.625 5.91341 37.4362 5.51068 37.1002 5.21375C36.7642 4.91681 36.3085 4.75 35.8333 4.75C32.1038 4.7524 28.5277 6.06207 25.8896 8.39167L11.7175 20.9158C11.5495 21.063 11.4163 21.2381 11.3253 21.4311C11.2343 21.624 11.1875 21.831 11.1875 22.04C11.1875 22.249 11.2343 22.456 11.3253 22.6489C11.4163 22.8419 11.5495 23.017 11.7175 23.1642L16.7879 27.645Z" stroke="#0048E5" stroke-width="2" stroke-linecap="round" stroke-linejoin="round"/>
</svg>
