<svg width="43" height="37" viewBox="0 0 43 37" fill="none" xmlns="http://www.w3.org/2000/svg">
<path d="M26.9824 15.4167H9.85408C9.03059 15.4167 8.21515 15.2771 7.45434 15.0059C6.69353 14.7348 6.00224 14.3373 5.41994 13.8363C4.83764 13.3352 4.37573 12.7404 4.06059 12.0857C3.74545 11.4311 3.58325 10.7294 3.58325 10.0208C3.58325 9.31224 3.74545 8.61059 4.06059 7.95594C4.37573 7.30129 4.83764 6.70645 5.41994 6.2054C6.00224 5.70435 6.69353 5.3069 7.45434 5.03573C8.21515 4.76457 9.03059 4.625 9.85408 4.625H26.9824C27.3413 4.6247 27.6919 4.71712 27.989 4.89029C28.2861 5.06346 28.5159 5.3094 28.6487 5.59625C28.7792 5.8814 28.8081 6.19357 28.7315 6.49288C28.6549 6.79219 28.4763 7.06507 28.2187 7.27667C27.7939 7.63416 27.4565 8.06105 27.2261 8.53228C26.9957 9.00351 26.877 9.5096 26.877 10.0208C26.877 10.5321 26.9957 11.0382 27.2261 11.5094C27.4565 11.9806 27.7939 12.4075 28.2187 12.765C28.4794 12.9748 28.6613 13.2469 28.7411 13.5463C28.8209 13.8457 28.795 14.1588 28.6666 14.4454C28.5327 14.7347 28.3001 14.9824 27.9995 15.1557C27.6989 15.3291 27.3443 15.4201 26.9824 15.4167ZM33.1458 21.5833H16.0174C15.6586 21.583 15.3079 21.6755 15.0108 21.8486C14.7137 22.0218 14.4839 22.2677 14.3512 22.5546C14.2206 22.8397 14.1918 23.1519 14.2684 23.4512C14.345 23.7505 14.5235 24.0234 14.7812 24.235C15.2059 24.5925 15.5434 25.0194 15.7737 25.4906C16.0041 25.9618 16.1228 26.4679 16.1228 26.9792C16.1228 27.4904 16.0041 27.9965 15.7737 28.4677C15.5434 28.939 15.2059 29.3658 14.7812 29.7233C14.5204 29.9332 14.3385 30.2052 14.2587 30.5046C14.1789 30.804 14.2049 31.1171 14.3333 31.4038C14.466 31.6906 14.6958 31.9365 14.9929 32.1097C15.29 32.2829 15.6407 32.3753 15.9995 32.375H33.1458C34.8165 32.3888 36.4261 31.8348 37.6249 30.8333C38.5092 30.0774 39.1124 29.1124 39.358 28.0609C39.6037 27.0094 39.4806 25.9188 39.0044 24.9275C38.5283 23.9363 37.7206 23.0892 36.6838 22.4938C35.6471 21.8984 34.4281 21.5815 33.1816 21.5833H33.1458Z" fill="#0048E5"/>
<path d="M39.4166 10.021C39.4166 11.3931 38.9437 12.7344 38.0578 13.8753C37.1719 15.0161 35.9127 15.9053 34.4395 16.4304C32.9662 16.9555 31.3451 17.0929 29.7812 16.8252C28.2172 16.5575 26.7806 15.8968 25.653 14.9266C24.5255 13.9563 23.7576 12.7202 23.4465 11.3745C23.1354 10.0287 23.2951 8.63381 23.9053 7.36615C24.5155 6.09848 25.5489 5.015 26.8748 4.25269C28.2007 3.49039 29.7595 3.08351 31.3541 3.08351C32.4135 3.08148 33.463 3.25954 34.4423 3.60746C35.4215 3.95538 36.3113 4.46632 37.0604 5.11093C37.8096 5.75554 38.4033 6.52113 38.8077 7.36374C39.212 8.20636 39.419 9.1094 39.4166 10.021ZM11.6458 20.0418C10.0511 20.0418 8.49234 20.4487 7.16647 21.211C5.8406 21.9733 4.80721 23.0568 4.19698 24.3245C3.58675 25.5921 3.42708 26.987 3.73817 28.3328C4.04927 29.6785 4.81715 30.9147 5.94471 31.8849C7.07227 32.8551 8.50887 33.5159 10.0728 33.7835C11.6368 34.0512 13.2579 33.9138 14.7311 33.3888C16.2044 32.8637 17.4636 31.9745 18.3495 30.8336C19.2354 29.6928 19.7083 28.3515 19.7083 26.9793C19.7106 26.0677 19.5037 25.1647 19.0993 24.3221C18.695 23.4795 18.1012 22.7139 17.3521 22.0693C16.6029 21.4247 15.7132 20.9137 14.7339 20.5658C13.7547 20.2179 12.7052 20.0398 11.6458 20.0418Z" fill="#1EF64E"/>
</svg>
